<?xml version="1.0" encoding="UTF-8" standalone="no"?><!-- Generator: Gravit.io --><svg xmlns="http://www.w3.org/2000/svg" xmlns:xlink="http://www.w3.org/1999/xlink" style="isolation:isolate" viewBox="1115 426 30 32" width="30pt" height="32pt"><g><g><ellipse vector-effect="non-scaling-stroke" cx="1130" cy="438" rx="12" ry="10" fill="rgb(255,255,255)"/><clipPath id="_clipPath_nngvDQ7SUYESJ33IhB9CaBAYmAwnE5Pw"><rect x="1115" y="426" width="30" height="32" transform="matrix(1,0,0,1,0,0)" fill="rgb(255,255,255)"/></clipPath><g clip-path="url(#_clipPath_nngvDQ7SUYESJ33IhB9CaBAYmAwnE5Pw)"><g><g><g><g><g><path d=" M 1130 426 C 1121.716 426 1115 431.373 1115 438 C 1115 440.699 1116.113 443.188 1117.993 445.194 L 1130 458 L 1142.007 445.194 C 1143.887 443.188 1145 440.699 1145 438 C 1145 431.373 1138.284 426 1130 426 Z  M 1130 447 C 1124.478 447 1119 442.418 1119 438 C 1119 433.582 1124.478 429 1130 429 C 1135.523 429 1141 433.582 1141 438 C 1141 442.418 1135.523 447 1130 447 Z " fill="rgb(213,43,60)"/></g></g></g></g></g></g></g><g><path d=" M 1132.761 431.572 C 1133.531 430.809 1134.78 430.809 1135.55 431.572 C 1136.32 432.335 1136.32 433.571 1135.55 434.334 L 1132.761 431.572 Z " fill="rgb(215,90,74)"/><path d=" M 1133.458 435.369 L 1127.07 441.695 L 1126.94 442.861 L 1133.981 435.887 L 1133.981 435.887 L 1133.458 435.369 Z " fill="rgb(237,138,25)"/><path d=" M 1125.545 441.48 L 1126.722 441.35 L 1133.11 435.024 L 1132.064 433.989 L 1125.676 440.314 L 1125.545 441.48 Z " fill="rgb(237,138,25)"/><path d=" M 1131.715 433.643 L 1131.192 433.125 L 1131.192 433.125 L 1124.151 440.099 L 1125.327 439.969 L 1131.715 433.643 Z " fill="rgb(237,138,25)"/><path d=" M 1135.027 434.852 L 1135.027 434.852 L 1135.55 434.334 L 1132.761 431.572 L 1132.238 432.09 L 1132.238 432.09 L 1135.027 434.852 Z " fill="rgb(199,202,199)"/><path d=" M 1131.889 432.435 L 1131.889 432.435 L 1131.541 432.78 L 1131.541 432.78 L 1134.33 435.542 L 1134.33 435.542 L 1134.678 435.197 L 1134.678 435.197 L 1131.889 432.435 Z " fill="rgb(199,202,199)"/><path d=" M 1126.556 441.86 L 1125.293 441.999 C 1125.284 442 1125.275 442 1125.266 442 C 1125.266 442 1125.266 442 1125.266 442 L 1125.266 442 L 1125.266 442 C 1125.266 442 1125.266 442 1125.266 442 C 1125.257 442 1125.248 442 1125.239 441.999 C 1125.229 441.998 1125.221 441.992 1125.212 441.99 C 1125.194 441.986 1125.177 441.982 1125.161 441.974 C 1125.149 441.968 1125.138 441.961 1125.127 441.953 C 1125.113 441.944 1125.1 441.933 1125.088 441.921 C 1125.079 441.911 1125.071 441.901 1125.064 441.89 C 1125.054 441.876 1125.047 441.861 1125.04 441.845 C 1125.035 441.832 1125.031 441.819 1125.028 441.805 C 1125.026 441.797 1125.022 441.791 1125.021 441.783 C 1125.02 441.773 1125.024 441.765 1125.024 441.756 C 1125.024 441.747 1125.02 441.738 1125.021 441.729 L 1125.161 440.479 L 1123.899 440.618 C 1123.89 440.619 1123.88 440.619 1123.871 440.619 C 1123.852 440.619 1123.834 440.613 1123.815 440.609 L 1123.109 443.547 L 1123.628 443.033 C 1123.724 442.937 1123.88 442.937 1123.977 443.033 C 1124.073 443.128 1124.073 443.283 1123.977 443.378 L 1123.458 443.892 L 1126.423 443.193 C 1126.417 443.166 1126.412 443.139 1126.416 443.11 L 1126.556 441.86 Z " fill="rgb(251,206,157)"/><path d=" M 1123.977 443.033 C 1123.88 442.937 1123.724 442.937 1123.628 443.033 L 1123.109 443.547 L 1123 444 L 1123.458 443.892 L 1123.977 443.378 C 1124.073 443.283 1124.073 443.128 1123.977 443.033 Z " fill="rgb(56,69,79)"/><path d=" M 1135.027 434.852 L 1132.238 432.09 L 1132.238 432.09 L 1131.889 432.435 L 1131.889 432.435 L 1134.678 435.197 L 1134.678 435.197 L 1135.027 434.852 L 1135.027 434.852 Z " fill="rgb(242,236,191)"/><path d=" M 1133.11 435.024 L 1126.722 441.35 L 1125.545 441.48 L 1125.676 440.314 L 1132.064 433.989 L 1131.715 433.643 L 1125.327 439.969 L 1124.151 440.099 L 1123.871 440.375 L 1123.815 440.609 C 1123.834 440.613 1123.851 440.619 1123.871 440.619 C 1123.88 440.619 1123.889 440.619 1123.899 440.618 L 1125.161 440.479 L 1125.021 441.729 C 1125.02 441.738 1125.023 441.747 1125.023 441.756 C 1125.023 441.765 1125.02 441.773 1125.021 441.783 C 1125.022 441.791 1125.026 441.797 1125.028 441.805 C 1125.031 441.819 1125.035 441.833 1125.04 441.845 C 1125.046 441.861 1125.054 441.876 1125.063 441.89 C 1125.071 441.901 1125.079 441.911 1125.088 441.921 C 1125.1 441.933 1125.113 441.944 1125.127 441.953 C 1125.138 441.961 1125.149 441.968 1125.161 441.974 C 1125.177 441.981 1125.194 441.986 1125.212 441.99 C 1125.221 441.992 1125.229 441.998 1125.238 441.999 C 1125.247 442 1125.256 442 1125.265 442 L 1125.266 442 L 1125.266 442 L 1125.266 442 L 1125.266 442 C 1125.266 442 1125.266 442 1125.266 442 L 1125.266 442 C 1125.275 442 1125.284 442 1125.293 441.999 L 1126.556 441.86 L 1126.416 443.11 C 1126.412 443.139 1126.417 443.166 1126.423 443.193 L 1126.66 443.137 L 1126.94 442.861 L 1127.07 441.696 L 1133.458 435.37 L 1133.11 435.024 Z " fill="rgb(235,186,22)"/><path d=" M 1134.33 435.542 L 1131.541 432.78 L 1131.541 432.78 L 1131.192 433.125 L 1131.192 433.125 L 1131.715 433.643 L 1132.064 433.989 L 1133.11 435.024 L 1133.458 435.369 L 1133.981 435.887 L 1133.981 435.887 L 1134.33 435.542 L 1134.33 435.542 Z " fill="rgb(242,236,191)"/></g></g></svg>