<?xml version="1.0" standalone="no"?><!-- Generator: Gravit.io --><svg xmlns="http://www.w3.org/2000/svg" xmlns:xlink="http://www.w3.org/1999/xlink" style="isolation:isolate" viewBox="425 696 30 32" width="30" height="32"><defs><clipPath id="_clipPath_1sIY1U4j5lx2z0Hu4jlr0oUKwAUhjcq0"><rect x="425" y="696" width="30" height="32"/></clipPath></defs><g clip-path="url(#_clipPath_1sIY1U4j5lx2z0Hu4jlr0oUKwAUhjcq0)"><g><g><path d=" M 440 696 C 431.716 696 425 701.373 425 708 C 425 710.699 426.113 713.188 427.993 715.194 L 440 728 L 452.007 715.194 C 453.887 713.188 455 710.699 455 708 C 455 701.373 448.284 696 440 696 Z  M 440 718 C 434.478 718 429 712.418 429 708 C 429 703.582 434.478 699 440 699 C 445.523 699 451 703.582 451 708 C 451 712.418 445.523 718 440 718 Z " fill="rgb(0,150,215)"/></g></g><g><clipPath id="_clipPath_Bb6laE0M406MjbWE339TSMqbQRGsYts2"><path d=" M 448.5 708.501 C 448.5 713.195 444.694 717 440 717 C 435.305 717 431.5 713.195 431.5 708.501 C 431.5 703.805 435.305 700 440 700 C 444.694 700 448.5 703.805 448.5 708.501 Z " fill="rgb(255,255,255)"/></clipPath><g clip-path="url(#_clipPath_Bb6laE0M406MjbWE339TSMqbQRGsYts2)"><g><path d=" M 448.722 708.485 C 448.722 713.241 444.867 717.096 440.111 717.096 C 435.355 717.096 431.499 713.241 431.499 708.485 C 431.499 703.727 435.355 699.872 440.111 699.872 C 444.867 699.872 448.722 703.727 448.722 708.485 L 448.722 708.485 Z " fill="rgb(178,180,182)"/><path d=" M 448.706 708.48 C 448.706 713.221 444.862 717.066 440.12 717.066 C 435.378 717.066 431.534 713.221 431.534 708.48 C 431.534 703.736 435.378 699.892 440.12 699.892 C 444.862 699.892 448.706 703.736 448.706 708.48 Z " fill="rgb(178,180,183)"/><path d=" M 448.69 708.474 C 448.69 713.202 444.857 717.035 440.129 717.035 C 435.401 717.035 431.568 713.202 431.568 708.474 C 431.568 703.745 435.401 699.913 440.129 699.913 C 444.857 699.913 448.69 703.745 448.69 708.474 Z " fill="rgb(178,180,183)"/><path d=" M 448.673 708.469 C 448.673 713.183 444.852 717.005 440.138 717.005 C 435.424 717.005 431.602 713.183 431.602 708.469 C 431.602 703.754 435.424 699.933 440.138 699.933 C 444.852 699.933 448.673 703.754 448.673 708.469 Z " fill="rgb(179,181,184)"/><path d=" M 448.657 708.464 C 448.657 713.164 444.847 716.974 440.147 716.974 C 435.447 716.974 431.637 713.164 431.637 708.464 C 431.637 703.763 435.447 699.953 440.147 699.953 C 444.847 699.953 448.657 703.763 448.657 708.464 Z " fill="rgb(180,182,184)"/><path d=" M 448.641 708.459 C 448.641 713.145 444.842 716.944 440.156 716.944 C 435.47 716.944 431.671 713.145 431.671 708.459 C 431.671 703.772 435.47 699.973 440.156 699.973 C 444.842 699.973 448.641 703.772 448.641 708.459 Z " fill="rgb(181,183,185)"/><path d=" M 448.625 708.454 C 448.625 713.126 444.837 716.913 440.165 716.913 C 435.493 716.913 431.706 713.126 431.706 708.454 C 431.706 703.781 435.493 699.993 440.165 699.993 C 444.837 699.993 448.625 703.781 448.625 708.454 Z " fill="rgb(182,184,186)"/><path d=" M 448.608 708.449 C 448.608 713.106 444.832 716.882 440.174 716.882 C 435.516 716.882 431.74 713.106 431.74 708.449 C 431.74 703.79 435.516 700.014 440.174 700.014 C 444.832 700.014 448.608 703.79 448.608 708.449 Z " fill="rgb(183,185,187)"/><path d=" M 448.592 708.444 C 448.592 713.087 444.827 716.852 440.183 716.852 C 435.539 716.852 431.775 713.087 431.775 708.444 C 431.775 703.799 435.539 700.034 440.183 700.034 C 444.827 700.034 448.592 703.799 448.592 708.444 Z " fill="rgb(183,185,188)"/><path d=" M 448.576 708.438 C 448.576 713.068 444.822 716.821 440.192 716.821 C 435.562 716.821 431.809 713.068 431.809 708.438 C 431.809 703.807 435.562 700.054 440.192 700.054 C 444.822 700.054 448.576 703.807 448.576 708.438 Z " fill="rgb(183,185,188)"/><path d=" M 448.57 708.434 C 448.57 713.054 444.825 716.799 440.205 716.799 C 435.584 716.799 431.839 713.054 431.839 708.434 C 431.839 703.813 435.584 700.068 440.205 700.068 C 444.825 700.068 448.57 703.813 448.57 708.434 Z " fill="rgb(184,186,188)"/><path d=" M 448.564 708.429 C 448.564 713.039 444.827 716.776 440.217 716.776 C 435.606 716.776 431.869 713.039 431.869 708.429 C 431.869 703.818 435.606 700.081 440.217 700.081 C 444.827 700.081 448.564 703.818 448.564 708.429 Z " fill="rgb(185,187,189)"/><path d=" M 448.558 708.425 C 448.558 713.025 444.829 716.754 440.229 716.754 C 435.628 716.754 431.899 713.025 431.899 708.425 C 431.899 703.824 435.628 700.095 440.229 700.095 C 444.829 700.095 448.558 703.824 448.558 708.425 Z " fill="rgb(186,188,190)"/><path d=" M 448.553 708.421 C 448.553 713.01 444.831 716.731 440.241 716.731 C 435.65 716.731 431.93 713.01 431.93 708.421 C 431.93 703.829 435.65 700.108 440.241 700.108 C 444.831 700.108 448.553 703.829 448.553 708.421 Z " fill="rgb(187,189,191)"/><path d=" M 448.547 708.416 C 448.547 712.996 444.834 716.709 440.253 716.709 C 435.673 716.709 431.96 712.996 431.96 708.416 C 431.96 703.835 435.673 700.122 440.253 700.122 C 444.834 700.122 448.547 703.835 448.547 708.416 Z " fill="rgb(188,189,192)"/><path d=" M 448.541 708.412 C 448.541 712.982 444.836 716.686 440.266 716.686 C 435.695 716.686 431.99 712.982 431.99 708.412 C 431.99 703.84 435.695 700.135 440.266 700.135 C 444.836 700.135 448.541 703.84 448.541 708.412 Z " fill="rgb(188,190,192)"/><path d=" M 448.535 708.407 C 448.535 712.967 444.838 716.664 440.278 716.664 C 435.717 716.664 432.02 712.967 432.02 708.407 C 432.02 703.845 435.717 700.148 440.278 700.148 C 444.838 700.148 448.535 703.845 448.535 708.407 Z " fill="rgb(189,191,193)"/><path d=" M 448.53 708.402 C 448.53 712.953 444.84 716.642 440.29 716.642 C 435.739 716.642 432.05 712.953 432.05 708.402 C 432.05 703.851 435.739 700.162 440.29 700.162 C 444.84 700.162 448.53 703.851 448.53 708.402 Z " fill="rgb(190,192,194)"/><path d=" M 448.524 708.398 C 448.524 712.939 444.843 716.619 440.302 716.619 C 435.761 716.619 432.08 712.939 432.08 708.398 C 432.08 703.856 435.761 700.176 440.302 700.176 C 444.843 700.176 448.524 703.856 448.524 708.398 Z " fill="rgb(191,193,195)"/><path d=" M 448.518 708.394 C 448.518 712.924 444.845 716.597 440.314 716.597 C 435.783 716.597 432.11 712.924 432.11 708.394 C 432.11 703.862 435.783 700.189 440.314 700.189 C 444.845 700.189 448.518 703.862 448.518 708.394 Z " fill="rgb(192,194,196)"/><path d=" M 448.512 708.389 C 448.512 712.91 444.847 716.574 440.326 716.574 C 435.805 716.574 432.141 712.91 432.141 708.389 C 432.141 703.867 435.805 700.202 440.326 700.202 C 444.847 700.202 448.512 703.867 448.512 708.389 Z " fill="rgb(193,194,196)"/><path d=" M 448.506 708.385 C 448.506 712.895 444.85 716.552 440.339 716.552 C 435.827 716.552 432.171 712.895 432.171 708.385 C 432.171 703.873 435.827 700.216 440.339 700.216 C 444.85 700.216 448.506 703.873 448.506 708.385 Z " fill="rgb(193,195,197)"/><path d=" M 448.501 708.38 C 448.501 712.881 444.852 716.529 440.351 716.529 C 435.85 716.529 432.201 712.881 432.201 708.38 C 432.201 703.878 435.85 700.229 440.351 700.229 C 444.852 700.229 448.501 703.878 448.501 708.38 Z " fill="rgb(194,196,198)"/><path d=" M 448.495 708.376 C 448.495 712.866 444.854 716.507 440.363 716.507 C 435.872 716.507 432.231 712.866 432.231 708.376 C 432.231 703.884 435.872 700.243 440.363 700.243 C 444.854 700.243 448.495 703.884 448.495 708.376 Z " fill="rgb(195,197,199)"/><path d=" M 448.489 708.371 C 448.489 712.852 444.856 716.485 440.375 716.485 C 435.894 716.485 432.261 712.852 432.261 708.371 C 432.261 703.889 435.894 700.256 440.375 700.256 C 444.856 700.256 448.489 703.889 448.489 708.371 Z " fill="rgb(196,198,200)"/><path d=" M 448.483 708.367 C 448.483 712.838 444.859 716.462 440.388 716.462 C 435.916 716.462 432.291 712.838 432.291 708.367 C 432.291 703.894 435.916 700.27 440.388 700.27 C 444.859 700.27 448.483 703.894 448.483 708.367 Z " fill="rgb(197,198,200)"/><path d=" M 448.478 708.362 C 448.478 712.823 444.861 716.44 440.4 716.44 C 435.938 716.44 432.322 712.823 432.322 708.362 C 432.322 703.9 435.938 700.283 440.4 700.283 C 444.861 700.283 448.478 703.9 448.478 708.362 Z " fill="rgb(197,199,201)"/><path d=" M 448.472 708.358 C 448.472 712.809 444.863 716.417 440.412 716.417 C 435.96 716.417 432.352 712.809 432.352 708.358 C 432.352 703.905 435.96 700.297 440.412 700.297 C 444.863 700.297 448.472 703.905 448.472 708.358 Z " fill="rgb(198,200,202)"/><path d=" M 448.466 708.353 C 448.466 712.795 444.866 716.395 440.424 716.395 C 435.982 716.395 432.382 712.795 432.382 708.353 C 432.382 703.911 435.982 700.31 440.424 700.31 C 444.866 700.31 448.466 703.911 448.466 708.353 Z " fill="rgb(199,201,203)"/><path d=" M 448.461 708.349 C 448.461 712.78 444.868 716.372 440.436 716.372 C 436.005 716.372 432.412 712.78 432.412 708.349 C 432.412 703.916 436.005 700.324 440.436 700.324 C 444.868 700.324 448.461 703.916 448.461 708.349 Z " fill="rgb(200,202,204)"/><path d=" M 448.455 708.344 C 448.455 712.766 444.87 716.35 440.449 716.35 C 436.027 716.35 432.442 712.766 432.442 708.344 C 432.442 703.922 436.027 700.337 440.449 700.337 C 444.87 700.337 448.455 703.922 448.455 708.344 Z " fill="rgb(201,203,204)"/><path d=" M 448.449 708.34 C 448.449 712.751 444.872 716.328 440.461 716.328 C 436.049 716.328 432.472 712.751 432.472 708.34 C 432.472 703.927 436.049 700.351 440.461 700.351 C 444.872 700.351 448.449 703.927 448.449 708.34 Z " fill="rgb(202,203,205)"/><path d=" M 448.443 708.335 C 448.443 712.737 444.875 716.305 440.473 716.305 C 436.071 716.305 432.503 712.737 432.503 708.335 C 432.503 703.932 436.071 700.364 440.473 700.364 C 444.875 700.364 448.443 703.932 448.443 708.335 L 448.443 708.335 Z " fill="rgb(203,204,206)"/><path d=" M 448.438 708.331 C 448.438 712.722 444.877 716.283 440.485 716.283 C 436.093 716.283 432.533 712.722 432.533 708.331 C 432.533 703.938 436.093 700.378 440.485 700.378 C 444.877 700.378 448.438 703.938 448.438 708.331 Z " fill="rgb(203,205,207)"/><path d=" M 448.432 708.326 C 448.432 712.708 444.879 716.26 440.497 716.26 C 436.115 716.26 432.563 712.708 432.563 708.326 C 432.563 703.943 436.115 700.391 440.497 700.391 C 444.879 700.391 448.432 703.943 448.432 708.326 Z " fill="rgb(204,206,208)"/><path d=" M 448.426 708.322 C 448.426 712.694 444.882 716.238 440.51 716.238 C 436.137 716.238 432.593 712.694 432.593 708.322 C 432.593 703.949 436.137 700.405 440.51 700.405 C 444.882 700.405 448.426 703.949 448.426 708.322 Z " fill="rgb(205,207,208)"/><path d=" M 448.42 708.317 C 448.42 712.679 444.884 716.215 440.522 716.215 C 436.159 716.215 432.623 712.679 432.623 708.317 C 432.623 703.954 436.159 700.418 440.522 700.418 C 444.884 700.418 448.42 703.954 448.42 708.317 Z " fill="rgb(206,207,209)"/><path d=" M 448.414 708.313 C 448.414 712.665 444.886 716.193 440.534 716.193 C 436.181 716.193 432.653 712.665 432.653 708.313 C 432.653 703.96 436.181 700.432 440.534 700.432 C 444.886 700.432 448.414 703.96 448.414 708.313 Z " fill="rgb(207,208,210)"/><path d=" M 448.409 708.308 C 448.409 712.651 444.888 716.171 440.546 716.171 C 436.204 716.171 432.683 712.651 432.683 708.308 C 432.683 703.965 436.204 700.445 440.546 700.445 C 444.888 700.445 448.409 703.965 448.409 708.308 Z " fill="rgb(208,209,211)"/><path d=" M 448.403 708.304 C 448.403 712.636 444.89 716.148 440.559 716.148 C 436.226 716.148 432.714 712.636 432.714 708.304 C 432.714 703.97 436.226 700.458 440.559 700.458 C 444.89 700.458 448.403 703.97 448.403 708.304 Z " fill="rgb(208,210,211)"/><path d=" M 448.397 708.299 C 448.397 712.622 444.893 716.126 440.571 716.126 C 436.248 716.126 432.744 712.622 432.744 708.299 C 432.744 703.976 436.248 700.472 440.571 700.472 C 444.893 700.472 448.397 703.976 448.397 708.299 Z " fill="rgb(209,211,212)"/><path d=" M 448.385 708.293 C 448.385 712.602 444.892 716.094 440.584 716.094 C 436.275 716.094 432.782 712.602 432.782 708.293 C 432.782 703.984 436.275 700.491 440.584 700.491 C 444.892 700.491 448.385 703.984 448.385 708.293 Z " fill="rgb(210,211,213)"/><path d=" M 448.373 708.287 C 448.373 712.581 444.891 716.063 440.597 716.063 C 436.302 716.063 432.821 712.581 432.821 708.287 C 432.821 703.991 436.302 700.51 440.597 700.51 C 444.891 700.51 448.373 703.991 448.373 708.287 Z " fill="rgb(211,212,214)"/><path d=" M 448.361 708.281 C 448.361 712.561 444.891 716.031 440.611 716.031 C 436.33 716.031 432.859 712.561 432.859 708.281 C 432.859 703.999 436.33 700.529 440.611 700.529 C 444.891 700.529 448.361 703.999 448.361 708.281 Z " fill="rgb(212,213,215)"/><path d=" M 448.349 708.274 C 448.349 712.541 444.89 716 440.624 716 C 436.357 716 432.898 712.541 432.898 708.274 C 432.898 704.007 436.357 700.548 440.624 700.548 C 444.89 700.548 448.349 704.007 448.349 708.274 Z " fill="rgb(213,214,215)"/><path d=" M 448.337 708.268 C 448.337 712.521 444.889 715.968 440.637 715.968 C 436.384 715.968 432.936 712.521 432.936 708.268 C 432.936 704.014 436.384 700.567 440.637 700.567 C 444.889 700.567 448.337 704.014 448.337 708.268 Z " fill="rgb(213,215,216)"/><path d=" M 448.325 708.262 C 448.325 712.501 444.889 715.937 440.65 715.937 C 436.411 715.937 432.975 712.501 432.975 708.262 C 432.975 704.022 436.411 700.586 440.65 700.586 C 444.889 700.586 448.325 704.022 448.325 708.262 Z " fill="rgb(214,215,217)"/><path d=" M 448.313 708.256 C 448.313 712.48 444.888 715.905 440.663 715.905 C 436.438 715.905 433.014 712.48 433.014 708.256 C 433.014 704.03 436.438 700.605 440.663 700.605 C 444.888 700.605 448.313 704.03 448.313 708.256 Z " fill="rgb(215,216,218)"/><path d=" M 448.301 708.249 C 448.301 712.46 444.887 715.874 440.677 715.874 C 436.466 715.874 433.052 712.46 433.052 708.249 C 433.052 704.037 436.466 700.624 440.677 700.624 C 444.887 700.624 448.301 704.037 448.301 708.249 Z " fill="rgb(216,217,219)"/><path d=" M 448.289 708.243 C 448.289 712.44 444.887 715.842 440.69 715.842 C 436.493 715.842 433.09 712.44 433.09 708.243 C 433.09 704.045 436.493 700.643 440.69 700.643 C 444.887 700.643 448.289 704.045 448.289 708.243 Z " fill="rgb(216,217,219)"/><path d=" M 448.277 708.237 C 448.277 712.42 444.886 715.811 440.703 715.811 C 436.52 715.811 433.129 712.42 433.129 708.237 C 433.129 704.053 436.52 700.662 440.703 700.662 C 444.886 700.662 448.277 704.053 448.277 708.237 Z " fill="rgb(217,218,219)"/><path d=" M 448.265 708.231 C 448.265 712.4 444.886 715.779 440.717 715.779 C 436.547 715.779 433.168 712.4 433.168 708.231 C 433.168 704.06 436.547 700.681 440.717 700.681 C 444.886 700.681 448.265 704.06 448.265 708.231 Z " fill="rgb(217,219,220)"/><path d=" M 448.254 708.224 C 448.254 712.379 444.885 715.748 440.73 715.748 C 436.574 715.748 433.206 712.379 433.206 708.224 C 433.206 704.068 436.574 700.7 440.73 700.7 C 444.885 700.7 448.254 704.068 448.254 708.224 Z " fill="rgb(218,220,221)"/><path d=" M 448.242 708.218 C 448.242 712.359 444.884 715.716 440.743 715.716 C 436.602 715.716 433.245 712.359 433.245 708.218 C 433.245 704.076 436.602 700.719 440.743 700.719 C 444.884 700.719 448.242 704.076 448.242 708.218 Z " fill="rgb(219,220,222)"/><path d=" M 448.23 708.212 C 448.23 712.339 444.884 715.685 440.756 715.685 C 436.629 715.685 433.283 712.339 433.283 708.212 C 433.283 704.083 436.629 700.737 440.756 700.737 C 444.884 700.737 448.23 704.083 448.23 708.212 Z " fill="rgb(220,221,222)"/><path d=" M 448.218 708.205 C 448.218 712.319 444.883 715.653 440.77 715.653 C 436.656 715.653 433.322 712.319 433.322 708.205 C 433.322 704.091 436.656 700.757 440.77 700.757 C 444.883 700.757 448.218 704.091 448.218 708.205 Z " fill="rgb(221,222,223)"/><path d=" M 448.206 708.199 C 448.206 712.299 444.882 715.622 440.783 715.622 C 436.683 715.622 433.36 712.299 433.36 708.199 C 433.36 704.099 436.683 700.776 440.783 700.776 C 444.882 700.776 448.206 704.099 448.206 708.199 Z " fill="rgb(222,223,224)"/><path d=" M 448.194 708.193 C 448.194 712.278 444.882 715.59 440.796 715.59 C 436.71 715.59 433.399 712.278 433.399 708.193 C 433.399 704.106 436.71 700.794 440.796 700.794 C 444.882 700.794 448.194 704.106 448.194 708.193 Z " fill="rgb(222,224,225)"/><path d=" M 448.182 708.187 C 448.182 712.258 444.881 715.559 440.809 715.559 C 436.738 715.559 433.437 712.258 433.437 708.187 C 433.437 704.114 436.738 700.813 440.809 700.813 C 444.881 700.813 448.182 704.114 448.182 708.187 Z " fill="rgb(223,224,226)"/><path d=" M 448.17 708.18 C 448.17 712.238 444.88 715.527 440.823 715.527 C 436.765 715.527 433.476 712.238 433.476 708.18 C 433.476 704.122 436.765 700.832 440.823 700.832 C 444.88 700.832 448.17 704.122 448.17 708.18 Z " fill="rgb(224,225,226)"/><path d=" M 448.154 708.171 C 448.154 712.206 444.883 715.477 440.848 715.477 C 436.813 715.477 433.542 712.206 433.542 708.171 C 433.542 704.135 436.813 700.864 440.848 700.864 C 444.883 700.864 448.154 704.135 448.154 708.171 Z " fill="rgb(225,226,227)"/><path d=" M 448.139 708.162 C 448.139 712.174 444.886 715.427 440.873 715.427 C 436.861 715.427 433.608 712.174 433.608 708.162 C 433.608 704.148 436.861 700.895 440.873 700.895 C 444.886 700.895 448.139 704.148 448.139 708.162 Z " fill="rgb(226,227,228)"/><path d=" M 448.123 708.152 C 448.123 712.142 444.888 715.376 440.898 715.376 C 436.909 715.376 433.674 712.142 433.674 708.152 C 433.674 704.161 436.909 700.927 440.898 700.927 C 444.888 700.927 448.123 704.161 448.123 708.152 Z " fill="rgb(227,228,229)"/><path d=" M 448.108 708.143 C 448.108 712.11 444.891 715.326 440.924 715.326 C 436.956 715.326 433.741 712.11 433.741 708.143 C 433.741 704.175 436.956 700.959 440.924 700.959 C 444.891 700.959 448.108 704.175 448.108 708.143 Z " fill="rgb(227,228,229)"/><path d=" M 448.092 708.133 C 448.092 712.078 444.894 715.276 440.949 715.276 C 437.005 715.276 433.807 712.078 433.807 708.133 C 433.807 704.188 437.005 700.99 440.949 700.99 C 444.894 700.99 448.092 704.188 448.092 708.133 Z " fill="rgb(228,229,230)"/><path d=" M 448.076 708.124 C 448.076 712.046 444.897 715.226 440.974 715.226 C 437.052 715.226 433.873 712.046 433.873 708.124 C 433.873 704.201 437.052 701.022 440.974 701.022 C 444.897 701.022 448.076 704.201 448.076 708.124 Z " fill="rgb(229,230,231)"/><path d=" M 448.061 708.115 C 448.061 712.014 444.899 715.175 441 715.175 C 437.1 715.175 433.939 712.014 433.939 708.115 C 433.939 704.214 437.1 701.053 441 701.053 C 444.899 701.053 448.061 704.214 448.061 708.115 Z " fill="rgb(230,231,232)"/><path d=" M 448.045 708.105 C 448.045 711.982 444.902 715.125 441.025 715.125 C 437.148 715.125 434.005 711.982 434.005 708.105 C 434.005 704.228 437.148 701.085 441.025 701.085 C 444.902 701.085 448.045 704.228 448.045 708.105 Z " fill="rgb(231,232,233)"/><path d=" M 448.029 708.096 C 448.029 711.95 444.905 715.075 441.05 715.075 C 437.196 715.075 434.072 711.95 434.072 708.096 C 434.072 704.241 437.196 701.116 441.05 701.116 C 444.905 701.116 448.029 704.241 448.029 708.096 Z " fill="rgb(231,232,233)"/><path d=" M 448.014 708.087 C 448.014 711.918 444.908 715.025 441.076 715.025 C 437.244 715.025 434.138 711.918 434.138 708.087 C 434.138 704.254 437.244 701.148 441.076 701.148 C 444.908 701.148 448.014 704.254 448.014 708.087 Z " fill="rgb(232,232,233)"/><path d=" M 447.998 708.077 C 447.998 711.886 444.911 714.975 441.101 714.975 C 437.292 714.975 434.204 711.886 434.204 708.077 C 434.204 704.267 437.292 701.179 441.101 701.179 C 444.911 701.179 447.998 704.267 447.998 708.077 Z " fill="rgb(233,233,234)"/><path d=" M 447.983 708.068 C 447.983 711.854 444.913 714.924 441.126 714.924 C 437.34 714.924 434.27 711.854 434.27 708.068 C 434.27 704.281 437.34 701.211 441.126 701.211 C 444.913 701.211 447.983 704.281 447.983 708.068 Z " fill="rgb(233,234,235)"/><path d=" M 447.967 708.059 C 447.967 711.823 444.916 714.874 441.152 714.874 C 437.388 714.874 434.336 711.823 434.336 708.059 C 434.336 704.294 437.388 701.242 441.152 701.242 C 444.916 701.242 447.967 704.294 447.967 708.059 Z " fill="rgb(234,235,236)"/><path d=" M 447.951 708.049 C 447.951 711.791 444.919 714.824 441.177 714.824 C 437.436 714.824 434.403 711.791 434.403 708.049 C 434.403 704.307 437.436 701.274 441.177 701.274 C 444.919 701.274 447.951 704.307 447.951 708.049 Z " fill="rgb(235,236,237)"/><path d=" M 447.936 708.04 C 447.936 711.759 444.921 714.774 441.202 714.774 C 437.484 714.774 434.469 711.759 434.469 708.04 C 434.469 704.32 437.484 701.306 441.202 701.306 C 444.921 701.306 447.936 704.32 447.936 708.04 Z " fill="rgb(236,237,237)"/><path d=" M 447.92 708.03 C 447.92 711.727 444.924 714.723 441.227 714.723 C 437.532 714.723 434.535 711.727 434.535 708.03 C 434.535 704.333 437.532 701.337 441.227 701.337 C 444.924 701.337 447.92 704.333 447.92 708.03 Z " fill="rgb(237,237,238)"/><path d=" M 447.876 708.015 C 447.876 711.667 444.915 714.629 441.262 714.629 C 437.61 714.629 434.649 711.667 434.649 708.015 C 434.649 704.362 437.61 701.401 441.262 701.401 C 444.915 701.401 447.876 704.362 447.876 708.015 Z " fill="rgb(238,238,239)"/><path d=" M 447.831 707.999 C 447.831 711.608 444.906 714.534 441.297 714.534 C 437.688 714.534 434.762 711.608 434.762 707.999 C 434.762 704.39 437.688 701.464 441.297 701.464 C 444.906 701.464 447.831 704.39 447.831 707.999 Z " fill="rgb(238,239,240)"/><path d=" M 447.787 707.984 C 447.787 711.549 444.897 714.439 441.331 714.439 C 437.766 714.439 434.876 711.549 434.876 707.984 C 434.876 704.418 437.766 701.528 441.331 701.528 C 444.897 701.528 447.787 704.418 447.787 707.984 Z " fill="rgb(239,240,240)"/><path d=" M 447.742 707.968 C 447.742 711.49 444.887 714.345 441.366 714.345 C 437.845 714.345 434.99 711.49 434.99 707.968 C 434.99 704.446 437.845 701.591 441.366 701.591 C 444.887 701.591 447.742 704.446 447.742 707.968 Z " fill="rgb(240,241,241)"/><path d=" M 447.698 707.953 C 447.698 711.43 444.879 714.25 441.4 714.25 C 437.923 714.25 435.104 711.43 435.104 707.953 C 435.104 704.474 437.923 701.655 441.4 701.655 C 444.879 701.655 447.698 704.474 447.698 707.953 Z " fill="rgb(241,241,242)"/><path d=" M 447.653 707.937 C 447.653 711.371 444.869 714.155 441.435 714.155 C 438.001 714.155 435.217 711.371 435.217 707.937 C 435.217 704.502 438.001 701.718 441.435 701.718 C 444.869 701.718 447.653 704.502 447.653 707.937 Z " fill="rgb(242,242,243)"/><path d=" M 447.608 707.922 C 447.608 711.312 444.86 714.061 441.47 714.061 C 438.079 714.061 435.331 711.312 435.331 707.922 C 435.331 704.53 438.079 701.782 441.47 701.782 C 444.86 701.782 447.608 704.53 447.608 707.922 Z " fill="rgb(243,243,243)"/><path d=" M 447.564 707.906 C 447.564 711.253 444.851 713.966 441.504 713.966 C 438.158 713.966 435.444 711.253 435.444 707.906 C 435.444 704.559 438.158 701.845 441.504 701.845 C 444.851 701.845 447.564 704.559 447.564 707.906 Z " fill="rgb(243,244,244)"/><path d=" M 447.519 707.891 C 447.519 711.194 444.842 713.871 441.539 713.871 C 438.236 713.871 435.558 711.194 435.558 707.891 C 435.558 704.587 438.236 701.909 441.539 701.909 C 444.842 701.909 447.519 704.587 447.519 707.891 Z " fill="rgb(243,244,244)"/><path d=" M 447.475 707.875 C 447.475 711.134 444.833 713.777 441.573 713.777 C 438.314 713.777 435.672 711.134 435.672 707.875 C 435.672 704.615 438.314 701.972 441.573 701.972 C 444.833 701.972 447.475 704.615 447.475 707.875 Z " fill="rgb(244,245,245)"/><path d=" M 447.43 707.86 C 447.43 711.075 444.824 713.682 441.608 713.682 C 438.393 713.682 435.785 711.075 435.785 707.86 C 435.785 704.643 438.393 702.036 441.608 702.036 C 444.824 702.036 447.43 704.643 447.43 707.86 Z " fill="rgb(245,246,246)"/><path d=" M 447.375 707.837 C 447.375 710.991 444.818 713.548 441.664 713.548 C 438.511 713.548 435.954 710.991 435.954 707.837 C 435.954 704.683 438.511 702.126 441.664 702.126 C 444.818 702.126 447.375 704.683 447.375 707.837 Z " fill="rgb(246,246,247)"/><path d=" M 447.319 707.815 C 447.319 710.907 444.813 713.414 441.721 713.414 C 438.629 713.414 436.122 710.907 436.122 707.815 C 436.122 704.722 438.629 702.215 441.721 702.215 C 444.813 702.215 447.319 704.722 447.319 707.815 Z " fill="rgb(247,247,248)"/><path d=" M 447.264 707.793 C 447.264 710.823 444.807 713.279 441.777 713.279 C 438.747 713.279 436.291 710.823 436.291 707.793 C 436.291 704.762 438.747 702.305 441.777 702.305 C 444.807 702.305 447.264 704.762 447.264 707.793 Z " fill="rgb(248,248,249)"/><path d=" M 447.209 707.771 C 447.209 710.739 444.802 713.145 441.834 713.145 C 438.865 713.145 436.459 710.739 436.459 707.771 C 436.459 704.801 438.865 702.395 441.834 702.395 C 444.802 702.395 447.209 704.801 447.209 707.771 Z " fill="rgb(249,249,250)"/><path d=" M 447.153 707.748 C 447.153 710.655 444.797 713.011 441.89 713.011 C 438.984 713.011 436.628 710.655 436.628 707.748 C 436.628 704.841 438.984 702.485 441.89 702.485 C 444.797 702.485 447.153 704.841 447.153 707.748 Z " fill="rgb(250,251,251)"/><path d=" M 447.098 707.726 C 447.098 710.571 444.791 712.877 441.946 712.877 C 439.102 712.877 436.796 710.571 436.796 707.726 C 436.796 704.88 439.102 702.574 441.946 702.574 C 444.791 702.574 447.098 704.88 447.098 707.726 Z " fill="rgb(250,251,251)"/><path d=" M 447.022 707.709 C 447.022 710.496 444.763 712.755 441.976 712.755 C 439.189 712.755 436.93 710.496 436.93 707.709 C 436.93 704.921 439.189 702.662 441.976 702.662 C 444.763 702.662 447.022 704.921 447.022 707.709 Z " fill="rgb(252,252,252)"/><path d=" M 446.946 707.692 C 446.946 710.421 444.734 712.633 442.005 712.633 C 439.277 712.633 437.064 710.421 437.064 707.692 C 437.064 704.963 439.277 702.751 442.005 702.751 C 444.734 702.751 446.946 704.963 446.946 707.692 Z " fill="rgb(253,253,253)"/><path d=" M 446.871 707.676 C 446.871 710.346 444.706 712.511 442.035 712.511 C 439.364 712.511 437.199 710.346 437.199 707.676 C 437.199 705.004 439.364 702.839 442.035 702.839 C 444.706 702.839 446.871 705.004 446.871 707.676 Z " fill="rgb(253,253,253)"/><path d=" M 446.795 707.659 C 446.795 710.271 444.677 712.39 442.064 712.39 C 439.451 712.39 437.333 710.271 437.333 707.659 C 437.333 705.045 439.451 702.927 442.064 702.927 C 444.677 702.927 446.795 705.045 446.795 707.659 Z " fill="rgb(255,255,255)"/></g></g><path d=" M 432.195 705.646 C 432.195 705.282 432.247 705.027 432.346 704.799 C 432.51 704.46 432.696 704.134 432.902 703.821 C 432.849 703.91 432.818 704.012 432.818 704.131 C 432.818 704.922 434.754 705.949 437.397 706.285 C 438.292 706.4 440.663 706.723 442.498 706.572 C 446.202 706.266 447.027 704.972 447.027 704.131 C 447.027 703.901 446.902 703.565 446.777 703.37 C 446.945 703.592 447.104 703.824 447.25 704.063 C 447.533 704.556 447.498 704.752 447.498 704.838 C 447.498 706.555 444.301 707.677 442.161 708.261 C 436.673 709.76 432.195 707.718 432.195 705.646 Z  M 433.946 703.238 C 433.946 704.013 435.074 705.252 438.34 705.252 C 440.276 705.252 441.839 704.877 443.02 704.484 C 444.911 703.855 445.848 703.087 445.814 702.515 C 445.809 702.426 445.774 702.281 445.669 702.167 C 445.249 701.791 444.791 701.456 444.303 701.168 C 444.626 701.357 444.808 701.575 444.808 701.819 C 444.808 702.672 442.724 703.454 440.002 703.524 C 437.28 703.594 435.024 702.924 434.963 702.073 C 434.943 701.791 435.146 701.514 435.531 701.268 C 435.237 701.45 434.955 701.649 434.687 701.865 C 433.93 702.493 433.946 703.157 433.946 703.238 Z  M 441.033 713.24 C 439.375 713.299 436.457 712.728 434.619 711.977 C 433.14 711.372 431.676 710.197 431.519 709.075 C 431.537 709.345 431.567 709.611 431.61 709.873 C 432.517 714.82 438.748 714.537 439.821 714.418 C 447.658 713.549 448.333 710.203 448.436 709.542 C 448.453 709.404 448.466 709.265 448.476 709.126 C 448.338 710.007 447.013 713.026 441.033 713.24 Z  M 435.074 714.368 C 433.667 713.786 432.694 712.82 432.303 712.114 C 432.663 712.877 433.133 713.58 433.693 714.199 C 435.525 715.921 438.342 716.129 439.636 716.129 C 445.114 716.129 447.07 713.25 447.512 712.48 C 447.594 712.326 447.671 712.168 447.744 712.008 C 446.877 713.794 442.381 717.387 435.074 714.368 Z  M 448.34 707.173 C 448.34 707.036 448.323 706.764 448.259 706.484 C 448.213 706.295 448.16 706.109 448.102 705.925 C 448.205 706.271 448.188 706.512 448.188 706.606 C 448.188 707.027 447.664 709.606 442.515 710.074 C 442.069 710.114 438.797 710.165 435.953 709.446 C 434.061 708.967 432.161 708.042 431.802 706.757 C 431.746 706.557 431.771 706.372 431.815 706.198 L 431.815 706.198 C 431.671 706.712 431.574 707.247 431.528 707.796 C 431.561 709.149 432.736 710.726 434.888 711.405 C 437.346 712.179 438.856 712.203 442.43 711.408 C 448.396 710.078 448.34 707.465 448.34 707.173 L 448.34 707.173 Z " fill="rgb(50,165,221)"/><path d=" M 442.161 708.261 C 442.306 708.222 442.456 708.179 442.609 708.135 C 441.95 707.994 441.25 707.917 440.524 707.917 C 439.146 707.917 437.861 708.191 436.777 708.665 C 438.331 708.881 440.18 708.802 442.161 708.261 Z  M 441.458 704.915 C 442.037 704.789 442.557 704.638 443.02 704.484 C 443.272 704.4 443.507 704.314 443.726 704.226 C 443.077 704.107 442.499 704.032 442.11 703.996 C 440.629 703.861 438.424 704.282 437.852 704.4 C 437.676 704.437 436.87 704.603 435.89 704.945 C 436.12 705.014 436.375 705.073 436.654 705.121 C 437.542 704.871 438.462 704.73 439.334 704.73 C 439.912 704.73 440.651 704.792 441.458 704.915 Z  M 441.628 710.094 C 441.087 710.091 440.352 710.069 439.524 710.003 C 438.054 710.175 436.806 710.83 436.096 711.739 C 436.331 711.793 436.562 711.839 436.791 711.876 C 437.541 711.054 438.807 710.513 440.243 710.513 C 441.292 710.513 442.249 710.802 442.981 711.277 C 443.267 711.205 443.537 711.13 443.792 711.052 C 443.209 710.605 442.465 710.269 441.628 710.094 Z  M 446.449 706.467 C 446.877 706.151 447.206 705.8 447.374 705.415 C 447.168 705.287 446.935 705.169 446.683 705.06 C 446.434 705.38 446.025 705.697 445.386 705.963 C 445.762 706.116 446.119 706.284 446.449 706.467 Z  M 444.567 707.467 C 445.017 707.284 445.453 707.081 445.844 706.857 C 445.437 706.64 444.964 706.443 444.414 706.276 C 443.883 706.407 443.25 706.51 442.498 706.572 C 442.274 706.59 442.043 706.602 441.807 706.607 C 442.333 706.708 442.836 706.843 443.312 707 C 443.773 707.152 444.189 707.309 444.567 707.467 Z  M 445.57 709.395 C 445.192 709.549 444.759 709.687 444.265 709.801 C 444.623 710.018 444.946 710.263 445.226 710.532 C 445.628 710.358 445.979 710.177 446.284 709.994 C 446.069 709.781 445.83 709.581 445.57 709.395 Z  M 434.463 705.536 C 433.798 705.861 433.147 706.266 432.625 706.76 C 432.705 706.862 432.795 706.962 432.895 707.059 C 433.466 706.554 434.186 706.103 434.982 705.735 C 434.8 705.671 434.626 705.605 434.463 705.536 Z  M 436.58 709.591 C 436.369 709.546 436.16 709.498 435.953 709.446 C 435.821 709.412 435.689 709.377 435.558 709.339 C 434.868 709.816 434.322 710.392 433.967 711.033 C 434.185 711.142 434.416 711.241 434.662 711.328 C 434.868 710.963 435.14 710.624 435.478 710.327 C 435.795 710.047 436.167 709.8 436.58 709.591 Z  M 434.199 713.076 C 434.199 712.67 434.27 712.269 434.407 711.886 C 434.177 711.784 433.95 711.669 433.73 711.543 C 433.584 711.933 433.505 712.341 433.505 712.763 C 433.505 712.846 433.509 712.928 433.516 713.01 C 433.741 713.18 433.979 713.33 434.225 713.463 C 434.208 713.336 434.199 713.206 434.199 713.076 Z  M 438.82 706.456 C 438.219 706.393 437.715 706.326 437.397 706.285 C 437.19 706.259 436.988 706.229 436.791 706.195 C 435.647 706.557 434.644 707.103 433.86 707.756 C 434.019 707.844 434.189 707.928 434.367 708.007 C 435.508 707.177 437.067 706.611 438.82 706.456 Z  M 436.433 714.865 C 436.199 714.791 435.961 714.709 435.721 714.62 C 435.913 715.033 436.208 715.409 436.584 715.736 C 436.896 715.823 437.206 715.891 437.505 715.944 C 437.05 715.649 436.682 715.281 436.433 714.865 Z  M 448.138 706.044 C 448.13 706.015 448.12 705.986 448.112 705.957 C 448.118 705.981 448.124 706.003 448.129 706.025 C 448.132 706.031 448.136 706.038 448.138 706.044 L 448.138 706.044 Z  M 432.655 710.108 C 432.865 709.564 433.21 709.058 433.664 708.605 C 433.512 708.526 433.366 708.444 433.227 708.358 C 432.828 708.795 432.521 709.264 432.325 709.747 C 432.425 709.87 432.535 709.991 432.655 710.108 Z  M 446.782 708.74 C 446.984 708.908 447.154 709.074 447.299 709.238 C 447.508 709.041 447.675 708.848 447.809 708.664 C 447.709 708.493 447.592 708.319 447.452 708.146 C 447.273 708.344 447.053 708.545 446.782 708.74 Z  M 433.596 713.521 C 433.669 713.829 433.786 714.128 433.937 714.415 C 434.24 714.667 434.563 714.882 434.899 715.066 C 434.655 714.738 434.467 714.385 434.348 714.015 C 434.074 713.86 433.823 713.694 433.596 713.521 Z  M 443.494 715.548 C 443.893 715.413 444.257 715.26 444.588 715.096 C 444.715 714.917 444.822 714.73 444.905 714.535 C 444.629 714.673 444.333 714.803 444.02 714.919 C 443.878 715.145 443.701 715.356 443.494 715.548 Z  M 444.254 712.769 C 444.331 712.973 444.38 713.186 444.4 713.404 C 444.648 713.311 444.88 713.214 445.099 713.115 C 445.071 712.918 445.021 712.727 444.95 712.541 C 444.731 712.623 444.499 712.699 444.254 712.769 Z  M 445.767 702.776 C 445.377 702.641 444.912 702.54 444.394 702.472 C 443.787 702.936 442.564 703.312 441.04 703.461 C 441.999 703.556 443.166 703.722 444.279 703.982 C 445.121 703.575 445.618 703.149 445.767 702.776 Z  M 435.037 702.307 C 434.655 702.468 434.312 702.632 434.019 702.796 C 433.968 702.953 433.952 703.081 433.948 703.16 C 434.324 702.966 434.771 702.768 435.271 702.576 C 435.169 702.49 435.089 702.4 435.037 702.307 Z  M 432.096 707.359 C 431.876 707.664 431.706 707.995 431.605 708.357 C 431.632 708.467 431.666 708.578 431.707 708.689 C 431.834 708.328 432.046 707.976 432.325 707.64 C 432.241 707.549 432.164 707.456 432.096 707.359 Z  M 432.416 711.362 C 432.416 711.119 432.443 710.88 432.493 710.647 C 432.37 710.532 432.255 710.414 432.151 710.295 C 432.073 710.638 432.051 710.986 432.093 711.331 C 432.205 711.551 432.33 711.755 432.467 711.946 C 432.434 711.753 432.416 711.558 432.416 711.362 Z  M 434.558 704.286 C 435.454 703.879 436.554 703.554 437.852 703.419 C 437.407 703.362 436.998 703.282 436.636 703.186 C 435.785 703.421 434.986 703.703 434.289 704.028 C 434.365 704.115 434.454 704.202 434.558 704.286 Z  M 447.34 711.604 C 447.294 711.477 447.242 711.352 447.182 711.229 C 446.909 711.478 446.583 711.723 446.195 711.954 C 446.254 712.11 446.302 712.27 446.337 712.434 C 446.746 712.159 447.075 711.879 447.34 711.604 Z  M 448.256 709.803 C 448.175 709.976 448.071 710.165 447.938 710.363 C 447.973 710.487 447.996 710.606 448.011 710.721 C 448.15 710.481 448.242 710.261 448.306 710.073 C 448.293 709.989 448.277 709.898 448.256 709.803 Z  M 448.263 706.501 C 448.243 706.421 448.223 706.34 448.201 706.26 C 448.189 706.232 448.175 706.204 448.161 706.177 C 448.197 706.388 448.188 706.537 448.188 706.606 C 448.188 706.744 448.132 707.113 447.876 707.564 C 447.993 707.7 448.096 707.841 448.182 707.988 C 448.345 707.568 448.34 707.262 448.34 707.173 C 448.34 707.039 448.323 706.775 448.263 706.501 Z  M 436.077 713.611 C 436.077 713.237 436.166 712.878 436.33 712.546 C 436.119 712.488 435.913 712.428 435.712 712.365 C 435.551 712.717 435.464 713.093 435.464 713.485 C 435.464 713.661 435.481 713.834 435.516 714.003 C 435.726 714.069 435.937 714.126 436.146 714.175 C 436.101 713.992 436.077 713.804 436.077 713.611 Z  M 446.358 713.611 C 446.336 713.733 446.307 713.853 446.272 713.972 C 446.966 713.356 447.344 712.773 447.51 712.483 C 447.516 712.473 447.522 712.462 447.527 712.451 C 447.526 712.431 447.523 712.41 447.521 712.389 C 447.262 712.771 446.873 713.197 446.358 713.611 L 446.358 713.611 Z  M 444.797 701.715 C 445.136 701.853 445.446 702.024 445.719 702.233 C 445.706 702.212 445.691 702.191 445.672 702.171 C 445.399 701.925 445.11 701.697 444.805 701.488 C 444.728 701.44 444.647 701.395 444.563 701.353 C 444.689 701.466 444.769 701.587 444.797 701.715 Z  M 432.896 703.831 C 432.873 703.867 432.848 703.904 432.825 703.94 C 432.837 703.925 432.851 703.909 432.865 703.893 C 432.874 703.872 432.885 703.851 432.896 703.831 Z  M 446.822 704.855 C 447.05 704.974 447.257 705.101 447.439 705.237 C 447.478 705.108 447.498 704.975 447.498 704.838 C 447.498 704.754 447.532 704.561 447.26 704.08 C 447.114 703.84 446.957 703.608 446.788 703.385 C 446.786 703.382 446.784 703.38 446.782 703.378 C 446.905 703.574 447.027 703.904 447.027 704.131 C 447.027 704.35 446.97 704.6 446.822 704.855 L 446.822 704.855 Z  M 433.379 704.937 C 433.272 704.857 433.18 704.776 433.102 704.695 C 432.735 704.948 432.429 705.219 432.198 705.506 C 432.196 705.551 432.195 705.597 432.195 705.646 C 432.195 705.737 432.204 705.828 432.221 705.918 C 432.504 705.602 432.891 705.262 433.379 704.937 L 433.379 704.937 Z  M 432.307 712.12 C 432.505 712.54 432.735 712.94 432.996 713.318 C 432.855 713.092 432.738 712.857 432.647 712.614 C 432.507 712.442 432.393 712.275 432.307 712.12 Z  M 431.811 706.216 C 431.758 706.406 431.711 706.599 431.671 706.796 C 431.692 706.72 431.726 706.638 431.77 706.55 C 431.767 706.434 431.784 706.323 431.811 706.216 Z  M 431.574 709.322 C 431.549 709.24 431.53 709.158 431.519 709.076 C 431.533 709.283 431.554 709.49 431.583 709.693 C 431.568 709.569 431.566 709.445 431.574 709.322 Z " fill="rgb(0,150,215)"/></g></g></svg>