<?xml version="1.0" standalone="no"?><!-- Generator: Gravit.io --><svg xmlns="http://www.w3.org/2000/svg" xmlns:xlink="http://www.w3.org/1999/xlink" style="isolation:isolate" viewBox="425 696 30 32" width="30" height="32"><defs><clipPath id="_clipPath_CF420w2zUOPgO3ORqIvh2ieSUEvba5nP"><rect x="425" y="696" width="30" height="32"/></clipPath></defs><g clip-path="url(#_clipPath_CF420w2zUOPgO3ORqIvh2ieSUEvba5nP)"><g><g><path d=" M 440 696 C 431.716 696 425 701.373 425 708 C 425 710.699 426.113 713.188 427.993 715.194 L 440 728 L 452.007 715.194 C 453.887 713.188 455 710.699 455 708 C 455 701.373 448.284 696 440 696 Z  M 440 717 C 434.478 717 429 712.418 429 708 C 429 703.582 434.478 699 440 699 C 445.523 699 451 703.582 451 708 C 451 712.418 445.523 717 440 717 Z " fill="rgb(2,116,80)"/></g></g><g><g/><path d=" M 443.83 701.118 C 443.057 701.284 442.301 701.502 441.428 701.803 C 442.143 702.135 442.758 702.384 443.356 702.706 C 445.35 703.765 447.178 705.083 448.375 707.263 C 448.824 708.073 449.114 708.966 448.957 709.962 C 448.79 710.969 448.25 711.665 447.478 712.142 C 446.082 713.004 444.569 713.066 443.007 712.858 C 443.315 712.734 443.622 712.64 443.921 712.495 C 444.976 711.997 445.791 711.249 445.99 709.879 C 446.115 709.038 445.915 708.27 445.583 707.544 C 444.76 705.737 443.414 704.533 441.927 703.485 L 441.877 703.453 C 439.609 702.114 440.365 702.083 438.096 703.485 C 436.725 704.336 435.55 705.503 434.703 707.029 C 433.265 709.614 434.028 711.968 436.629 712.788 C 436.787 712.819 436.838 712.86 436.975 712.962 C 435.363 713.066 433.784 713.014 432.38 712.038 C 430.867 710.99 430.585 709.142 431.599 707.294 C 432.471 705.706 433.701 704.575 435.097 703.62 C 436.044 702.976 437.041 702.447 438.096 702.042 C 438.221 701.99 438.379 702 438.462 701.772 C 437.714 701.471 436.95 701.284 436.177 701.107 C 437.025 700.952 437.872 700.962 438.703 701.159 C 439.592 701.367 440.448 701.346 441.337 701.149 C 442.07 701.049 442.991 700.952 443.83 701.118 L 443.83 701.118 Z " fill="rgb(2,116,80)"/><path d=" M 442.858 708.53 C 442.858 710.346 441.586 711.779 439.974 711.789 C 438.312 711.8 437.025 710.388 437.025 708.55 C 437.025 706.682 438.288 705.26 439.924 705.26 C 441.57 705.26 442.858 706.692 442.858 708.53 L 442.858 708.53 Z " fill="rgb(189,46,27)"/></g></g></svg>