<?xml version="1.0" standalone="no"?><!-- Generator: Gravit.io --><svg xmlns="http://www.w3.org/2000/svg" xmlns:xlink="http://www.w3.org/1999/xlink" style="isolation:isolate" viewBox="662.667 432 30 32" width="30" height="32"><g><clipPath id="_clipPath_DerDBJUTMeay1X1fHX1OqLTjCpssd8kY"><rect x="662.667" y="432" width="30" height="32" transform="matrix(1,0,0,1,0,0)" fill="rgb(255,255,255)"/></clipPath><g clip-path="url(#_clipPath_DerDBJUTMeay1X1fHX1OqLTjCpssd8kY)"><g><g><g><path d=" M 677.667 432 C 669.383 432 662.667 437.373 662.667 444 C 662.667 446.699 663.78 449.188 665.66 451.194 L 677.667 464 L 689.674 451.194 C 691.554 449.188 692.667 446.699 692.667 444 C 692.667 437.373 685.951 432 677.667 432 Z  M 677.667 453 C 672.145 453 666.667 448.418 666.667 444 C 666.667 439.582 672.145 435 677.667 435 C 683.19 435 688.667 439.582 688.667 444 C 688.667 448.418 683.19 453 677.667 453 Z " fill="rgb(153,204,0)"/></g></g></g></g><g><g><path d=" M 686.167 445.263 C 685.618 444.683 685.012 444.19 684.375 443.792 C 685.004 443.394 685.61 442.894 686.159 442.313 C 685.44 441.955 684.698 441.693 683.963 441.534 C 684.415 440.945 684.811 440.27 685.133 439.546 C 684.334 439.451 683.551 439.459 682.801 439.554 C 683.027 438.846 683.164 438.083 683.204 437.288 C 682.421 437.471 681.679 437.733 681.017 438.075 C 680.976 437.336 680.847 436.572 680.613 435.809 C 679.943 436.246 679.338 436.747 678.829 437.288 C 678.538 436.604 678.143 435.936 677.659 435.3 C 677.174 435.936 676.787 436.612 676.496 437.296 C 675.988 436.747 675.382 436.246 674.712 435.817 L 674.712 435.817 C 674.478 436.572 674.349 437.336 674.309 438.075 C 673.639 437.733 672.904 437.471 672.121 437.288 C 672.17 438.083 672.307 438.846 672.533 439.554 C 671.782 439.459 670.999 439.459 670.192 439.554 C 670.507 440.286 670.902 440.953 671.362 441.542 C 670.628 441.709 669.885 441.971 669.167 442.329 C 669.716 442.909 670.321 443.402 670.959 443.8 C 670.329 444.198 669.724 444.699 669.175 445.279 C 669.893 445.637 670.636 445.899 671.37 446.058 C 670.918 446.647 670.523 447.322 670.2 448.046 C 670.999 448.141 671.782 448.133 672.525 448.046 C 672.299 448.754 672.161 449.517 672.121 450.304 C 672.904 450.121 673.647 449.859 674.309 449.517 C 674.341 450.257 674.478 451.02 674.712 451.783 C 675.382 451.346 675.988 450.853 676.496 450.304 C 676.787 450.988 677.182 451.664 677.667 452.3 C 678.151 451.664 678.538 450.988 678.829 450.304 C 679.338 450.853 679.943 451.354 680.621 451.783 C 680.855 451.028 680.984 450.264 681.025 449.517 C 681.695 449.859 682.437 450.121 683.22 450.304 C 683.172 449.509 683.035 448.754 682.809 448.046 C 683.551 448.141 684.342 448.141 685.142 448.046 C 684.827 447.314 684.431 446.647 683.971 446.058 C 684.706 445.883 685.448 445.621 686.167 445.263 Z " fill="rgb(0,153,0)"/><path d=" M 683.971 446.05 C 683.551 445.51 683.075 445.032 682.558 444.643 C 683.18 444.452 683.785 444.158 684.375 443.792 C 683.785 443.426 683.18 443.14 682.558 442.949 C 683.075 442.56 683.543 442.083 683.971 441.534 C 683.293 441.383 682.623 441.319 681.969 441.351 C 682.316 440.81 682.599 440.206 682.801 439.546 C 682.114 439.633 681.461 439.8 680.855 440.047 C 680.992 439.419 681.049 438.759 681.009 438.067 C 680.395 438.385 679.838 438.759 679.362 439.196 C 679.273 438.56 679.095 437.916 678.821 437.288 C 678.345 437.797 677.957 438.337 677.659 438.91 C 677.36 438.345 676.964 437.797 676.488 437.296 C 676.222 437.924 676.044 438.568 675.963 439.196 C 675.487 438.767 674.922 438.385 674.301 438.075 C 674.268 438.759 674.325 439.427 674.462 440.055 C 673.865 439.808 673.211 439.649 672.517 439.562 C 672.726 440.214 673.009 440.818 673.356 441.359 C 672.71 441.335 672.032 441.399 671.346 441.55 C 671.766 442.09 672.242 442.568 672.759 442.957 C 672.137 443.148 671.532 443.442 670.943 443.808 C 671.532 444.174 672.137 444.46 672.759 444.651 C 672.242 445.04 671.774 445.517 671.346 446.066 C 672.024 446.217 672.694 446.281 673.34 446.249 C 672.993 446.79 672.71 447.394 672.509 448.054 C 673.195 447.967 673.857 447.8 674.454 447.553 C 674.317 448.173 674.26 448.841 674.292 449.525 C 674.914 449.207 675.471 448.833 675.947 448.404 C 676.036 449.04 676.214 449.684 676.48 450.312 C 676.948 449.803 677.344 449.263 677.642 448.698 C 677.941 449.263 678.337 449.811 678.813 450.312 C 679.079 449.684 679.257 449.04 679.346 448.404 C 679.822 448.833 680.387 449.215 681.009 449.525 C 681.041 448.841 680.984 448.173 680.847 447.553 C 681.444 447.8 682.106 447.959 682.792 448.046 C 682.583 447.394 682.3 446.79 681.953 446.249 C 682.615 446.265 683.293 446.201 683.971 446.05 Z " fill="rgb(153,204,0)"/><path d=" M 681.017 443.8 C 681.557 443.601 682.082 443.315 682.566 442.949 C 681.985 442.766 681.396 442.679 680.823 442.671 C 681.267 442.305 681.654 441.86 681.977 441.351 C 681.372 441.375 680.783 441.486 680.242 441.685 C 680.532 441.192 680.742 440.643 680.871 440.055 C 680.306 440.286 679.798 440.588 679.354 440.953 C 679.451 440.389 679.459 439.8 679.378 439.204 C 678.926 439.61 678.547 440.071 678.256 440.564 C 678.151 439.999 677.957 439.443 677.675 438.91 C 677.4 439.443 677.198 439.991 677.102 440.548 C 676.811 440.055 676.432 439.602 675.98 439.196 C 675.899 439.793 675.907 440.381 676.004 440.945 C 675.56 440.58 675.043 440.278 674.478 440.055 C 674.607 440.643 674.817 441.192 675.108 441.685 C 674.567 441.494 673.978 441.383 673.372 441.359 C 673.703 441.868 674.091 442.305 674.527 442.679 C 673.945 442.679 673.356 442.774 672.775 442.957 C 673.259 443.323 673.776 443.609 674.325 443.8 C 673.784 443.999 673.259 444.285 672.775 444.651 C 673.356 444.826 673.945 444.921 674.519 444.929 C 674.075 445.295 673.687 445.74 673.356 446.249 C 673.962 446.225 674.551 446.114 675.092 445.923 C 674.801 446.416 674.591 446.973 674.462 447.553 C 675.027 447.322 675.536 447.02 675.98 446.655 C 675.883 447.219 675.875 447.8 675.955 448.396 C 676.407 447.99 676.787 447.537 677.077 447.044 C 677.182 447.609 677.376 448.157 677.659 448.69 C 677.941 448.157 678.135 447.609 678.24 447.044 C 678.53 447.537 678.91 447.99 679.362 448.396 C 679.443 447.8 679.434 447.211 679.338 446.655 C 679.782 447.02 680.298 447.322 680.863 447.553 C 680.734 446.965 680.524 446.416 680.234 445.923 C 680.783 446.114 681.364 446.225 681.977 446.249 C 681.646 445.74 681.259 445.303 680.815 444.929 C 681.396 444.929 681.985 444.834 682.566 444.651 C 682.074 444.277 681.557 443.991 681.017 443.8 Z " fill="rgb(255,255,0)"/><path d=" M 679.362 444.086 C 679.927 444.086 680.484 443.983 681.009 443.792 C 680.476 443.601 679.927 443.498 679.362 443.498 C 679.895 443.307 680.379 443.021 680.807 442.663 C 680.242 442.663 679.685 442.75 679.152 442.941 C 679.588 442.583 679.943 442.154 680.226 441.669 C 679.693 441.86 679.208 442.13 678.773 442.488 C 679.055 442.003 679.241 441.478 679.338 440.938 C 678.902 441.295 678.538 441.717 678.248 442.202 C 678.345 441.653 678.337 441.097 678.24 440.548 C 677.957 441.025 677.764 441.542 677.667 442.083 C 677.57 441.534 677.368 441.009 677.085 440.532 C 676.989 441.081 676.981 441.637 677.077 442.186 C 676.795 441.701 676.424 441.279 675.996 440.922 C 676.093 441.47 676.278 441.995 676.561 442.472 C 676.125 442.114 675.632 441.844 675.108 441.653 C 675.39 442.138 675.745 442.56 676.181 442.925 C 675.649 442.735 675.092 442.647 674.535 442.647 C 674.962 443.005 675.447 443.283 675.98 443.482 C 675.415 443.482 674.858 443.585 674.325 443.776 C 674.858 443.967 675.406 444.07 675.972 444.07 C 675.439 444.261 674.954 444.547 674.519 444.905 C 675.084 444.905 675.641 444.818 676.173 444.627 C 675.737 444.985 675.382 445.414 675.1 445.899 C 675.632 445.708 676.125 445.438 676.553 445.08 C 676.27 445.565 676.085 446.09 675.988 446.639 C 676.424 446.281 676.787 445.859 677.069 445.382 C 676.972 445.931 676.981 446.488 677.077 447.028 C 677.36 446.551 677.562 446.026 677.659 445.486 C 677.755 446.034 677.957 446.551 678.24 447.036 C 678.337 446.488 678.345 445.939 678.248 445.39 C 678.53 445.875 678.902 446.297 679.33 446.647 C 679.233 446.098 679.047 445.581 678.764 445.096 C 679.2 445.454 679.693 445.724 680.226 445.915 C 679.943 445.43 679.588 445.009 679.152 444.643 C 679.685 444.834 680.242 444.921 680.807 444.921 C 680.379 444.563 679.895 444.285 679.362 444.086 Z " fill="rgb(255,255,255)"/></g></g></g></svg>