<?xml version="1.0" encoding="UTF-8" standalone="no"?><!-- Generator: Gravit.io --><svg xmlns="http://www.w3.org/2000/svg" xmlns:xlink="http://www.w3.org/1999/xlink" style="isolation:isolate" viewBox="536 295 26 36" width="26pt" height="36pt"><defs><clipPath id="_clipPath_tecFVqsdBDmS8A92muRNcrR164FKEGkX"><rect x="536" y="295" width="26" height="36"/></clipPath></defs><g clip-path="url(#_clipPath_tecFVqsdBDmS8A92muRNcrR164FKEGkX)"><g><g><g><g><g><g><g><path d=" M 538.912 295.703 L 559.088 295.703 C 560.334 295.703 561.354 296.814 561.354 298.172 L 561.354 320.144 C 561.354 321.502 560.334 322.613 559.088 322.613 L 552.975 322.613 L 550.988 326.455 L 549 330.297 L 547.012 326.455 L 545.025 322.613 L 538.912 322.613 C 537.666 322.613 536.646 321.502 536.646 320.144 L 536.646 298.172 C 536.646 296.814 537.666 295.703 538.912 295.703 L 538.912 295.703 Z " fill-rule="evenodd" fill="rgb(49,102,247)"/><path d=" M 559.088 295 L 538.912 295 C 537.306 295 536 296.423 536 298.172 L 536 320.144 C 536 321.893 537.307 323.316 538.912 323.316 L 544.647 323.316 L 548.437 330.642 C 548.552 330.863 548.767 331 549 331 C 549.233 331 549.448 330.863 549.563 330.642 L 553.353 323.316 L 559.088 323.316 C 560.693 323.316 562 321.893 562 320.144 L 562 298.172 C 562 296.423 560.693 295 559.088 295 L 559.088 295 Z  M 560.709 320.144 C 560.709 321.118 559.981 321.91 559.088 321.91 L 552.975 321.91 C 552.742 321.91 552.527 322.046 552.413 322.268 L 549 328.865 L 545.587 322.268 C 545.473 322.046 545.258 321.91 545.025 321.91 L 538.912 321.91 C 538.019 321.91 537.291 321.118 537.291 320.144 L 537.291 298.172 C 537.291 297.198 538.019 296.406 538.912 296.406 L 559.088 296.406 C 559.981 296.406 560.709 297.198 560.709 298.172 L 560.709 320.144 Z " fill-rule="evenodd" fill="rgb(0,0,0)"/></g></g></g></g></g></g><g><g><g><g><path d=" M 558.857 307.299 L 555.765 304.67 L 555.765 301.634 C 555.765 301.085 555.242 300.64 554.595 300.64 C 553.95 300.64 553.427 301.085 553.427 301.634 L 553.427 302.682 L 551.125 300.725 C 549.987 299.757 548.008 299.759 546.873 300.726 L 539.143 307.299 C 538.687 307.688 538.687 308.317 539.143 308.705 C 539.6 309.094 540.341 309.094 540.797 308.705 L 548.526 302.132 C 548.778 301.919 549.222 301.919 549.472 302.132 L 557.203 308.705 C 557.432 308.9 557.731 308.996 558.029 308.996 C 558.329 308.996 558.628 308.9 558.857 308.705 C 559.313 308.317 559.313 307.688 558.857 307.299 Z " fill="rgb(255,255,255)"/><path d=" M 549.406 304.019 C 549.181 303.828 548.818 303.828 548.594 304.019 L 541.795 309.799 C 541.688 309.891 541.627 310.015 541.627 310.145 L 541.627 314.361 C 541.627 315.35 542.57 316.152 543.733 316.152 L 547.099 316.152 L 547.099 311.719 L 550.9 311.719 L 550.9 316.152 L 554.266 316.152 C 555.429 316.152 556.373 315.35 556.373 314.361 L 556.373 310.145 C 556.373 310.015 556.312 309.891 556.204 309.799 L 549.406 304.019 Z " fill="rgb(255,255,255)"/></g></g></g></g></g></g></svg>