<?xml version="1.0" encoding="UTF-8" standalone="no"?><!-- Generator: Gravit.io --><svg xmlns="http://www.w3.org/2000/svg" xmlns:xlink="http://www.w3.org/1999/xlink" style="isolation:isolate" viewBox="463 217 30 32" width="30pt" height="32pt"><g><ellipse vector-effect="non-scaling-stroke" cx="478" cy="229" rx="12" ry="10" fill="rgb(255,255,255)"/><clipPath id="_clipPath_0Xcb2BFRVUqIMLstHqarZVFIgJ20m11m"><rect x="463" y="217" width="30" height="32" transform="matrix(1,0,0,1,0,0)" fill="rgb(255,255,255)"/></clipPath><g clip-path="url(#_clipPath_0Xcb2BFRVUqIMLstHqarZVFIgJ20m11m)"><g><g><g><path d=" M 478 217 C 469.716 217 463 222.373 463 229 C 463 231.699 464.113 234.188 465.993 236.194 L 478 249 L 490.007 236.194 C 491.887 234.188 493 231.699 493 229 C 493 222.373 486.284 217 478 217 Z  M 478 238 C 472.478 238 467 233.418 467 229 C 467 224.582 472.478 220 478 220 C 483.523 220 489 224.582 489 229 C 489 233.418 483.523 238 478 238 Z " fill="rgb(181,181,181)"/></g></g><g><path d=" M 481.83 222.118 C 481.057 222.284 480.301 222.502 479.428 222.803 C 480.143 223.135 480.758 223.384 481.356 223.706 C 483.35 224.765 485.178 226.083 486.375 228.263 C 486.824 229.073 487.114 229.966 486.957 230.962 C 486.79 231.969 486.25 232.665 485.478 233.142 C 484.082 234.004 482.569 234.066 481.007 233.858 C 481.315 233.734 481.622 233.64 481.921 233.495 C 482.976 232.997 483.791 232.249 483.99 230.879 C 484.115 230.038 483.915 229.27 483.583 228.544 C 482.76 226.737 481.414 225.533 479.927 224.485 L 479.877 224.453 C 477.609 223.114 478.365 223.083 476.096 224.485 C 474.725 225.336 473.55 226.503 472.703 228.029 C 471.265 230.614 472.028 232.968 474.629 233.788 C 474.787 233.819 474.838 233.86 474.975 233.962 C 473.363 234.066 471.784 234.014 470.38 233.038 C 468.867 231.99 468.585 230.142 469.599 228.294 C 470.471 226.706 471.701 225.575 473.097 224.62 C 474.044 223.976 475.041 223.447 476.096 223.042 C 476.221 222.99 476.379 223 476.462 222.772 C 475.714 222.471 474.95 222.284 474.177 222.107 C 475.025 221.952 475.872 221.962 476.703 222.159 C 477.592 222.367 478.448 222.346 479.337 222.149 C 480.07 222.049 480.991 221.952 481.83 222.118 L 481.83 222.118 Z " fill="rgb(2,116,80)"/><path d=" M 480.858 229.53 C 480.858 231.346 479.586 232.779 477.974 232.789 C 476.312 232.8 475.025 231.388 475.025 229.55 C 475.025 227.682 476.288 226.26 477.924 226.26 C 479.57 226.26 480.858 227.692 480.858 229.53 L 480.858 229.53 Z " fill="rgb(189,46,27)"/></g></g></g></g></svg>