<?xml version="1.0" standalone="no"?><!-- Generator: Gravit.io --><svg xmlns="http://www.w3.org/2000/svg" xmlns:xlink="http://www.w3.org/1999/xlink" style="isolation:isolate" viewBox="662.667 432 30 32" width="30" height="32"><g><clipPath id="_clipPath_qEW4L3pXvT4InRxbM9uZQtpCy8DDPwOg"><rect x="662.667" y="432" width="30" height="32" transform="matrix(1,0,0,1,0,0)" fill="rgb(255,255,255)"/></clipPath><g clip-path="url(#_clipPath_qEW4L3pXvT4InRxbM9uZQtpCy8DDPwOg)"><g><g><g><path d=" M 677.667 432 C 669.383 432 662.667 437.373 662.667 444 C 662.667 446.699 663.78 449.188 665.66 451.194 L 677.667 464 L 689.674 451.194 C 691.554 449.188 692.667 446.699 692.667 444 C 692.667 437.373 685.951 432 677.667 432 Z  M 677.667 453 C 672.145 453 666.667 448.418 666.667 444 C 666.667 439.582 672.145 435 677.667 435 C 683.19 435 688.667 439.582 688.667 444 C 688.667 448.418 683.19 453 677.667 453 Z " fill="rgb(0,31,91)"/></g></g></g></g><path d=" M 671.051 448.762 C 670.539 449.274 670.539 450.104 671.051 450.616 C 671.307 450.872 671.643 451 671.978 451 C 672.314 451 672.649 450.872 672.906 450.616 L 677.21 446.31 L 675.355 444.457 L 671.051 448.762 Z " fill="rgb(0,31,91)"/><path d=" M 681.809 440.783 L 683.684 439.813 L 684.666 437.915 L 683.751 437 L 681.854 437.983 L 680.883 439.856 L 678.603 442.139 L 679.527 443.066 L 681.809 440.783 Z " fill="rgb(0,31,91)"/><path d=" M 682.22 445.759 L 682.044 445.742 C 681.724 445.742 681.42 445.807 681.137 445.912 L 675.756 440.529 C 675.861 440.246 675.926 439.943 675.926 439.623 L 675.909 439.446 C 675.816 438.081 674.692 437 673.304 437 C 672.9 437 672.522 437.099 672.18 437.262 L 673.922 439.004 C 674.014 439.096 674.077 439.205 674.119 439.319 C 674.233 439.629 674.171 439.991 673.922 440.241 C 673.752 440.411 673.528 440.497 673.304 440.497 C 673.201 440.497 673.099 440.474 673.001 440.437 C 672.886 440.394 672.778 440.332 672.686 440.24 L 670.944 438.498 C 670.781 438.84 670.682 439.219 670.682 439.623 C 670.682 441.011 671.763 442.135 673.128 442.228 L 673.304 442.245 C 673.624 442.245 673.927 442.18 674.21 442.076 L 679.591 447.458 C 679.488 447.741 679.422 448.044 679.422 448.364 L 679.441 448.541 C 679.532 449.906 680.657 450.987 682.045 450.987 C 682.448 450.987 682.828 450.89 683.169 450.725 L 681.427 448.982 C 681.336 448.892 681.272 448.782 681.228 448.669 C 681.114 448.359 681.176 447.996 681.427 447.746 C 681.595 447.576 681.821 447.49 682.045 447.49 C 682.148 447.49 682.249 447.512 682.349 447.55 C 682.463 447.593 682.572 447.654 682.662 447.746 L 684.404 449.489 C 684.569 449.146 684.667 448.768 684.667 448.364 C 684.666 446.976 683.585 445.852 682.22 445.759 Z " fill="rgb(0,31,91)"/></g></svg>