<?xml version="1.0" standalone="no"?><!-- Generator: Gravit.io --><svg xmlns="http://www.w3.org/2000/svg" xmlns:xlink="http://www.w3.org/1999/xlink" style="isolation:isolate" viewBox="711 417 30 32" width="30" height="32"><g><g><linearGradient id="_lgradient_0" x1="0.0008767482766889323" y1="0.5635289345029584" x2="1.0020946906376813" y2="0.5635289345029584" gradientTransform="matrix(8.273,0,0,2.547,725.237,431.795)" gradientUnits="userSpaceOnUse"><stop offset="0%" stop-opacity="1" style="stop-color:rgb(251,255,255)"/><stop offset="100%" stop-opacity="1" style="stop-color:rgb(144,147,148)"/></linearGradient><path d=" M 725.245 431.795 L 727.602 433.905 C 730.621 434.661 732.766 434.417 733.333 433.322 C 733.467 433.063 733.522 432.795 733.507 432.535 C 731.646 433.37 728.895 433.126 725.237 431.795 L 725.237 431.795 L 725.245 431.795 Z " fill-rule="evenodd" fill="url(#_lgradient_0)"/><linearGradient id="_lgradient_1" x1="-0.003996403108741831" y1="0.5654287476866129" x2="1.040357762219795" y2="0.5019172825957279" gradientTransform="matrix(4.024,0,0,2.238,730.393,426.764)" gradientUnits="userSpaceOnUse"><stop offset="0%" stop-opacity="1" style="stop-color:rgb(251,255,255)"/><stop offset="100%" stop-opacity="1" style="stop-color:rgb(144,147,148)"/></linearGradient><path d=" M 734.003 426.764 C 733.704 427.583 732.498 427.851 730.393 427.552 L 731.985 429 C 733.751 429.04 734.555 428.552 734.398 427.536 C 734.374 427.26 734.248 427.001 734.003 426.764 L 734.003 426.764 Z " fill-rule="evenodd" fill="url(#_lgradient_1)"/><linearGradient id="_lgradient_2" x1="0.9535932203389823" y1="1.0561969405841465" x2="0.04296610169491499" y2="0.46438338126211287" gradientTransform="matrix(4.651,0,0,2.49,726.372,420.6)" gradientUnits="userSpaceOnUse"><stop offset="0%" stop-opacity="1" style="stop-color:rgb(251,255,255)"/><stop offset="100%" stop-opacity="1" style="stop-color:rgb(144,147,148)"/></linearGradient><path d=" M 731.015 422.86 C 729.454 421.505 728.098 420.758 726.94 420.6 C 726.648 420.6 726.372 420.773 726.372 421.08 C 726.372 422.08 728.871 423.088 730.125 423.088 C 730.416 423.104 730.826 423.041 731.023 422.86 L 731.015 422.86 Z " fill-rule="evenodd" fill="url(#_lgradient_2)"/><linearGradient id="_lgradient_3" x1="-0.044148267829154486" y1="0.49655050415708457" x2="0.9997951769994373" y2="0.49655050415708457" gradientTransform="matrix(10.007,0,0,6.898,720.275,421.992)" gradientUnits="userSpaceOnUse"><stop offset="0%" stop-opacity="1" style="stop-color:rgb(251,255,255)"/><stop offset="16.8627%" stop-opacity="1" style="stop-color:rgb(197,200,201)"/><stop offset="69.0196%" stop-opacity="1" style="stop-color:rgb(144,147,148)"/><stop offset="100%" stop-opacity="1" style="stop-color:rgb(144,147,148)"/></linearGradient><path d=" M 730.282 428.89 L 728.201 427.032 C 724.59 425.851 720.877 423.269 721.586 422.001 C 721.074 421.931 720.64 422.253 720.301 422.97 C 719.836 424.631 725.536 428.229 730.282 428.882 L 730.282 428.882 L 730.282 428.89 Z " fill-rule="evenodd" fill="url(#_lgradient_3)"/><linearGradient id="_lgradient_4" x1="-0.00010323975248455186" y1="0.5002667627974045" x2="1.0111358449443353" y2="0.5002667627974045" gradientTransform="matrix(16.571,0,0,10.919,717.928,422.253)" gradientUnits="userSpaceOnUse"><stop offset="0%" stop-opacity="1" style="stop-color:rgb(236,38,143)"/><stop offset="61.1765%" stop-opacity="1" style="stop-color:rgb(62,64,149)"/><stop offset="100%" stop-opacity="1" style="stop-color:rgb(0,175,239)"/></linearGradient><path d=" M 734.39 427.52 C 734.681 428.796 734.358 431.15 733.806 432.346 C 733.593 432.669 732.86 433.173 731.22 433.173 C 726.49 433.173 717.928 429.394 717.928 426.331 C 718.196 425.174 719.324 423.332 720.806 422.253 C 720.491 422.537 720.412 422.836 720.412 423.072 C 720.412 425.442 727.665 428.929 732.032 428.929 C 733.081 428.929 734.39 428.733 734.39 427.52 Z " fill-rule="evenodd" fill="url(#_lgradient_4)"/><linearGradient id="_lgradient_5" x1="-0.00024072194486002285" y1="0.4861923840262492" x2="1.007754646547152" y2="0.4861923840262492" gradientTransform="matrix(12.773,0,0,7.312,721.334,420.5)" gradientUnits="userSpaceOnUse"><stop offset="0%" stop-opacity="1" style="stop-color:rgb(0,175,239)"/><stop offset="25.098%" stop-opacity="1" style="stop-color:rgb(0,175,239)"/><stop offset="60%" stop-opacity="1" style="stop-color:rgb(0,168,89)"/><stop offset="90.98039999999999%" stop-opacity="1" style="stop-color:rgb(255,242,18)"/><stop offset="100%" stop-opacity="1" style="stop-color:rgb(255,242,18)"/></linearGradient><path d=" M 729.983 421.482 C 732.127 422.584 733.538 424.615 734.098 426.379 C 734.208 427.434 733.278 427.812 731.969 427.812 C 727.925 427.812 721.334 424.552 721.334 422.427 C 721.342 422.19 721.452 421.946 721.689 421.694 C 723.731 420.388 726.482 420.301 727.594 420.734 C 727.058 420.584 726.49 420.718 726.49 421.112 C 726.49 421.687 728.54 422.986 730.266 422.986 C 730.424 422.986 731.039 422.993 731.039 422.576 C 731.039 422.238 730.511 421.797 729.983 421.49 L 729.983 421.482 Z " fill-rule="evenodd" fill="url(#_lgradient_5)"/><linearGradient id="_lgradient_6" x1="-0.044485102588855074" y1="0.5255665386145532" x2="1.0002807940314096" y2="0.5255665386145532" gradientTransform="matrix(15.723,0,0,10.121,717.5,427.379)" gradientUnits="userSpaceOnUse"><stop offset="0%" stop-opacity="1" style="stop-color:rgb(255,242,18)"/><stop offset="12.1569%" stop-opacity="1" style="stop-color:rgb(255,242,18)"/><stop offset="40%" stop-opacity="1" style="stop-color:rgb(237,50,55)"/><stop offset="87.0588%" stop-opacity="1" style="stop-color:rgb(236,38,143)"/><stop offset="100%" stop-opacity="1" style="stop-color:rgb(236,38,143)"/></linearGradient><path d=" M 717.629 427.379 C 717.424 429.205 720.964 431.504 724.764 432.913 C 728.28 434.22 732.032 434.771 733.223 433.472 C 730.905 436.999 727.255 438.03 724.054 437.259 C 720.081 436.306 716.801 432.575 717.629 427.386 L 717.629 427.379 Z " fill-rule="evenodd" fill="url(#_lgradient_6)"/><path d=" M 731.504 422.639 C 731.457 422.608 731.41 422.568 731.394 422.545 C 731.378 422.529 731.386 422.497 731.441 422.529 L 731.654 422.671 C 731.701 422.702 731.764 422.773 731.796 422.82 C 731.796 422.82 731.804 422.836 731.827 422.86 C 731.804 422.836 731.504 422.639 731.504 422.639 Z  M 731.638 422.875 C 731.591 422.844 731.536 422.773 731.52 422.726 L 731.504 422.686 C 731.504 422.686 731.898 422.962 731.914 422.986 C 731.93 423.009 732.001 423.111 732.001 423.135 C 732.001 423.111 731.638 422.867 731.638 422.867 L 731.638 422.875 Z  M 731.67 423.064 C 731.622 423.033 731.591 422.978 731.591 422.962 C 731.591 422.938 731.607 422.93 731.654 422.97 L 731.938 423.19 C 731.985 423.222 732.025 423.277 732.032 423.308 C 732.032 423.34 732.001 423.332 731.954 423.3 L 731.662 423.072 L 731.67 423.064 Z  M 731.607 423.214 C 731.559 423.174 731.536 423.135 731.544 423.119 C 731.551 423.111 731.607 423.111 731.654 423.143 L 732.048 423.466 L 732.048 423.505 C 732.032 423.544 731.977 423.544 731.938 423.505 L 731.615 423.214 L 731.607 423.214 Z  M 731.496 423.371 C 731.457 423.332 731.449 423.277 731.481 423.245 L 731.883 423.592 C 731.922 423.631 731.946 423.678 731.93 423.702 C 731.914 423.726 731.843 423.726 731.804 423.686 L 731.496 423.379 L 731.496 423.371 Z  M 731.749 423.844 C 731.693 423.867 731.622 423.844 731.591 423.804 L 731.315 423.489 C 731.276 423.442 731.26 423.403 731.283 423.395 C 731.307 423.387 731.378 423.395 731.425 423.434 L 731.796 423.812 L 731.756 423.836 L 731.749 423.844 Z  M 731.465 423.938 C 731.41 423.954 731.331 423.922 731.299 423.875 L 731.047 423.552 C 731.008 423.505 731 423.466 731.023 423.458 C 731.047 423.45 731.149 423.466 731.181 423.513 C 731.181 423.513 731.504 423.922 731.528 423.922 L 731.465 423.938 Z  M 731.181 423.993 C 731.157 423.993 730.992 424.009 730.992 424.009 C 730.992 423.985 730.716 423.584 730.716 423.584 C 730.684 423.537 730.684 423.497 730.716 423.497 C 730.747 423.497 730.85 423.537 730.881 423.584 L 731.173 424.001 L 731.181 423.993 Z  M 730.771 424.009 C 730.771 424.009 730.598 423.985 730.534 423.985 L 730.337 423.584 C 730.314 423.529 730.33 423.489 730.385 423.489 C 730.432 423.489 730.503 423.529 730.527 423.584 C 730.527 423.584 730.771 423.985 730.771 424.009 Z  M 727.539 423.041 C 727.499 423.088 727.428 423.104 727.381 423.072 C 727.381 423.072 727.231 422.986 727.208 422.986 L 727.46 422.718 C 727.499 422.678 727.57 422.663 727.618 422.686 C 727.665 422.71 727.736 422.797 727.704 422.844 L 727.547 423.041 L 727.539 423.041 Z  M 727.026 422.789 C 726.987 422.828 726.908 422.836 726.853 422.804 L 726.798 422.757 C 726.75 422.726 726.742 422.678 726.79 422.639 L 727.018 422.482 C 727.066 422.45 727.144 422.442 727.192 422.466 C 727.239 422.49 727.286 422.568 727.239 422.608 L 727.026 422.789 Z  M 726.585 422.505 C 726.537 422.537 726.49 422.568 726.482 422.568 C 726.474 422.576 726.435 422.553 726.388 422.513 L 726.325 422.474 C 726.277 422.442 726.277 422.395 726.332 422.364 L 726.64 422.214 C 726.695 422.19 726.766 422.19 726.805 422.214 C 726.845 422.245 726.884 422.308 726.829 422.34 L 726.577 422.49 L 726.585 422.505 Z  M 726.159 422.238 C 726.104 422.261 726.041 422.261 726.009 422.238 C 725.978 422.214 725.923 422.12 725.978 422.104 L 726.317 421.986 C 726.372 421.962 726.435 421.97 726.466 421.986 C 726.498 422.009 726.537 422.088 726.482 422.104 L 726.159 422.238 Z  M 725.828 421.954 C 725.773 421.97 725.702 421.962 725.678 421.938 C 725.654 421.907 725.639 421.82 725.694 421.805 L 726.072 421.718 C 726.127 421.702 726.191 421.71 726.206 421.726 C 726.222 421.742 726.23 421.828 726.175 421.844 L 725.828 421.954 Z  M 725.97 421.498 C 726.025 421.49 726.088 421.498 726.104 421.521 C 726.12 421.545 726.12 421.608 726.064 421.616 L 725.662 421.679 C 725.607 421.687 725.544 421.687 725.528 421.663 C 725.513 421.647 725.505 421.561 725.56 421.553 L 725.962 421.498 L 725.97 421.498 Z  M 726.017 421.372 L 725.481 421.427 C 725.426 421.435 725.363 421.419 725.355 421.387 C 725.339 421.356 725.379 421.309 725.434 421.309 C 725.434 421.309 725.781 421.277 725.978 421.277 C 725.978 421.277 726.009 421.348 726.017 421.372 Z  M 725.891 420.899 C 725.946 420.899 725.986 420.915 725.978 420.931 C 725.97 420.946 725.907 420.986 725.852 420.978 L 725.434 420.962 C 725.379 420.962 725.339 420.939 725.355 420.907 L 725.891 420.891 L 725.891 420.899 Z  M 726.001 420.758 C 726.057 420.765 726.096 420.773 726.088 420.781 C 726.08 420.789 725.993 420.828 725.938 420.828 L 725.544 420.805 C 725.489 420.797 725.457 420.773 725.481 420.75 C 725.505 420.726 725.576 420.71 725.631 420.71 L 726.001 420.758 Z  M 726.206 420.695 C 726.191 420.702 726.127 420.71 726.064 420.702 L 725.615 420.655 C 725.639 420.639 725.647 420.639 725.647 420.639 C 725.702 420.624 725.796 420.608 725.852 420.616 L 726.159 420.647 C 726.214 420.655 726.214 420.687 726.198 420.695 L 726.206 420.695 Z  M 726.419 420.576 C 726.474 420.592 726.482 420.6 726.443 420.608 C 726.403 420.616 726.301 420.608 726.246 420.6 L 726.072 420.569 C 726.017 420.561 726.017 420.553 726.072 420.545 L 726.112 420.545 L 726.214 420.537 C 726.23 420.537 726.364 420.569 726.419 420.576 Z  M 725.308 421.112 C 725.308 421.088 725.355 421.065 725.41 421.057 L 725.852 421.049 C 725.915 421.049 725.962 421.065 725.962 421.088 C 725.962 421.112 725.915 421.151 725.852 421.151 L 725.418 421.167 C 725.363 421.175 725.315 421.128 725.315 421.104 L 725.308 421.112 Z  M 728.374 423.363 C 728.359 423.419 728.382 423.482 728.43 423.497 C 728.477 423.513 728.635 423.521 728.642 423.466 L 728.682 423.237 C 728.698 423.182 728.666 423.119 728.627 423.104 C 728.579 423.088 728.461 423.096 728.445 423.151 L 728.374 423.363 Z  M 729.108 423.71 C 729.163 423.726 729.202 423.694 729.202 423.639 L 729.202 423.379 C 729.202 423.324 729.163 423.261 729.115 423.253 C 729.068 423.237 728.95 423.253 728.942 423.316 L 728.91 423.56 C 728.91 423.615 729.052 423.702 729.108 423.718 L 729.108 423.71 Z  M 729.652 423.852 C 729.707 423.859 729.746 423.828 729.73 423.765 L 729.667 423.497 C 729.652 423.442 729.612 423.387 729.565 423.371 C 729.525 423.356 729.431 423.379 729.439 423.434 L 729.47 423.702 C 729.478 423.757 729.596 423.836 729.652 423.852 Z  M 730.188 423.938 C 730.251 423.946 730.274 423.915 730.251 423.859 L 730.132 423.56 C 730.109 423.505 730.061 423.458 730.014 423.45 C 729.975 423.442 729.88 423.466 729.896 423.521 L 729.998 423.812 C 730.014 423.867 730.069 423.915 730.117 423.922 C 730.164 423.93 730.188 423.938 730.188 423.938 Z  M 728.098 423.253 C 728.075 423.308 728.02 423.332 727.964 423.308 C 727.917 423.285 727.791 423.206 727.822 423.159 L 727.941 422.954 C 727.972 422.907 728.027 422.875 728.067 422.891 C 728.114 422.907 728.209 422.993 728.185 423.049 L 728.091 423.261 L 728.098 423.253 Z  M 733.798 429.701 C 733.743 429.725 733.704 429.701 733.704 429.638 L 733.688 429.181 C 733.688 429.126 733.727 429.063 733.775 429.048 C 733.822 429.032 733.948 429.04 733.948 429.095 L 733.964 429.512 C 733.964 429.567 733.917 429.638 733.869 429.662 L 733.798 429.701 Z  M 731.654 429.331 C 731.709 429.331 731.756 429.386 731.756 429.441 L 731.733 429.874 C 731.725 429.929 731.678 429.977 731.615 429.977 C 731.615 429.977 731.307 429.961 731.22 429.961 L 731.276 429.418 C 731.283 429.362 731.331 429.315 731.394 429.315 L 731.654 429.323 L 731.654 429.331 Z  M 730.747 429.252 C 730.747 429.378 730.692 429.795 730.692 429.795 C 730.684 429.858 730.629 429.898 730.574 429.89 L 730.227 429.851 C 730.172 429.843 730.125 429.788 730.132 429.732 L 730.211 429.292 C 730.219 429.236 730.274 429.189 730.33 429.197 L 730.739 429.244 L 730.747 429.252 Z  M 727.184 428.418 C 727.239 428.433 727.271 428.496 727.247 428.552 L 727.105 428.961 C 727.089 429.016 727.026 429.048 726.963 429.032 L 726.537 428.898 C 726.482 428.882 726.451 428.819 726.474 428.764 L 726.64 428.339 C 726.664 428.284 726.719 428.26 726.774 428.276 L 727.176 428.418 L 727.184 428.418 Z  M 725.978 427.977 C 726.033 428 726.057 428.063 726.033 428.119 L 725.867 428.528 C 725.844 428.583 725.788 428.607 725.733 428.583 L 725.323 428.41 C 725.268 428.386 725.245 428.323 725.268 428.268 L 725.457 427.867 C 725.481 427.812 725.544 427.788 725.599 427.812 L 725.97 427.985 L 725.978 427.977 Z  M 724.827 427.457 C 724.882 427.481 724.906 427.544 724.882 427.591 L 724.669 428 C 724.645 428.056 724.582 428.079 724.527 428.048 L 724.133 427.859 C 724.078 427.835 724.062 427.772 724.086 427.717 L 724.298 427.308 C 724.322 427.253 724.393 427.237 724.44 427.26 L 724.827 427.449 L 724.827 427.457 Z  M 723.534 427.426 C 723.502 427.473 723.439 427.497 723.384 427.465 L 723.053 427.268 C 722.998 427.237 722.982 427.174 723.013 427.127 L 723.25 426.749 C 723.281 426.701 723.352 426.686 723.4 426.709 L 723.715 426.906 C 723.77 426.938 723.786 427.001 723.754 427.048 L 723.534 427.426 Z  M 722.501 426.827 C 722.469 426.875 722.406 426.89 722.359 426.851 L 722.083 426.646 C 722.036 426.615 722.02 426.552 722.052 426.497 L 722.304 426.135 C 722.335 426.087 722.399 426.072 722.454 426.103 L 722.73 426.292 C 722.777 426.324 722.793 426.394 722.761 426.442 L 722.509 426.827 L 722.501 426.827 Z  M 721.508 425.528 C 721.547 425.481 721.61 425.473 721.657 425.513 L 721.862 425.678 C 721.91 425.717 721.918 425.788 721.878 425.835 L 721.61 426.205 C 721.579 426.253 721.508 426.261 721.468 426.221 L 721.161 425.961 C 721.161 425.938 721.5 425.528 721.5 425.528 L 721.508 425.528 Z  M 720.869 425.56 C 720.83 425.607 720.767 425.607 720.727 425.568 L 720.577 425.418 C 720.538 425.379 720.538 425.308 720.569 425.261 L 720.861 424.922 C 720.901 424.875 720.964 424.875 721.011 424.914 L 721.24 425.143 C 721.216 425.143 720.877 425.56 720.877 425.56 L 720.869 425.56 Z  M 720.309 424.938 C 720.27 424.977 720.207 424.977 720.175 424.93 L 720.089 424.796 C 720.057 424.749 720.057 424.678 720.096 424.639 L 720.404 424.316 C 720.443 424.277 720.506 424.277 720.538 424.332 L 720.633 424.458 C 720.664 424.505 720.664 424.576 720.625 424.623 L 720.317 424.946 L 720.309 424.938 Z  M 719.852 424.458 C 719.852 424.434 719.781 424.277 719.781 424.277 C 719.757 424.222 719.773 424.143 719.813 424.103 L 720.096 423.804 C 720.136 423.765 720.191 423.773 720.223 423.82 C 720.223 423.82 720.301 423.962 720.301 423.985 L 719.844 424.458 L 719.852 424.458 Z  M 720.081 423.277 C 720.12 423.237 720.152 423.245 720.144 423.293 C 720.136 423.34 720.12 423.497 720.081 423.537 L 719.757 423.844 C 719.718 423.883 719.687 423.867 719.687 423.812 L 719.687 423.765 C 719.687 423.71 719.718 423.623 719.757 423.584 L 720.081 423.277 Z  M 719.868 423.3 C 719.828 423.34 719.789 423.371 719.781 423.379 C 719.773 423.379 719.797 423.348 719.821 423.293 C 719.821 423.293 719.86 423.214 719.891 423.167 C 719.923 423.119 719.978 423.049 720.026 423.009 L 720.254 422.82 C 720.294 422.781 720.317 422.781 720.294 422.812 C 720.27 422.852 720.191 422.993 720.152 423.033 L 719.876 423.3 L 719.868 423.3 Z  M 728.232 429.41 C 728.288 429.425 728.343 429.394 728.359 429.339 L 728.477 428.922 C 728.493 428.866 728.461 428.803 728.406 428.796 L 728.004 428.678 C 727.949 428.662 727.886 428.693 727.87 428.748 L 727.752 429.158 C 727.736 429.213 727.767 429.276 727.822 429.292 L 728.232 429.418 L 728.232 429.41 Z  M 729.439 429.701 C 729.494 429.717 729.549 429.677 729.565 429.622 L 729.659 429.181 C 729.667 429.126 729.636 429.071 729.573 429.055 L 729.202 428.985 C 729.147 428.977 729.084 429.016 729.068 429.071 L 728.966 429.488 C 728.95 429.544 728.989 429.599 729.044 429.614 L 729.439 429.701 Z  M 732.529 429.969 C 732.584 429.969 732.639 429.914 732.639 429.858 L 732.655 429.425 C 732.655 429.37 732.608 429.323 732.553 429.331 L 732.332 429.339 C 732.269 429.347 732.222 429.394 732.222 429.457 L 732.206 429.89 C 732.206 429.945 732.245 429.992 732.308 429.992 L 732.529 429.977 L 732.529 429.969 Z  M 733.286 429.851 C 733.341 429.843 733.388 429.788 733.388 429.725 L 733.388 429.292 C 733.388 429.229 733.341 429.197 733.286 429.205 L 733.152 429.229 C 733.097 429.236 733.049 429.299 733.049 429.355 L 733.049 429.788 C 733.049 429.843 733.097 429.89 733.152 429.874 L 733.286 429.851 Z  M 734.271 428.709 C 734.295 428.67 734.319 428.693 734.327 428.748 L 734.358 429.142 C 734.358 429.197 734.342 429.284 734.319 429.323 C 734.295 429.362 734.185 429.418 734.185 429.362 L 734.169 428.945 C 734.169 428.89 734.248 428.74 734.271 428.709 Z  M 734.5 428.929 C 734.5 428.803 734.492 428.323 734.492 428.323 C 734.492 428.26 734.484 428.221 734.476 428.26 C 734.468 428.3 734.445 428.473 734.453 428.528 L 734.468 428.882 L 734.476 429 C 734.476 429.008 734.492 428.961 734.5 428.929 Z  M 721.847 435.905 C 721.791 435.881 721.744 435.81 721.728 435.755 L 721.689 435.487 C 721.689 435.432 721.721 435.401 721.776 435.432 L 722.02 435.55 C 722.067 435.574 722.115 435.645 722.107 435.708 L 722.115 435.928 C 722.115 435.983 722.075 436.015 722.02 435.991 L 721.839 435.913 L 721.847 435.905 Z  M 727.996 437.093 C 728.106 437.093 728.256 437.078 728.256 437.078 C 728.311 437.07 728.319 437.086 728.264 437.109 L 727.704 437.298 C 727.649 437.322 727.531 437.345 727.476 437.345 L 727.413 437.345 C 727.357 437.345 727.349 437.337 727.405 437.314 L 727.996 437.093 Z  M 727.089 437.322 C 727.034 437.345 726.94 437.353 726.884 437.353 L 726.671 437.345 C 726.616 437.337 726.608 437.322 726.664 437.298 L 727.16 437.125 C 727.215 437.101 727.302 437.078 727.365 437.086 L 727.523 437.093 C 727.578 437.093 727.586 437.117 727.531 437.149 L 727.089 437.33 L 727.089 437.322 Z  M 725.954 437.259 C 725.899 437.251 725.891 437.227 725.946 437.204 L 726.301 437.015 C 726.348 436.991 726.403 436.967 726.403 436.967 C 726.411 436.967 726.459 436.975 726.522 436.983 L 726.735 437.015 C 726.79 437.023 726.798 437.054 726.742 437.07 L 726.222 437.282 C 726.183 437.282 725.954 437.251 725.954 437.251 L 725.954 437.259 Z  M 725.836 436.865 C 725.891 436.873 725.899 436.912 725.852 436.944 L 725.536 437.117 C 725.481 437.141 725.394 437.156 725.339 437.141 L 725.158 437.101 C 725.103 437.086 725.095 437.054 725.142 437.023 L 725.363 436.865 C 725.41 436.826 725.489 436.81 725.552 436.818 L 725.836 436.873 L 725.836 436.865 Z  M 724.425 436.613 C 724.464 436.566 724.535 436.542 724.59 436.558 L 724.882 436.637 C 724.937 436.653 724.953 436.7 724.906 436.739 L 724.716 436.897 C 724.669 436.936 724.59 436.952 724.535 436.944 L 724.314 436.873 C 724.259 436.857 724.243 436.81 724.283 436.763 L 724.417 436.613 L 724.425 436.613 Z  M 723.928 436.33 C 723.983 436.346 724.007 436.401 723.967 436.448 L 723.841 436.629 C 723.81 436.676 723.731 436.7 723.676 436.676 L 723.463 436.605 C 723.408 436.582 723.384 436.527 723.408 436.471 L 723.502 436.283 C 723.526 436.227 723.589 436.204 723.644 436.227 L 723.92 436.33 L 723.928 436.33 Z  M 722.966 435.976 C 723.021 435.999 723.053 436.062 723.029 436.117 L 722.974 436.298 C 722.958 436.353 722.903 436.385 722.848 436.361 L 722.635 436.283 C 722.58 436.259 722.54 436.196 722.54 436.133 L 722.564 435.913 C 722.572 435.857 722.627 435.826 722.682 435.85 L 722.966 435.976 Z  M 721.137 435.102 C 721.184 435.133 721.24 435.196 721.255 435.251 L 721.318 435.543 C 721.334 435.598 721.311 435.621 721.255 435.59 L 721.082 435.487 C 721.035 435.456 720.972 435.393 720.948 435.338 L 720.838 434.999 C 720.822 434.944 720.845 434.921 720.901 434.952 L 721.129 435.094 L 721.137 435.102 Z  M 720.435 435.102 C 720.388 435.07 720.325 434.999 720.301 434.944 L 720.104 434.535 C 720.081 434.48 720.104 434.464 720.152 434.495 L 720.341 434.621 C 720.388 434.653 720.443 434.724 720.459 434.779 L 720.617 435.157 C 720.64 435.212 720.625 435.228 720.577 435.188 L 720.435 435.094 L 720.435 435.102 Z  M 719.978 434.732 C 720.01 434.787 719.994 434.787 719.955 434.747 L 719.797 434.621 C 719.75 434.59 719.687 434.519 719.671 434.464 L 719.497 434.078 C 719.474 434.023 719.497 434.007 719.545 434.039 L 719.655 434.11 C 719.702 434.149 719.757 434.22 719.789 434.267 L 719.994 434.732 L 719.978 434.732 Z  M 719.489 434.346 C 719.466 434.346 719.34 434.212 719.34 434.212 C 719.3 434.173 719.245 434.094 719.213 434.039 L 718.945 433.551 C 718.914 433.503 718.922 433.496 718.961 433.535 L 719.056 433.622 C 719.095 433.661 719.15 433.74 719.174 433.795 C 719.174 433.795 719.3 434.07 719.474 434.346 L 719.489 434.346 Z  M 729.786 435.133 C 729.841 435.141 729.92 435.102 729.951 435.054 L 730.211 434.653 C 730.243 434.606 730.227 434.558 730.164 434.558 L 729.833 434.551 C 729.778 434.551 729.699 434.582 729.675 434.637 L 729.415 435.031 C 729.383 435.078 729.407 435.125 729.462 435.125 L 729.786 435.141 L 729.786 435.133 Z  M 728.705 435.047 C 728.761 435.054 728.839 435.015 728.871 434.968 L 729.123 434.566 C 729.155 434.519 729.131 434.472 729.068 434.464 L 728.682 434.409 C 728.627 434.401 728.556 434.432 728.524 434.488 L 728.28 434.905 C 728.248 434.952 728.272 434.999 728.335 435.007 L 728.705 435.047 Z  M 725.016 434.157 C 725.071 434.181 725.134 434.149 725.158 434.094 L 725.347 433.692 C 725.371 433.637 725.347 433.582 725.292 433.559 L 724.827 433.393 C 724.771 433.37 724.708 433.401 724.693 433.456 L 724.527 433.881 C 724.503 433.936 724.535 433.992 724.59 434.007 L 725.016 434.157 Z  M 717.936 429.795 C 717.905 429.748 717.881 429.662 717.889 429.606 L 717.952 429.118 C 717.96 429.063 717.992 429.048 718.031 429.095 L 718.118 429.213 C 718.157 429.252 718.181 429.339 718.173 429.394 L 718.126 429.914 C 718.126 429.977 718.086 429.984 718.055 429.937 L 717.944 429.788 L 717.936 429.795 Z  M 717.637 429.299 C 717.613 429.244 717.589 429.158 717.597 429.095 L 717.645 428.615 C 717.653 428.559 717.676 428.552 717.708 428.599 C 717.739 428.646 717.771 428.756 717.771 428.819 L 717.716 429.331 C 717.708 429.386 717.684 429.402 717.66 429.347 C 717.637 429.299 717.645 429.292 717.645 429.292 L 717.637 429.299 Z  M 718.78 429.984 C 718.78 430.024 718.709 430.567 718.709 430.567 C 718.701 430.622 718.662 430.638 718.614 430.598 L 718.441 430.417 C 718.401 430.378 718.37 430.299 718.378 430.236 L 718.433 429.748 C 718.441 429.693 718.48 429.677 718.52 429.717 L 718.772 429.977 L 718.78 429.984 Z  M 719.482 430.559 C 719.529 430.591 719.56 430.669 719.552 430.724 L 719.466 431.213 C 719.458 431.276 719.418 431.283 719.371 431.252 L 719.127 431.047 C 719.079 431.008 719.048 430.929 719.056 430.874 L 719.127 430.41 C 719.135 430.347 719.182 430.331 719.229 430.37 L 719.482 430.559 Z  M 720.435 431.244 C 720.483 431.276 720.514 431.346 720.506 431.401 L 720.396 431.866 C 720.38 431.921 720.333 431.945 720.286 431.913 L 719.986 431.709 C 719.939 431.677 719.907 431.598 719.915 431.543 L 720.002 431.071 C 720.01 431.016 720.057 430.992 720.104 431.031 L 720.428 431.244 L 720.435 431.244 Z  M 721.516 431.897 C 721.571 431.929 721.594 431.992 721.579 432.047 L 721.46 432.488 C 721.445 432.543 721.389 432.567 721.342 432.543 L 720.987 432.346 C 720.94 432.315 720.908 432.252 720.916 432.189 L 721.043 431.646 L 721.516 431.897 Z  M 722.635 433.078 C 722.619 433.133 722.564 433.157 722.509 433.133 L 722.115 432.945 C 722.06 432.921 722.036 432.85 722.044 432.795 L 722.162 432.37 C 722.178 432.315 722.233 432.291 722.288 432.315 L 722.698 432.504 C 722.753 432.527 722.785 432.598 722.769 432.653 L 722.635 433.078 Z  M 723.975 433.078 C 724.03 433.102 724.054 433.165 724.038 433.22 L 723.873 433.622 C 723.849 433.677 723.794 433.708 723.739 433.685 L 723.305 433.503 C 723.25 433.48 723.226 433.417 723.25 433.362 L 723.392 432.952 C 723.408 432.897 723.471 432.866 723.526 432.889 L 723.975 433.07 L 723.975 433.078 Z  M 725.859 434.425 C 725.804 434.409 725.781 434.354 725.804 434.299 L 725.993 433.897 C 726.017 433.842 726.088 433.811 726.143 433.834 L 726.585 433.96 C 726.64 433.976 726.664 434.015 726.64 434.055 L 726.451 434.456 C 726.427 434.503 726.403 434.558 726.403 434.566 C 726.403 434.574 726.332 434.582 726.277 434.566 L 725.852 434.432 L 725.859 434.425 Z  M 727.113 434.763 C 727.058 434.747 727.034 434.7 727.058 434.645 L 727.279 434.228 C 727.31 434.173 727.373 434.141 727.436 434.157 L 727.854 434.259 C 727.909 434.267 727.933 434.322 727.909 434.377 L 727.688 434.779 C 727.665 434.826 727.586 434.858 727.531 434.85 L 727.113 434.763 Z  M 730.881 435.039 C 730.85 435.086 730.771 435.125 730.716 435.133 L 730.471 435.141 C 730.408 435.141 730.393 435.11 730.424 435.062 L 730.692 434.677 C 730.724 434.629 730.803 434.582 730.858 434.574 L 731.118 434.551 C 731.173 434.551 731.197 434.582 731.165 434.629 L 730.873 435.039 L 730.881 435.039 Z  M 731.654 434.905 C 731.622 434.952 731.544 434.999 731.488 435.007 L 731.331 435.039 C 731.276 435.047 731.252 435.015 731.291 434.968 L 731.599 434.558 C 731.63 434.511 731.709 434.464 731.764 434.448 L 731.922 434.409 C 731.977 434.393 732.001 434.425 731.961 434.472 L 731.646 434.897 L 731.654 434.905 Z  M 732.285 434.393 C 732.324 434.346 732.387 434.291 732.434 434.275 C 732.482 434.259 732.553 434.259 732.521 434.306 L 732.222 434.708 C 732.182 434.755 732.111 434.81 732.056 434.834 L 731.914 434.889 C 731.914 434.865 732.285 434.393 732.285 434.393 Z  M 718.378 425.442 C 718.401 425.387 718.425 425.395 718.417 425.45 L 718.409 425.56 C 718.409 425.615 718.386 425.709 718.362 425.765 L 718.126 426.276 C 718.126 426.15 718.141 426.017 718.141 426.017 C 718.149 425.961 718.173 425.867 718.196 425.82 L 718.386 425.45 L 718.378 425.442 Z  M 718.362 426.701 C 718.338 426.757 718.291 426.757 718.267 426.709 L 718.236 426.638 C 718.212 426.583 718.212 426.505 718.236 426.45 L 718.425 426.04 C 718.449 425.985 718.488 425.985 718.52 426.04 L 718.559 426.127 C 718.591 426.174 718.591 426.261 718.567 426.316 L 718.37 426.717 L 718.362 426.701 Z  M 718.74 426.599 C 718.764 426.544 718.819 426.544 718.851 426.591 L 718.945 426.741 C 718.985 426.788 718.993 426.867 718.961 426.922 L 718.764 427.331 C 718.74 427.386 718.693 427.386 718.662 427.339 L 718.551 427.182 C 718.52 427.134 718.512 427.048 718.535 426.993 L 718.733 426.599 L 718.74 426.599 Z  M 719.56 427.418 C 719.6 427.457 719.616 427.536 719.592 427.591 L 719.395 428 C 719.371 428.056 719.316 428.063 719.277 428.024 L 719.087 427.819 C 719.048 427.772 719.04 427.693 719.064 427.638 L 719.245 427.26 C 719.269 427.205 719.324 427.197 719.363 427.237 L 719.56 427.41 L 719.56 427.418 Z  M 720.199 428.654 C 720.175 428.709 720.12 428.725 720.073 428.685 L 719.813 428.473 C 719.765 428.433 719.757 428.363 719.781 428.307 L 719.955 427.93 C 719.978 427.882 720.041 427.867 720.089 427.906 L 720.341 428.095 C 720.388 428.126 720.404 428.197 720.38 428.252 L 720.199 428.654 Z  M 721.295 428.796 C 721.342 428.827 721.366 428.898 721.342 428.953 L 721.169 429.339 C 721.145 429.394 721.082 429.41 721.043 429.378 L 720.719 429.166 C 720.672 429.134 720.648 429.063 720.68 429.008 L 720.853 428.63 C 720.877 428.575 720.94 428.559 720.987 428.591 L 721.303 428.803 L 721.295 428.796 Z  M 722.399 429.425 C 722.446 429.457 722.469 429.52 722.454 429.575 L 722.296 429.984 C 722.272 430.039 722.217 430.063 722.162 430.032 L 721.76 429.811 C 721.713 429.78 721.689 429.717 721.713 429.662 L 721.886 429.276 C 721.91 429.221 721.973 429.197 722.02 429.229 L 722.399 429.425 Z  M 723.061 429.898 C 723.084 429.843 723.14 429.819 723.195 429.843 L 723.628 430.047 C 723.684 430.079 723.707 430.142 723.684 430.197 L 723.51 430.606 C 723.486 430.661 723.423 430.685 723.376 430.654 L 722.958 430.449 C 722.903 430.425 722.879 430.362 722.903 430.307 L 723.069 429.89 L 723.061 429.898 Z  M 724.906 430.622 C 724.961 430.646 724.984 430.709 724.969 430.764 C 724.969 430.764 724.787 431.228 724.787 431.268 L 724.22 431.047 C 724.164 431.024 724.141 430.961 724.157 430.913 L 724.33 430.488 C 724.354 430.433 724.417 430.41 724.464 430.433 L 724.898 430.622 L 724.906 430.622 Z  M 725.552 431.567 C 725.497 431.543 725.465 431.488 725.481 431.433 L 725.639 431.008 C 725.662 430.953 725.718 430.921 725.773 430.945 L 726.246 431.134 C 726.301 431.157 726.325 431.213 726.309 431.268 L 726.151 431.685 C 726.135 431.74 726.072 431.771 726.017 431.748 L 725.552 431.575 L 725.552 431.567 Z  M 726.884 432 C 726.829 431.984 726.798 431.921 726.821 431.866 L 726.979 431.449 C 727.003 431.394 727.066 431.362 727.121 431.378 L 727.586 431.512 C 727.641 431.527 727.673 431.583 727.649 431.638 L 727.483 432.063 C 727.46 432.118 727.405 432.149 727.342 432.134 L 726.876 431.992 L 726.884 432 Z  M 730.669 432.74 C 730.613 432.74 730.582 432.693 730.598 432.637 L 730.732 432.212 C 730.747 432.157 730.81 432.11 730.866 432.118 L 731.189 432.142 C 731.244 432.149 731.283 432.197 731.268 432.252 L 731.142 432.661 C 731.126 432.716 731.063 432.756 731 432.756 L 730.661 432.74 L 730.669 432.74 Z  M 731.725 432.771 C 731.67 432.771 731.63 432.732 731.646 432.669 L 731.78 432.244 C 731.796 432.189 731.859 432.142 731.914 432.134 L 732.174 432.11 C 732.229 432.102 732.269 432.149 732.245 432.204 L 732.095 432.653 C 732.08 432.708 732.017 432.756 731.954 432.756 L 731.717 432.771 L 731.725 432.771 Z  M 733.617 431.803 C 733.672 431.779 733.704 431.811 733.68 431.866 L 733.546 432.291 C 733.53 432.346 733.467 432.409 733.412 432.433 C 733.357 432.456 733.246 432.456 733.262 432.401 L 733.396 431.976 C 733.412 431.921 733.467 431.858 733.522 431.842 L 733.601 431.803 L 733.617 431.803 Z  M 733.814 432.165 C 733.775 432.204 733.751 432.197 733.775 432.142 L 733.909 431.716 C 733.924 431.661 733.972 431.583 734.011 431.535 L 734.082 431.464 C 734.122 431.417 734.129 431.425 734.114 431.48 L 733.98 431.882 C 733.956 431.937 733.924 432.047 733.893 432.094 L 733.83 432.165 L 733.814 432.165 Z  M 728.879 431.834 C 728.934 431.85 728.966 431.905 728.95 431.96 L 728.8 432.386 C 728.784 432.441 728.721 432.472 728.666 432.464 L 728.232 432.378 C 728.177 432.362 728.146 432.307 728.161 432.252 L 728.311 431.803 C 728.327 431.748 728.39 431.716 728.445 431.724 L 728.887 431.834 L 728.879 431.834 Z  M 729.88 432.669 C 729.943 432.677 729.998 432.637 730.022 432.582 L 730.164 432.157 C 730.18 432.102 730.148 432.047 730.093 432.047 L 729.699 431.992 C 729.644 431.984 729.581 432.016 729.557 432.071 L 729.415 432.496 C 729.399 432.551 729.431 432.606 729.486 432.614 L 729.88 432.677 L 729.88 432.669 Z  M 732.797 432.63 C 732.852 432.622 732.915 432.567 732.931 432.512 L 733.065 432.063 C 733.081 432.008 733.049 431.976 732.986 431.992 L 732.821 432.047 C 732.766 432.063 732.703 432.118 732.687 432.173 L 732.553 432.575 C 732.537 432.63 732.568 432.669 732.624 432.661 L 732.781 432.637 L 732.797 432.63 Z  M 732.971 427.229 C 733.034 427.221 733.065 427.166 733.042 427.103 L 732.884 426.615 C 732.868 426.56 732.813 426.52 732.766 426.536 C 732.718 426.552 732.6 426.623 732.616 426.678 L 732.742 427.166 C 732.758 427.221 732.813 427.26 732.868 427.245 L 732.971 427.221 L 732.971 427.229 Z  M 729.77 427.103 C 729.825 427.111 729.88 427.079 729.88 427.016 L 729.912 426.536 C 729.912 426.481 729.872 426.418 729.817 426.41 L 729.565 426.363 C 729.51 426.347 729.454 426.387 729.454 426.442 L 729.415 426.835 L 729.407 426.961 C 729.407 426.977 729.454 427.016 729.51 427.024 L 729.778 427.087 L 729.77 427.103 Z  M 728.784 426.859 C 728.839 426.875 728.895 426.843 728.895 426.788 L 728.966 426.324 C 728.974 426.268 728.934 426.205 728.879 426.19 L 728.611 426.119 C 728.556 426.103 728.5 426.135 728.485 426.198 L 728.39 426.638 C 728.374 426.694 728.414 426.757 728.469 426.772 L 728.776 426.859 L 728.784 426.859 Z  M 733.727 426.024 C 733.712 425.969 733.696 425.898 733.704 425.867 C 733.712 425.835 733.759 425.804 733.783 425.859 L 733.956 426.253 C 733.98 426.308 733.988 426.394 733.98 426.45 C 733.972 426.513 733.94 426.52 733.917 426.465 L 733.727 426.024 Z  M 733.79 426.812 C 733.759 426.843 733.72 426.827 733.696 426.772 C 733.696 426.772 733.467 426.261 733.467 426.237 C 733.467 426.213 733.522 426.158 733.522 426.158 C 733.562 426.119 733.617 426.119 733.641 426.174 L 733.838 426.607 C 733.861 426.662 733.83 426.772 733.798 426.812 L 733.79 426.812 Z  M 733.515 426.93 C 733.538 426.985 733.507 427.048 733.451 427.071 C 733.451 427.071 733.444 427.071 733.396 427.095 C 733.357 427.111 733.302 427.079 733.286 427.024 L 733.128 426.56 C 733.112 426.505 733.128 426.442 733.168 426.426 C 733.207 426.41 733.317 426.418 733.341 426.473 L 733.515 426.938 L 733.515 426.93 Z  M 732.159 426.631 C 732.214 426.623 732.277 426.67 732.293 426.725 L 732.419 427.205 C 732.434 427.26 732.395 427.316 732.332 427.316 L 732.19 427.323 C 732.135 427.323 732.072 427.276 732.064 427.221 C 732.064 427.221 731.954 426.701 731.954 426.631 L 732.166 426.623 L 732.159 426.631 Z  M 731.465 426.638 C 731.52 426.646 731.575 426.694 731.591 426.749 C 731.591 426.749 731.686 427.316 731.686 427.331 L 731.378 427.316 C 731.315 427.316 731.268 427.26 731.26 427.205 L 731.205 426.725 C 731.197 426.67 731.244 426.623 731.299 426.631 L 731.465 426.638 Z  M 730.684 426.568 C 730.739 426.575 730.787 426.631 730.795 426.694 L 730.818 427.268 C 730.779 427.268 730.471 427.221 730.471 427.221 C 730.408 427.213 730.369 427.158 730.369 427.103 L 730.369 426.623 C 730.369 426.568 730.416 426.52 730.471 426.536 L 730.692 426.575 L 730.684 426.568 Z  M 727.523 425.859 C 727.547 425.804 727.602 425.78 727.657 425.804 L 727.925 425.898 C 727.98 425.914 728.012 425.977 727.996 426.032 L 727.878 426.45 C 727.862 426.505 727.807 426.536 727.752 426.52 L 727.436 426.41 C 727.381 426.394 727.349 426.331 727.373 426.276 L 727.523 425.851 L 727.523 425.859 Z  M 726.869 426.095 C 726.845 426.15 726.782 426.174 726.727 426.15 L 726.419 426.009 C 726.364 425.985 726.34 425.922 726.364 425.875 L 726.561 425.481 C 726.585 425.426 726.648 425.402 726.703 425.426 L 726.987 425.544 C 727.042 425.568 727.066 425.631 727.042 425.686 L 726.861 426.095 L 726.869 426.095 Z  M 725.891 425.67 C 725.867 425.725 725.796 425.741 725.749 425.717 L 725.449 425.56 C 725.394 425.536 725.379 425.473 725.41 425.426 L 725.662 425.04 C 725.694 424.993 725.765 424.977 725.812 425.001 C 725.812 425.001 726.127 425.166 726.151 425.166 L 725.891 425.662 L 725.891 425.67 Z  M 724.819 424.592 C 724.858 424.544 724.929 424.536 724.976 424.568 L 725.189 424.694 C 725.237 424.725 725.252 424.781 725.221 424.828 L 724.953 425.19 C 724.921 425.237 724.85 425.253 724.803 425.229 L 724.448 425.032 C 724.527 424.93 724.827 424.592 724.827 424.592 L 724.819 424.592 Z  M 724.109 424.694 C 724.07 424.733 723.991 424.741 723.944 424.71 L 723.731 424.568 C 723.684 424.536 723.676 424.473 723.715 424.434 L 724.062 424.111 C 724.109 424.072 724.18 424.064 724.228 424.096 L 724.503 424.285 C 724.448 424.348 724.109 424.694 724.109 424.694 Z  M 723.376 424.182 C 723.329 424.222 723.258 424.222 723.211 424.19 L 723.045 424.072 C 722.998 424.033 722.998 423.97 723.045 423.938 L 723.423 423.623 C 723.471 423.584 723.542 423.584 723.589 423.623 L 723.731 423.741 C 723.778 423.781 723.778 423.844 723.731 423.883 L 723.384 424.19 L 723.376 424.182 Z  M 722.667 423.733 L 722.406 423.474 C 722.43 423.474 722.903 423.127 722.903 423.127 C 722.95 423.096 723.021 423.104 723.061 423.143 L 723.147 423.23 C 723.187 423.269 723.187 423.332 723.14 423.363 C 723.14 423.363 722.824 423.6 722.667 423.733 Z  M 722.28 423.159 C 722.233 423.19 722.17 423.182 722.138 423.143 C 722.107 423.104 722.06 422.954 722.107 422.923 L 722.533 422.663 C 722.58 422.631 722.651 422.647 722.674 422.686 C 722.706 422.726 722.753 422.852 722.706 422.883 L 722.28 423.159 Z  M 722.312 422.23 C 722.359 422.198 722.422 422.222 722.446 422.277 C 722.446 422.277 722.446 422.285 722.462 422.324 C 722.477 422.364 722.446 422.419 722.399 422.45 C 722.399 422.45 721.965 422.694 721.886 422.741 L 721.823 422.623 C 721.799 422.568 721.815 422.505 721.87 422.474 L 722.312 422.23 Z  M 722.359 421.781 L 722.359 421.868 C 722.359 421.923 722.32 421.994 722.264 422.025 L 721.847 422.245 C 721.791 422.269 721.752 422.269 721.752 422.23 C 721.752 422.19 721.791 422.08 721.847 422.049 C 721.847 422.049 722.17 421.875 722.359 421.789 L 722.359 421.781 Z  M 722.391 421.49 C 722.446 421.466 722.469 421.474 722.454 421.505 C 722.43 421.537 722.351 421.631 722.296 421.655 C 722.296 421.655 721.815 421.891 721.791 421.891 L 721.847 421.789 C 721.878 421.742 721.941 421.679 721.996 421.655 L 722.383 421.482 L 722.391 421.49 Z " fill-rule="evenodd" fill="rgb(254,254,254)"/></g><rect x="711" y="417" width="30" height="32" transform="matrix(1,0,0,1,0,0)" fill="none"/><path d=" M 726 417 C 717.716 417 711 422.373 711 429 C 711 431.699 712.113 434.188 713.993 436.194 L 726 449 L 738.007 436.194 C 739.887 434.188 741 431.699 741 429 C 741 422.373 734.284 417 726 417 Z  M 726 438 C 720.478 438 715 433.418 715 429 C 715 424.582 720.478 420 726 420 C 731.523 420 737 424.582 737 429 C 737 433.418 731.523 438 726 438 Z " fill="rgb(254,1,21)"/></g></svg>