<?xml version="1.0" standalone="no"?><!-- Generator: Gravit.io --><svg xmlns="http://www.w3.org/2000/svg" xmlns:xlink="http://www.w3.org/1999/xlink" style="isolation:isolate" viewBox="425 696 30 32" width="30" height="32"><g><g><g><g><path d=" M 440 696 C 431.716 696 425 701.373 425 708 C 425 710.699 426.113 713.188 427.993 715.194 L 440 728 L 452.007 715.194 C 453.887 713.188 455 710.699 455 708 C 455 701.373 448.284 696 440 696 Z  M 440 718 C 434.478 718 429 712.418 429 708 C 429 703.582 434.478 699 440 699 C 445.523 699 451 703.582 451 708 C 451 712.418 445.523 718 440 718 Z " fill="rgb(255,83,255)"/></g></g></g><g><path d=" M 442.057 703.34 L 442.629 703.792 L 442.971 704.245 L 443.2 704.698 L 443.314 704.925 L 443.314 705.151 L 443.2 705.264 L 442.629 705.264 L 442.286 705.264 L 442.171 705.604 L 442.057 705.943 L 442.171 706.396 L 442.4 706.962 L 442.629 707.415 L 442.743 707.868 L 442.857 708.547 L 442.857 709.566 L 442.857 710.358 L 442.743 710.925 L 442.629 711.717 L 442.514 712.17 L 442.286 712.736 L 441.943 713.415 L 441.714 713.755 L 441.257 714.208 L 440.8 714.547 L 440.571 714.66 L 440.343 714.774 L 440 714.774 L 439.771 714.774 L 439.543 714.774 L 439.314 714.66 L 438.971 714.434 L 438.857 714.321 L 438.743 714.208 L 438.629 714.094 L 438.514 713.981 L 438.4 713.868 L 438.286 713.755 L 438.171 713.528 L 438.057 713.302 L 437.943 713.075 L 437.714 712.623 L 437.6 712.283 L 437.486 711.943 L 437.371 711.491 L 437.257 710.585 L 437.257 710.132 L 437.257 709.226 L 437.257 708.774 L 437.257 708.547 L 437.371 707.755 L 437.486 707.075 L 437.714 706.509 L 438.057 705.83 L 438.4 705.151 L 438.857 704.698 L 439.429 704.245 L 440 703.792 L 440.571 703.566 L 440.914 703.453 L 441.371 703.34 L 441.829 703.34 L 442.057 703.34 Z " fill="rgb(255,83,255)"/><path d=" M 432 703 L 432.914 703.113 L 433.829 703.453 L 434.743 703.906 L 435.386 704.358 L 435.886 704.698 L 436.343 705.151 L 436.914 705.717 L 437.257 706.057 L 437.371 706.283 L 437.143 707.075 L 436.914 707.981 L 436.8 709.34 L 436.8 710.245 L 436.8 710.698 L 436.914 711.377 L 437.029 712.057 L 437.371 712.962 L 437.714 713.528 L 437.943 713.981 L 438.286 714.434 L 438.743 714.774 L 438.629 714.887 L 438.4 715 L 438.057 715 L 437.257 714.887 L 436.457 714.66 L 435.771 714.321 L 435.086 713.755 L 434.743 713.415 L 434.286 712.623 L 433.829 711.604 L 433.6 710.925 L 433.486 710.245 L 433.371 707.981 L 433.371 706.736 L 433.257 705.943 L 433.029 705.264 L 432.571 704.245 L 432.229 703.679 L 432 703.453 L 432 703.113 L 432 703 Z " fill="rgb(255,83,255)"/><path d=" M 448 703 L 447.086 703.113 L 446.171 703.226 L 445.143 703.566 L 444.343 704.019 L 444 704.358 L 443.886 704.925 L 443.771 705.604 L 442.743 705.604 L 442.514 705.943 L 442.857 707.075 L 443.086 707.981 L 443.2 709.34 L 443.2 710.245 L 443.2 710.698 L 443.086 711.377 L 442.971 712.057 L 442.629 712.962 L 442.286 713.528 L 442.057 713.981 L 441.714 714.434 L 441.257 714.774 L 441.371 714.887 L 441.6 715 L 441.943 715 L 442.743 714.887 L 443.543 714.66 L 444.229 714.321 L 444.914 713.755 L 445.257 713.415 L 445.714 712.623 L 446.171 711.604 L 446.4 710.925 L 446.514 710.245 L 446.629 707.981 L 446.629 706.736 L 446.743 705.943 L 446.971 705.264 L 447.429 704.245 L 447.771 703.679 L 448 703.453 L 448 703.113 L 448 703 Z " fill="rgb(255,83,255)"/></g></g></svg>