<?xml version="1.0" encoding="UTF-8" standalone="no"?><!-- Generator: Gravit.io --><svg xmlns="http://www.w3.org/2000/svg" xmlns:xlink="http://www.w3.org/1999/xlink" style="isolation:isolate" viewBox="470.5 233.75 26 36" width="26pt" height="36pt"><g><g><g><g><g><path d=" M 473.412 234.453 L 493.588 234.453 C 494.834 234.453 495.854 235.564 495.854 236.922 L 495.854 258.894 C 495.854 260.252 494.834 261.363 493.588 261.363 L 487.475 261.363 L 485.488 265.205 L 483.5 269.047 L 481.512 265.205 L 479.525 261.363 L 473.412 261.363 C 472.166 261.363 471.146 260.252 471.146 258.894 L 471.146 236.922 C 471.146 235.564 472.166 234.453 473.412 234.453 L 473.412 234.453 Z " fill-rule="evenodd" fill="rgb(255,255,255)"/><path d=" M 493.588 233.75 L 473.412 233.75 C 471.806 233.75 470.5 235.173 470.5 236.922 L 470.5 258.894 C 470.5 260.643 471.807 262.066 473.412 262.066 L 479.147 262.066 L 482.937 269.392 C 483.052 269.613 483.267 269.75 483.5 269.75 C 483.733 269.75 483.948 269.613 484.063 269.392 L 487.853 262.066 L 493.588 262.066 C 495.193 262.066 496.5 260.643 496.5 258.894 L 496.5 236.922 C 496.5 235.173 495.193 233.75 493.588 233.75 L 493.588 233.75 Z  M 495.209 258.894 C 495.209 259.868 494.481 260.66 493.588 260.66 L 487.475 260.66 C 487.242 260.66 487.027 260.796 486.913 261.018 L 483.5 267.615 L 480.087 261.018 C 479.973 260.796 479.758 260.66 479.525 260.66 L 473.412 260.66 C 472.519 260.66 471.791 259.868 471.791 258.894 L 471.791 236.922 C 471.791 235.948 472.519 235.156 473.412 235.156 L 493.588 235.156 C 494.481 235.156 495.209 235.948 495.209 236.922 L 495.209 258.894 Z " fill-rule="evenodd" fill="rgb(255,155,41)"/></g></g></g></g><g><linearGradient id="_lgradient_0" x1="0.4325102364929019" y1="0.5032089850378318" x2="0.6211081691534246" y2="0.6918069176983546" gradientTransform="matrix(10.561,-11.142,10.48,9.933,472.939,250.533)" gradientUnits="userSpaceOnUse"><stop offset="0%" stop-opacity="1" style="stop-color:rgb(255,147,30)"/><stop offset="56.89999999999999%" stop-opacity="1" style="stop-color:rgb(255,118,14)"/><stop offset="100%" stop-opacity="1" style="stop-color:rgb(255,93,0)"/></linearGradient><path d=" M 488.141 245.731 C 488.131 248.312 485.998 259.872 483.421 260.02 C 480.844 260.168 478.799 248.849 478.809 246.268 C 478.819 243.686 480.916 241.474 483.493 241.326 C 486.07 241.178 488.15 243.15 488.141 245.731 Z " fill="url(#_lgradient_0)"/><g><path d=" M 487.497 247.249 C 487.444 247.304 487.372 247.34 487.293 247.345 L 484.333 247.515 C 484.174 247.524 484.046 247.402 484.046 247.243 C 484.047 247.084 484.176 246.948 484.335 246.938 L 487.295 246.768 C 487.454 246.759 487.582 246.881 487.582 247.04 C 487.581 247.12 487.549 247.194 487.497 247.249 Z " fill="rgb(255,93,0)"/><path d=" M 487.189 249.39 C 487.137 249.445 487.065 249.482 486.985 249.486 L 484.219 249.645 C 484.06 249.654 483.932 249.533 483.933 249.374 C 483.933 249.214 484.063 249.078 484.222 249.069 L 486.988 248.91 C 487.147 248.901 487.275 249.022 487.274 249.182 C 487.274 249.261 487.241 249.335 487.189 249.39 Z " fill="rgb(255,93,0)"/><path d=" M 486.78 251.538 C 486.728 251.593 486.656 251.629 486.577 251.634 L 484.069 251.778 C 483.91 251.787 483.782 251.665 483.783 251.506 C 483.783 251.347 483.913 251.21 484.072 251.201 L 486.579 251.057 C 486.738 251.048 486.866 251.17 486.866 251.329 C 486.865 251.408 486.833 251.482 486.78 251.538 Z " fill="rgb(255,93,0)"/><path d=" M 486.279 253.69 C 486.227 253.745 486.154 253.782 486.075 253.786 L 483.887 253.912 C 483.728 253.921 483.6 253.799 483.601 253.64 C 483.601 253.481 483.731 253.345 483.89 253.335 L 486.077 253.21 C 486.236 253.201 486.364 253.322 486.364 253.481 C 486.364 253.561 486.331 253.635 486.279 253.69 Z " fill="rgb(255,93,0)"/><path d=" M 485.659 255.85 C 485.607 255.905 485.535 255.941 485.455 255.946 L 483.662 256.049 C 483.503 256.058 483.375 255.936 483.376 255.777 C 483.376 255.618 483.506 255.481 483.665 255.472 L 485.457 255.369 C 485.616 255.36 485.745 255.482 485.744 255.641 C 485.744 255.72 485.711 255.794 485.659 255.85 Z " fill="rgb(255,93,0)"/><path d=" M 484.836 258.02 C 484.784 258.075 484.712 258.112 484.632 258.116 L 483.366 258.189 C 483.207 258.198 483.079 258.077 483.08 257.917 C 483.08 257.758 483.209 257.622 483.368 257.613 L 484.634 257.54 C 484.793 257.531 484.922 257.652 484.921 257.812 C 484.921 257.891 484.888 257.965 484.836 258.02 Z " fill="rgb(255,93,0)"/><path d=" M 480.183 247.3 C 480.002 247.128 480.003 246.833 480.185 246.64 C 480.368 246.448 480.663 246.431 480.843 246.602 C 481.024 246.774 481.023 247.069 480.841 247.262 C 480.659 247.454 480.364 247.471 480.183 247.3 Z " fill="rgb(255,93,0)"/><path d=" M 481.216 247.075 C 481.125 246.99 481.126 246.842 481.217 246.746 C 481.309 246.649 481.456 246.641 481.547 246.727 C 481.637 246.812 481.637 246.96 481.545 247.057 C 481.454 247.153 481.307 247.161 481.216 247.075 Z " fill="rgb(255,93,0)"/><path d=" M 480.931 251.11 C 480.841 251.024 480.841 250.877 480.932 250.78 C 481.024 250.684 481.171 250.676 481.262 250.761 C 481.352 250.847 481.352 250.995 481.261 251.091 C 481.169 251.188 481.022 251.196 480.931 251.11 Z " fill="rgb(255,93,0)"/><path d=" M 482.437 251.671 C 482.347 251.585 482.347 251.437 482.439 251.341 C 482.53 251.245 482.678 251.236 482.768 251.322 C 482.859 251.408 482.858 251.556 482.767 251.652 C 482.676 251.748 482.528 251.757 482.437 251.671 Z " fill="rgb(255,93,0)"/><path d=" M 482.059 250.446 C 481.969 250.36 481.969 250.212 482.06 250.116 C 482.152 250.019 482.299 250.011 482.39 250.097 C 482.48 250.183 482.48 250.331 482.389 250.427 C 482.297 250.523 482.15 250.532 482.059 250.446 Z " fill="rgb(255,93,0)"/></g><linearGradient id="_lgradient_1" x1="0.18263227608655397" y1="0.8364213735583076" x2="0.3485518468947909" y2="-0.013248881390864997" gradientTransform="matrix(2.342,-2.471,6.585,6.241,481.302,241.997)" gradientUnits="userSpaceOnUse"><stop offset="0%" stop-opacity="0" style="stop-color:rgb(255,147,30)"/><stop offset="100%" stop-opacity="1" style="stop-color:rgb(255,93,0)"/></linearGradient><path d=" M 483.493 241.326 C 482.702 241.371 481.956 241.612 481.302 241.997 L 487.887 248.239 C 488.049 247.147 488.139 246.255 488.141 245.731 C 488.15 243.15 486.07 241.178 483.493 241.326 Z " fill="url(#_lgradient_1)"/><linearGradient id="_lgradient_2" x1="0.42420711831033886" y1="0.39817929734059065" x2="0.8138718967499668" y2="0.7335914734757851" gradientTransform="matrix(2.498,-2.636,3.9,3.696,478.206,240.961)" gradientUnits="userSpaceOnUse"><stop offset="0%" stop-opacity="1" style="stop-color:rgb(158,182,68)"/><stop offset="100%" stop-opacity="1" style="stop-color:rgb(115,134,17)"/></linearGradient><path d=" M 483.128 241.017 C 482.82 240.116 482.038 239.47 481.082 239.371 C 480.687 239.33 480.241 239.379 479.762 239.588 C 477.973 240.368 478.613 242.289 480.099 241.967 C 481.585 241.645 483.771 242.9 483.771 242.9 L 483.128 241.017 Z " fill="url(#_lgradient_2)"/><linearGradient id="_lgradient_3" x1="0.5978626015241462" y1="0.5608629181722251" x2="0.38746060896124" y2="0.224763705675616" gradientTransform="matrix(2.804,-2.958,2.025,1.919,483.706,242.231)" gradientUnits="userSpaceOnUse"><stop offset="0%" stop-opacity="1" style="stop-color:rgb(158,182,68)"/><stop offset="100%" stop-opacity="1" style="stop-color:rgb(115,134,17)"/></linearGradient><path d=" M 484.709 241.352 C 485.04 240.616 485.759 240.102 486.547 240.075 C 486.84 240.065 487.156 240.12 487.477 240.283 C 488.763 240.937 488.034 242.402 486.926 242.111 C 485.818 241.82 484.131 242.634 484.131 242.634 L 484.709 241.352 Z " fill="url(#_lgradient_3)"/><linearGradient id="_lgradient_4" x1="0.42049239311600584" y1="0.49996106463733325" x2="0.6249207420676134" y2="0.6759178727039745" gradientTransform="matrix(3.736,-3.942,4.056,3.844,479.676,239.227)" gradientUnits="userSpaceOnUse"><stop offset="0%" stop-opacity="1" style="stop-color:rgb(158,182,68)"/><stop offset="100%" stop-opacity="1" style="stop-color:rgb(115,134,17)"/></linearGradient><path d=" M 485.129 237.508 C 485.197 238.459 484.724 242.774 483.771 242.9 C 482.817 243.027 481.744 238.916 481.677 237.965 C 481.609 237.014 482.327 236.142 483.281 236.015 C 484.234 235.889 485.062 236.557 485.129 237.508 Z " fill="url(#_lgradient_4)"/><linearGradient id="_lgradient_5" x1="0.4521243521164675" y1="0.29189956006227846" x2="0.5800975540002473" y2="0.7905883154454122" gradientTransform="matrix(4.621,-4.875,2.23,2.114,482.143,240.689)" gradientUnits="userSpaceOnUse"><stop offset="0%" stop-opacity="1" style="stop-color:rgb(158,182,68)"/><stop offset="100%" stop-opacity="1" style="stop-color:rgb(115,134,17)"/></linearGradient><path d=" M 484.568 239.217 C 484.568 239.217 484.925 236.678 486.75 236.531 C 488.574 236.384 488.869 238.742 487.342 239.512 C 485.815 240.282 484.144 242.585 484.144 242.585 L 484.568 239.217 Z " fill="url(#_lgradient_5)"/></g></g></svg>