<?xml version="1.0" encoding="UTF-8" standalone="no"?><!-- Generator: Gravit.io --><svg xmlns="http://www.w3.org/2000/svg" xmlns:xlink="http://www.w3.org/1999/xlink" style="isolation:isolate" viewBox="356 445 30 32" width="30pt" height="32pt"><g><g><g><clipPath id="_clipPath_19LRF7v4sDghTdbQECSDXYzs96hR3cyP"><rect x="356" y="445" width="30" height="32" transform="matrix(1,0,0,1,0,0)" fill="rgb(255,255,255)"/></clipPath><g clip-path="url(#_clipPath_19LRF7v4sDghTdbQECSDXYzs96hR3cyP)"><g><g><g><g><ellipse vector-effect="non-scaling-stroke" cx="371" cy="457.00000000000006" rx="12.007000000000062" ry="10" fill="rgb(249,215,242)"/><path d=" M 371 445 C 362.716 445 356 450.373 356 457 C 356 459.699 357.113 462.188 358.993 464.194 L 371 477 L 383.007 464.194 C 384.887 462.188 386 459.699 386 457 C 386 450.373 379.284 445 371 445 Z  M 371 466 C 365.478 466 360 461.418 360 457 C 360 452.582 365.478 448 371 448 C 376.523 448 382 452.582 382 457 C 382 461.418 376.523 466 371 466 Z " fill="rgb(205,155,199)"/></g></g></g></g></g></g></g><g><path d=" M 372.446 450 C 368.776 450 366.274 453.193 366.274 457.059 C 366.274 461.128 369.037 464 372.446 464 C 375.851 464 378.613 461.169 378.613 457.059 C 378.613 453.193 376.081 450 372.446 450 Z  M 372.402 462.614 C 369.863 462.614 367.77 460.096 367.77 457.062 C 367.77 454.033 369.764 451.394 372.5 451.394 C 375.168 451.394 377.13 454.033 377.13 457.062 C 377.13 460.096 374.939 462.614 372.402 462.614 Z " fill="rgb(167,133,76)"/><path d=" M 363 455.841 L 363.938 455.841 L 365.641 451.891 L 364.271 451.891 L 363 455.841" fill="rgb(167,133,76)"/></g></g></svg>