<?xml version="1.0" encoding="UTF-8" standalone="no"?><!-- Generator: Gravit.io --><svg xmlns="http://www.w3.org/2000/svg" xmlns:xlink="http://www.w3.org/1999/xlink" style="isolation:isolate" viewBox="447 251 30 32" width="30pt" height="32pt"><g><ellipse vector-effect="non-scaling-stroke" cx="462" cy="263" rx="12" ry="10" fill="rgb(255,230,68)"/><clipPath id="_clipPath_yTmFkVoj0VyAlQzJuulhja2MfPsy2bYe"><rect x="447" y="251" width="30" height="32" transform="matrix(1,0,0,1,0,0)" fill="rgb(255,255,255)"/></clipPath><g clip-path="url(#_clipPath_yTmFkVoj0VyAlQzJuulhja2MfPsy2bYe)"><g><g><g><g><path d=" M 462 251 C 453.716 251 447 256.373 447 263 C 447 265.699 448.113 268.188 449.993 270.194 L 462 283 L 474.007 270.194 C 475.887 268.188 477 265.699 477 263 C 477 256.373 470.284 251 462 251 Z  M 462 272 C 456.478 272 451 267.418 451 263 C 451 258.582 456.478 254 462 254 C 467.523 254 473 258.582 473 263 C 473 267.418 467.523 272 462 272 Z " fill="rgb(81,42,125)"/></g></g><g><path d=" M 465.83 256.118 C 465.057 256.284 464.301 256.502 463.428 256.803 C 464.143 257.135 464.758 257.384 465.356 257.706 C 467.35 258.765 469.178 260.083 470.375 262.263 C 470.824 263.073 471.114 263.966 470.957 264.962 C 470.79 265.969 470.25 266.665 469.478 267.142 C 468.082 268.004 466.569 268.066 465.007 267.858 C 465.315 267.734 465.622 267.64 465.921 267.495 C 466.976 266.997 467.791 266.249 467.99 264.879 C 468.115 264.038 467.915 263.27 467.583 262.544 C 466.76 260.737 465.414 259.533 463.927 258.485 L 463.877 258.453 C 461.609 257.114 462.365 257.083 460.096 258.485 C 458.725 259.336 457.55 260.503 456.703 262.029 C 455.265 264.614 456.028 266.968 458.629 267.788 C 458.787 267.819 458.838 267.86 458.975 267.962 C 457.363 268.066 455.784 268.014 454.38 267.038 C 452.867 265.99 452.585 264.142 453.599 262.294 C 454.471 260.706 455.701 259.575 457.097 258.62 C 458.044 257.976 459.041 257.447 460.096 257.042 C 460.221 256.99 460.379 257 460.462 256.772 C 459.714 256.471 458.95 256.284 458.177 256.107 C 459.025 255.952 459.872 255.962 460.703 256.159 C 461.592 256.367 462.448 256.346 463.337 256.149 C 464.07 256.049 464.991 255.952 465.83 256.118 L 465.83 256.118 Z " fill="rgb(2,116,80)"/><path d=" M 464.858 263.53 C 464.858 265.346 463.586 266.779 461.974 266.789 C 460.312 266.8 459.025 265.388 459.025 263.55 C 459.025 261.682 460.288 260.26 461.924 260.26 C 463.57 260.26 464.858 261.692 464.858 263.53 L 464.858 263.53 Z " fill="rgb(189,46,27)"/></g></g></g></g></g></svg>