<?xml version="1.0" standalone="no"?><!-- Generator: Gravit.io --><svg xmlns="http://www.w3.org/2000/svg" xmlns:xlink="http://www.w3.org/1999/xlink" style="isolation:isolate" viewBox="425 696 30 32" width="30" height="32"><defs><clipPath id="_clipPath_nNBqXai7NJTXfQWo9259ae9LZT4R3HJB"><rect x="425" y="696" width="30" height="32"/></clipPath></defs><g clip-path="url(#_clipPath_nNBqXai7NJTXfQWo9259ae9LZT4R3HJB)"><g><g><path d=" M 440 696 C 431.716 696 425 701.373 425 708 C 425 710.699 426.113 713.188 427.993 715.194 L 440 728 L 452.007 715.194 C 453.887 713.188 455 710.699 455 708 C 455 701.373 448.284 696 440 696 Z  M 440 718 C 434.478 718 429 712.418 429 708 C 429 703.582 434.478 699 440 699 C 445.523 699 451 703.582 451 708 C 451 712.418 445.523 718 440 718 Z " fill="rgb(25,72,142)"/></g></g><g><path d=" M 435.008 714.049 C 435.325 714.288 435.32 714.777 434.996 715.142 C 434.671 715.507 434.15 715.61 433.833 715.371 C 433.515 715.133 433.52 714.643 433.845 714.279 C 434.169 713.914 434.69 713.811 435.008 714.049 Z " fill="rgb(247,94,37)"/><path d=" M 444.276 714.049 C 444.593 714.288 444.588 714.777 444.264 715.142 C 443.939 715.507 443.418 715.61 443.101 715.371 C 442.783 715.133 442.788 714.643 443.113 714.279 C 443.437 713.914 443.958 713.811 444.276 714.049 Z " fill="rgb(247,94,37)"/><path d=" M 438.986 702.325 C 439.524 702.385 440.269 702.47 441.222 702.579 Q 445.893 703.115 447.5 703.297 L 447.351 705.02 L 446.603 708.609 L 437.186 709.757 L 436.887 710.188 L 436.588 710.475 L 433.598 712.198 L 433.448 712.342 L 433.448 712.629 L 433.598 712.916 L 433.897 713.059 L 445.557 713.059 L 445.557 713.203 L 445.557 713.347 L 445.407 713.49 L 433.448 713.49 L 433.149 713.203 L 433 712.916 L 433 712.629 L 433 712.342 L 433.149 712.198 L 433.598 711.767 L 435.99 710.332 L 436.438 709.901 L 436.588 709.757 L 436.887 708.609 L 437.036 707.891 L 437.186 707.173 L 437.335 706.455 L 437.335 705.881 L 437.186 705.02 L 437.036 704.302 L 436.737 703.441 L 436.438 702.866 L 435.99 702.292 L 435.541 701.861 L 434.943 701.574 L 434.495 701.431 L 434.345 701.144 L 434.495 701 L 434.794 701 L 435.093 701.144 L 435.84 701.431 L 436.139 701.574 L 436.588 702.005 L 436.737 702.149 Q 437.156 702.119 438.986 702.325 Z " fill="rgb(247,94,37)" vector-effect="non-scaling-stroke" stroke-width="0.3" stroke="rgb(247,94,37)" stroke-linejoin="miter" stroke-linecap="square" stroke-miterlimit="3"/></g></g></svg>