<?xml version="1.0" encoding="UTF-8" standalone="no"?><!-- Generator: Gravit.io --><svg xmlns="http://www.w3.org/2000/svg" xmlns:xlink="http://www.w3.org/1999/xlink" style="isolation:isolate" viewBox="681.818 200 30 32" width="30pt" height="32pt"><g><ellipse vector-effect="non-scaling-stroke" cx="696.8181818181818" cy="212" rx="12" ry="10" fill="rgb(251,177,16)"/><g><path d=" M 686 206.828 C 686 205.839 686.59 205.037 687.319 205.037 L 706.677 205.037 C 707.406 205.037 707.997 205.839 707.997 206.828 L 707.997 218.162 C 707.997 219.151 707.406 219.953 706.677 219.953 L 687.319 219.953 C 686.59 219.953 686 219.151 686 218.162 L 686 206.828 Z " fill="rgb(255,255,255)"/><path d=" M 686.015 206.648 C 686.015 205.738 686.559 205 687.229 205 L 706.787 205 C 707.457 205 708 205.738 708 206.648 L 708 206.7 L 686.015 206.7 L 686.015 206.648 Z " fill="rgb(251,177,16)"/><path d=" M 701.231 212.482 C 701.231 214.785 702.605 216.652 704.302 216.652 C 705.998 216.652 707.373 214.785 707.373 212.482 C 707.373 210.179 705.998 208.312 704.302 208.312 C 702.605 208.312 701.231 210.179 701.231 212.482 Z  M 686.587 212.482 C 686.587 214.785 687.963 216.652 689.659 216.652 C 691.355 216.652 692.731 214.785 692.731 212.482 C 692.731 210.179 691.355 208.312 689.659 208.312 C 687.963 208.312 686.587 210.179 686.587 212.482 Z  M 708 217.522 L 692.856 217.522 C 693.129 217.262 693.384 216.906 693.661 216.426 L 695.204 213.753 L 695.877 214.909 L 696.627 213.555 L 695.971 212.422 L 697.541 209.701 C 698.04 208.838 697.087 207.823 696.588 208.686 L 695.2 211.092 L 693.79 208.654 C 693.291 207.794 692.339 208.811 692.838 209.672 L 694.432 212.423 L 692.707 215.411 C 692.095 216.473 691.483 217.447 690.269 217.522 L 686.015 217.522 L 686.015 207.49 L 701.079 207.49 C 700.82 207.746 700.576 208.091 700.311 208.551 L 698.769 211.223 L 698.094 210.067 L 697.345 211.421 L 698.001 212.554 L 696.43 215.275 C 695.932 216.138 696.885 217.152 697.383 216.289 L 698.772 213.885 L 700.182 216.321 C 700.681 217.182 701.633 216.166 701.134 215.304 L 699.54 212.553 L 701.265 209.565 C 701.828 208.588 702.39 207.687 703.42 207.49 L 708 207.49 L 708 217.522 Z  M 702.463 212.482 C 702.463 211.103 703.286 209.986 704.302 209.986 C 705.317 209.986 706.14 211.103 706.14 212.482 C 706.14 213.861 705.317 214.978 704.302 214.978 C 703.286 214.978 702.463 213.861 702.463 212.482 Z  M 687.821 212.482 C 687.821 211.103 688.644 209.986 689.659 209.986 C 690.674 209.986 691.497 211.103 691.497 212.482 C 691.497 213.861 690.674 214.978 689.659 214.978 C 688.644 214.978 687.821 213.861 687.821 212.482 Z " fill="rgb(231,0,32)"/><path d=" M 708 218.311 L 708 218.352 C 708 219.262 707.457 220 706.787 220 L 687.229 220 C 686.559 220 686.015 219.262 686.015 218.352 L 686.015 218.311 L 708 218.311 Z " fill="rgb(251,177,16)"/></g><g><clipPath id="_clipPath_iOa4BenH5XePVI8RgRtDlnhtcEHDAy65"><rect x="681.818" y="200" width="30" height="32" transform="matrix(1,0,0,1,0,0)" fill="rgb(255,255,255)"/></clipPath><g clip-path="url(#_clipPath_iOa4BenH5XePVI8RgRtDlnhtcEHDAy65)"><g><g><g><g><path d=" M 696.818 200 C 688.534 200 681.818 205.373 681.818 212 C 681.818 214.699 682.931 217.188 684.811 219.194 L 696.818 232 L 708.825 219.194 C 710.705 217.188 711.818 214.699 711.818 212 C 711.818 205.373 705.102 200 696.818 200 Z  M 696.818 221 C 691.296 221 685.818 216.418 685.818 212 C 685.818 207.582 691.296 203 696.818 203 C 702.341 203 707.818 207.582 707.818 212 C 707.818 216.418 702.341 221 696.818 221 Z " fill="rgb(251,177,16)"/></g></g></g></g></g></g></g></svg>