<?xml version="1.0" standalone="no"?><!-- Generator: Gravit.io --><svg xmlns="http://www.w3.org/2000/svg" xmlns:xlink="http://www.w3.org/1999/xlink" style="isolation:isolate" viewBox="1380 1263 40 46" width="40" height="46"><g><g><ellipse vector-effect="non-scaling-stroke" cx="1400" cy="1279.5" rx="18" ry="15.5" fill="rgb(255,255,255)"/><g><g><mask id="_mask_ulGcygHOqvIpjbPAbzPq3g8B8KavGezh" x="-200%" y="-200%" width="400%" height="400%"><rect x="-200%" y="-200%" width="400%" height="400%" style="fill:white;"/><path d=" M 1400.126 1271.23 C 1400.126 1271.23 1394.95 1270.995 1392.358 1276.369 C 1392.358 1276.369 1390.867 1274.619 1389.635 1276.772 C 1389.635 1276.772 1387.565 1280.691 1390.027 1280.632 L 1389.831 1281.331 C 1389.831 1281.331 1389.897 1290.674 1400.191 1290.498 C 1400.191 1290.498 1411.465 1289.741 1409.516 1280.691 L 1409.329 1280.338 C 1409.329 1280.338 1411.912 1281.213 1410.812 1278.177 C 1410.812 1278.177 1410.235 1274.266 1407.12 1275.957 C 1407.12 1275.957 1406.672 1271.693 1400.452 1271.23 L 1400.126 1271.23 L 1400.126 1271.23 Z " fill-rule="evenodd" fill="black" stroke="none"/></mask><path d=" M 1400.126 1271.23 C 1400.126 1271.23 1394.95 1270.995 1392.358 1276.369 C 1392.358 1276.369 1390.867 1274.619 1389.635 1276.772 C 1389.635 1276.772 1387.565 1280.691 1390.027 1280.632 L 1389.831 1281.331 C 1389.831 1281.331 1389.897 1290.674 1400.191 1290.498 C 1400.191 1290.498 1411.465 1289.741 1409.516 1280.691 L 1409.329 1280.338 C 1409.329 1280.338 1411.912 1281.213 1410.812 1278.177 C 1410.812 1278.177 1410.235 1274.266 1407.12 1275.957 C 1407.12 1275.957 1406.672 1271.693 1400.452 1271.23 L 1400.126 1271.23 L 1400.126 1271.23 Z " fill-rule="evenodd" fill="rgb(246,222,186)" mask="url(#_mask_ulGcygHOqvIpjbPAbzPq3g8B8KavGezh)" vector-effect="non-scaling-stroke" stroke-width="0.6" stroke="rgb(0,0,0)" stroke-linejoin="miter" stroke-linecap="butt" stroke-miterlimit="2.613"/><path d=" M 1400.387 1287.932 C 1400.387 1287.932 1396.76 1287.638 1396.312 1284.896 L 1399.025 1283.256 L 1401.552 1283.197 L 1402.914 1284.19 L 1403.436 1285.182 C 1403.436 1285.182 1403.371 1287.343 1400.713 1287.873 L 1400.387 1287.932 L 1400.387 1287.932 Z  M 1396.797 1276.789 C 1396.974 1276.267 1397.477 1275.94 1397.925 1276.057 C 1398.372 1276.183 1398.587 1276.705 1398.41 1277.235 C 1398.232 1277.756 1397.729 1278.084 1397.281 1277.958 C 1396.834 1277.84 1396.62 1277.31 1396.797 1276.789 Z  M 1402.942 1276.789 C 1402.765 1276.267 1402.261 1275.94 1401.813 1276.057 C 1401.366 1276.183 1401.152 1276.705 1401.329 1277.235 C 1401.506 1277.756 1402.018 1278.084 1402.457 1277.958 C 1402.904 1277.84 1403.119 1277.31 1402.942 1276.789 Z " fill-rule="evenodd" fill="rgb(0,0,0)"/><path d=" M 1398.512 1271.751 C 1398.056 1271.81 1396.051 1272.458 1395.463 1273.274 L 1394.755 1273.854 C 1394.755 1273.854 1393.654 1274.729 1393.589 1273.274 C 1393.589 1273.274 1394.046 1270.179 1396.76 1270.002 C 1396.76 1270.002 1398.643 1269.884 1398.839 1271.348 C 1398.839 1271.348 1398.96 1271.693 1398.512 1271.751 L 1398.512 1271.751 Z  M 1402.01 1271.751 C 1402.457 1271.81 1404.471 1272.458 1405.049 1273.274 L 1405.767 1273.854 C 1405.767 1273.854 1406.868 1274.729 1406.932 1273.274 C 1406.932 1273.274 1406.475 1270.179 1403.753 1270.002 C 1403.753 1270.002 1401.878 1269.884 1401.683 1271.348 C 1401.683 1271.348 1401.552 1271.693 1402.01 1271.751 L 1402.01 1271.751 Z " fill-rule="evenodd" fill="rgb(255,255,255)" vector-effect="non-scaling-stroke" stroke-width="0.3" stroke="rgb(0,0,0)" stroke-linejoin="miter" stroke-linecap="butt" stroke-miterlimit="2.613"/><path d=" M 1395.342 1276.89 C 1395.342 1276.89 1395.463 1278.589 1396.629 1278.648 M 1404.08 1277.067 C 1404.08 1277.067 1404.602 1278.53 1402.718 1278.875" fill="none" vector-effect="non-scaling-stroke" stroke-width="0.3" stroke="rgb(0,0,0)" stroke-linejoin="miter" stroke-linecap="butt" stroke-miterlimit="2.613"/><path d=" M 1397.021 1280.22 C 1397.021 1280.22 1393.132 1283.786 1391.901 1282.146 C 1391.901 1282.146 1391.258 1281.683 1391.519 1280.868 C 1391.519 1280.868 1390.223 1283.727 1393.589 1285.182 C 1393.589 1285.182 1398.895 1286.646 1399.678 1282.558 L 1399.743 1281.331 L 1397.021 1280.22 Z  M 1403.11 1280.22 C 1403.11 1280.22 1406.998 1283.786 1408.22 1282.146 C 1408.22 1282.146 1408.873 1281.683 1408.611 1280.868 C 1408.611 1280.868 1409.908 1283.727 1406.541 1285.182 C 1406.541 1285.182 1401.226 1286.646 1400.452 1282.558 L 1400.387 1281.331 L 1403.11 1280.22 Z " fill-rule="evenodd" fill="rgb(255,255,255)" vector-effect="non-scaling-stroke" stroke-width="0.3" stroke="rgb(0,0,0)" stroke-linejoin="miter" stroke-linecap="butt" stroke-miterlimit="2.613"/><mask id="_mask_uJxVHvbkHf0wxAmKpPnSB0Mo81NX2qJn" x="-200%" y="-200%" width="400%" height="400%"><rect x="-200%" y="-200%" width="400%" height="400%" style="fill:white;"/><path d=" M 1396.629 1280.279 C 1396.629 1279.245 1398.112 1278.412 1399.939 1278.412 C 1401.758 1278.412 1403.24 1279.245 1403.24 1280.279 C 1403.24 1281.314 1401.758 1282.146 1399.939 1282.146 C 1398.112 1282.146 1396.629 1281.313 1396.629 1280.279 L 1396.629 1280.279 Z " fill-rule="evenodd" fill="black" stroke="none"/></mask><path d=" M 1396.629 1280.279 C 1396.629 1279.245 1398.112 1278.412 1399.939 1278.412 C 1401.758 1278.412 1403.24 1279.245 1403.24 1280.279 C 1403.24 1281.314 1401.758 1282.146 1399.939 1282.146 C 1398.112 1282.146 1396.629 1281.313 1396.629 1280.279 L 1396.629 1280.279 Z " fill-rule="evenodd" fill="rgb(246,222,186)" mask="url(#_mask_uJxVHvbkHf0wxAmKpPnSB0Mo81NX2qJn)" vector-effect="non-scaling-stroke" stroke-width="0.6" stroke="rgb(0,0,0)" stroke-linejoin="miter" stroke-linecap="butt" stroke-miterlimit="2.613"/><mask id="_mask_XnO9XlraVcvsYXMZOHnOwJRd2YSiczTm" x="-200%" y="-200%" width="400%" height="400%"><rect x="-200%" y="-200%" width="400%" height="400%" style="fill:white;"/><path d=" M 1396.694 1287.058 C 1396.694 1287.058 1398.056 1288.925 1400.452 1288.689 C 1400.452 1288.689 1402.392 1288.689 1403.371 1287.285" fill="black" stroke="none"/></mask><path d=" M 1396.694 1287.058 C 1396.694 1287.058 1398.056 1288.925 1400.452 1288.689 C 1400.452 1288.689 1402.392 1288.689 1403.371 1287.285" fill="none" mask="url(#_mask_XnO9XlraVcvsYXMZOHnOwJRd2YSiczTm)" vector-effect="non-scaling-stroke" stroke-width="0.6" stroke="rgb(0,0,0)" stroke-linejoin="miter" stroke-linecap="butt" stroke-miterlimit="2.613"/><path d=" M 1389.869 1278.143 C 1390.083 1277.411 1390.605 1276.915 1391.044 1277.041 C 1391.473 1277.159 1391.649 1277.849 1391.435 1278.58 C 1391.221 1279.304 1390.698 1279.8 1390.26 1279.682 C 1389.831 1279.556 1389.654 1278.866 1389.869 1278.143 Z  M 1409.87 1278.143 C 1409.656 1277.411 1409.133 1276.915 1408.704 1277.041 C 1408.267 1277.159 1408.089 1277.849 1408.304 1278.58 C 1408.518 1279.304 1409.049 1279.8 1409.479 1279.682 C 1409.908 1279.556 1410.085 1278.866 1409.87 1278.143 Z " fill-rule="evenodd" fill="rgb(0,0,0)"/><path d=" M 1392.162 1275.897 L 1391.193 1275.494 L 1387.5 1277.066 M 1392.75 1275.023 L 1391.062 1274.148 L 1388.022 1275.839 M 1393.328 1274.266 L 1390.866 1272.399 L 1388.022 1274.619 M 1407.837 1275.553 L 1408.807 1275.14 L 1412.5 1276.721 M 1406.998 1274.787 L 1408.677 1273.913 L 1411.716 1275.612 M 1406.672 1274.266 L 1409.133 1272.399 L 1411.978 1274.619" fill="none" vector-effect="non-scaling-stroke" stroke-width="0.3" stroke="rgb(0,0,0)" stroke-linejoin="miter" stroke-linecap="butt" stroke-miterlimit="2.613"/></g></g><path d=" M 1400 1263 C 1388.955 1263 1380 1270.724 1380 1280.25 C 1380 1284.13 1381.484 1287.708 1383.991 1290.591 L 1400 1309 L 1416.009 1290.591 C 1418.516 1287.708 1420 1284.13 1420 1280.25 C 1420 1270.724 1411.045 1263 1400 1263 Z  M 1400 1293.188 C 1392.637 1293.188 1385.333 1286.601 1385.333 1280.25 C 1385.333 1273.899 1392.637 1267.313 1400 1267.313 C 1407.364 1267.313 1414.667 1273.899 1414.667 1280.25 C 1414.667 1286.601 1407.364 1293.188 1400 1293.188 Z " fill="rgb(12,76,163)"/></g></g></svg>