<?xml version="1.0" encoding="UTF-8" standalone="no"?><!-- Generator: Gravit.io --><svg xmlns="http://www.w3.org/2000/svg" xmlns:xlink="http://www.w3.org/1999/xlink" style="isolation:isolate" viewBox="914 368 26 36" width="26pt" height="36pt"><g><g><g><g><g><g><path d=" M 916.912 368.703 L 937.088 368.703 C 938.334 368.703 939.354 369.814 939.354 371.172 L 939.354 393.144 C 939.354 394.502 938.334 395.613 937.088 395.613 L 930.975 395.613 L 928.988 399.455 L 927 403.297 L 925.012 399.455 L 923.025 395.613 L 916.912 395.613 C 915.666 395.613 914.646 394.502 914.646 393.144 L 914.646 371.172 C 914.646 369.814 915.666 368.703 916.912 368.703 L 916.912 368.703 Z " fill-rule="evenodd" fill="rgb(49,102,247)"/><path d=" M 937.088 368 L 916.912 368 C 915.306 368 914 369.423 914 371.172 L 914 393.144 C 914 394.893 915.307 396.316 916.912 396.316 L 922.647 396.316 L 926.437 403.642 C 926.552 403.863 926.767 404 927 404 C 927.233 404 927.448 403.863 927.563 403.642 L 931.353 396.316 L 937.088 396.316 C 938.693 396.316 940 394.893 940 393.144 L 940 371.172 C 940 369.423 938.693 368 937.088 368 L 937.088 368 Z  M 938.709 393.144 C 938.709 394.118 937.981 394.91 937.088 394.91 L 930.975 394.91 C 930.742 394.91 930.527 395.046 930.413 395.268 L 927 401.865 L 923.587 395.268 C 923.473 395.046 923.258 394.91 923.025 394.91 L 916.912 394.91 C 916.019 394.91 915.291 394.118 915.291 393.144 L 915.291 371.172 C 915.291 370.198 916.019 369.406 916.912 369.406 L 937.088 369.406 C 937.981 369.406 938.709 370.198 938.709 371.172 L 938.709 393.144 Z " fill-rule="evenodd" fill="rgb(0,0,0)"/></g></g></g></g><g><g><g><g><path d=" M 937.461 380.022 C 937.394 379.87 937.249 379.773 937.09 379.773 L 935.875 379.773 C 935.103 375.357 931.424 372 927.014 372 C 922.044 372 918 376.262 918 381.5 C 918 386.738 922.044 391 927.014 391 C 930.221 391 933.213 389.181 934.82 386.253 C 935.047 385.839 934.913 385.312 934.521 385.072 C 934.129 384.833 933.628 384.974 933.402 385.387 C 932.086 387.784 929.638 389.273 927.014 389.273 C 922.948 389.273 919.639 385.786 919.639 381.501 C 919.639 377.215 922.948 373.728 927.014 373.728 C 930.516 373.728 933.451 376.317 934.199 379.773 L 932.994 379.773 C 932.834 379.773 932.69 379.87 932.622 380.022 C 932.554 380.174 932.576 380.353 932.678 380.482 L 934.727 383.073 C 934.805 383.171 934.92 383.228 935.042 383.228 C 935.164 383.228 935.279 383.171 935.357 383.073 L 937.405 380.482 C 937.507 380.352 937.529 380.174 937.461 380.022 Z " fill="rgb(255,255,255)"/><path d=" M 927.014 374.159 C 926.561 374.159 926.195 374.546 926.195 375.023 L 926.195 380.263 C 925.824 380.537 925.58 380.988 925.58 381.501 C 925.58 382.334 926.224 383.012 927.014 383.012 C 927.231 383.012 927.435 382.958 927.619 382.866 L 930.47 384.6 C 930.599 384.679 930.739 384.716 930.879 384.716 C 931.162 384.716 931.437 384.562 931.589 384.284 C 931.815 383.872 931.681 383.343 931.289 383.105 L 928.435 381.369 C 928.397 380.912 928.172 380.513 927.834 380.264 L 927.834 375.023 C 927.833 374.546 927.466 374.159 927.014 374.159 Z  M 927.014 382.148 C 926.675 382.148 926.399 381.857 926.399 381.501 C 926.399 381.144 926.675 380.853 927.014 380.853 C 927.352 380.853 927.628 381.144 927.628 381.501 C 927.628 381.857 927.352 382.148 927.014 382.148 Z " fill="rgb(255,255,255)"/></g></g></g></g></g></g></svg>