<?xml version="1.0" standalone="no"?><!-- Generator: Gravit.io --><svg xmlns="http://www.w3.org/2000/svg" xmlns:xlink="http://www.w3.org/1999/xlink" style="isolation:isolate" viewBox="425 696 30 32" width="30" height="32"><defs><clipPath id="_clipPath_MIdivadJSUZXw2RkZe1stw24RjsT4cwN"><rect x="425" y="696" width="30" height="32"/></clipPath></defs><g clip-path="url(#_clipPath_MIdivadJSUZXw2RkZe1stw24RjsT4cwN)"><g><g><path d=" M 440 696 C 431.716 696 425 701.373 425 708 C 425 710.699 426.113 713.188 427.993 715.194 L 440 728 L 452.007 715.194 C 453.887 713.188 455 710.699 455 708 C 455 701.373 448.284 696 440 696 Z  M 440 718 C 434.478 718 429 712.418 429 708 C 429 703.582 434.478 699 440 699 C 445.523 699 451 703.582 451 708 C 451 712.418 445.523 718 440 718 Z " fill="rgb(139,139,139)"/></g></g><g><path d=" M 435.029 706.383 C 435.296 706.075 435.602 706.04 435.984 706.246 C 437.081 706.829 438.208 707.377 439.305 707.968 C 439.945 708.311 439.945 708.68 439.305 709.022 C 438.208 709.614 437.081 710.162 435.974 710.736 C 435.611 710.925 435.287 710.959 435.02 710.616 C 435.029 709.202 435.029 707.797 435.029 706.383 Z " fill="rgb(151,105,164)"/><path d=" M 435.65 701.027 C 436.824 701.636 437.998 702.236 439.172 702.853 C 440.002 703.29 440.002 703.589 439.153 704.027 C 438.112 704.566 437.072 705.098 436.031 705.638 C 435.65 705.835 435.306 705.92 435.02 705.526 C 435.02 704.215 435.048 702.895 435 701.584 C 434.991 701.113 435.115 700.924 435.65 701.027 Z " fill="rgb(245,180,60)"/><path d=" M 435.029 711.456 C 435.287 711.139 435.583 711.088 435.965 711.293 C 437.081 711.885 438.227 712.442 439.344 713.041 C 439.974 713.376 439.955 713.718 439.296 714.078 C 438.093 714.721 436.871 715.338 435.659 715.972 C 435.125 716.075 435 715.895 435.02 715.407 C 435.058 714.087 435.029 712.776 435.029 711.456 Z " fill="rgb(211,25,106)"/><path d=" M 439.926 705.8 C 439.926 705.218 439.897 704.626 439.935 704.044 C 439.974 703.461 440.298 703.298 440.871 703.581 C 442.007 704.146 443.143 704.729 444.26 705.329 C 444.88 705.663 444.87 705.98 444.26 706.315 C 443.143 706.914 442.016 707.497 440.88 708.063 C 440.279 708.363 439.955 708.183 439.926 707.548 C 439.897 706.966 439.916 706.375 439.916 705.792 C 439.916 705.8 439.926 705.8 439.926 705.8 Z " fill="rgb(55,181,223)"/><path d=" M 445.224 708.491 C 445.224 707.908 445.205 707.317 445.233 706.734 C 445.262 706.126 445.558 705.963 446.14 706.246 C 447.295 706.82 448.44 707.411 449.576 708.028 C 450.149 708.337 450.14 708.645 449.557 708.962 C 448.421 709.579 447.266 710.171 446.111 710.745 C 445.529 711.028 445.252 710.865 445.224 710.239 C 445.205 709.657 445.224 709.074 445.224 708.491 Z " fill="rgb(219,30,53)"/><path d=" M 440.021 710.916 C 440.021 710.359 440.021 709.794 440.021 709.237 C 440.021 708.688 440.317 708.474 440.861 708.731 C 442.074 709.322 443.267 709.939 444.45 710.573 C 444.899 710.813 444.861 711.173 444.422 711.413 C 443.238 712.056 442.055 712.682 440.842 713.273 C 440.355 713.513 440.031 713.333 440.021 712.81 C 440.021 712.184 440.021 711.55 440.021 710.916 Z " fill="rgb(191,205,48)"/></g></g></svg>