<?xml version="1.0" standalone="no"?><!-- Generator: Gravit.io --><svg xmlns="http://www.w3.org/2000/svg" xmlns:xlink="http://www.w3.org/1999/xlink" style="isolation:isolate" viewBox="305 616 26 36" width="26" height="36"><g><g><g><g><path d=" M 307.912 616.703 L 328.088 616.703 C 329.334 616.703 330.354 617.814 330.354 619.172 L 330.354 641.144 C 330.354 642.502 329.334 643.613 328.088 643.613 L 321.975 643.613 L 319.988 647.455 L 318 651.297 L 316.012 647.455 L 314.025 643.613 L 307.912 643.613 C 306.666 643.613 305.646 642.502 305.646 641.144 L 305.646 619.172 C 305.646 617.814 306.666 616.703 307.912 616.703 L 307.912 616.703 Z " fill-rule="evenodd" fill="rgb(255,255,255)"/><path d=" M 328.088 616 L 307.912 616 C 306.306 616 305 617.423 305 619.172 L 305 641.144 C 305 642.893 306.307 644.316 307.912 644.316 L 313.647 644.316 L 317.437 651.642 C 317.552 651.863 317.767 652 318 652 C 318.233 652 318.448 651.863 318.563 651.642 L 322.353 644.316 L 328.088 644.316 C 329.693 644.316 331 642.893 331 641.144 L 331 619.172 C 331 617.423 329.693 616 328.088 616 L 328.088 616 Z  M 329.709 641.144 C 329.709 642.118 328.981 642.91 328.088 642.91 L 321.975 642.91 C 321.742 642.91 321.527 643.046 321.413 643.268 L 318 649.865 L 314.587 643.268 C 314.473 643.046 314.258 642.91 314.025 642.91 L 307.912 642.91 C 307.019 642.91 306.291 642.118 306.291 641.144 L 306.291 619.172 C 306.291 618.198 307.019 617.406 307.912 617.406 L 328.088 617.406 C 328.981 617.406 329.709 618.198 329.709 619.172 L 329.709 641.144 Z " fill-rule="evenodd" fill="rgb(255,93,44)"/></g></g><g><g><g><circle vector-effect="non-scaling-stroke" cx="317.9999999999998" cy="620.4999999999999" r="2" fill="rgb(255,93,44)"/><path d=" M 324.491 631.014 C 323.898 624.974 320.721 623.769 320.721 623.769 C 320.721 623.769 317.651 622.097 314.419 624.227 C 312.324 625.955 311.84 628.593 311.509 631.141 C 311.341 632.435 313.576 632.42 313.742 631.141 C 313.94 629.62 314.222 628.092 315.055 626.792 L 315.051 628.259 L 315.036 635.314 L 315.036 640.91 C 315.036 641.512 315.523 642 316.206 642 C 316.889 642 317.444 641.512 317.444 640.91 L 317.444 632.911 L 318.537 632.911 C 318.537 634.785 318.537 639.062 318.537 640.936 C 318.537 642.241 320.77 642.241 320.77 640.936 C 320.77 639.062 320.77 637.187 320.77 635.313 L 320.865 628.245 C 320.866 627.571 320.867 626.968 320.867 626.548 C 321.759 627.873 322.054 629.447 322.257 631.013 C 322.424 632.293 324.659 632.309 324.491 631.014 Z " fill="rgb(255,93,44)"/></g></g></g></g></g></svg>