<?xml version="1.0" encoding="UTF-8" standalone="no"?><!-- Generator: Gravit.io --><svg xmlns="http://www.w3.org/2000/svg" xmlns:xlink="http://www.w3.org/1999/xlink" style="isolation:isolate" viewBox="312 331 26 36" width="26pt" height="36pt"><g><g><g><g><path d=" M 314.912 331.703 L 335.088 331.703 C 336.334 331.703 337.354 332.814 337.354 334.172 L 337.354 356.144 C 337.354 357.502 336.334 358.613 335.088 358.613 L 328.975 358.613 L 326.988 362.455 L 325 366.297 L 323.012 362.455 L 321.025 358.613 L 314.912 358.613 C 313.666 358.613 312.646 357.502 312.646 356.144 L 312.646 334.172 C 312.646 332.814 313.666 331.703 314.912 331.703 L 314.912 331.703 Z " fill-rule="evenodd" fill="rgb(139,35,208)"/><path d=" M 335.088 331 L 314.912 331 C 313.306 331 312 332.423 312 334.172 L 312 356.144 C 312 357.893 313.307 359.316 314.912 359.316 L 320.647 359.316 L 324.437 366.642 C 324.552 366.863 324.767 367 325 367 C 325.233 367 325.448 366.863 325.563 366.642 L 329.353 359.316 L 335.088 359.316 C 336.693 359.316 338 357.893 338 356.144 L 338 334.172 C 338 332.423 336.693 331 335.088 331 L 335.088 331 Z  M 336.709 356.144 C 336.709 357.118 335.981 357.91 335.088 357.91 L 328.975 357.91 C 328.742 357.91 328.527 358.046 328.413 358.268 L 325 364.865 L 321.587 358.268 C 321.473 358.046 321.258 357.91 321.025 357.91 L 314.912 357.91 C 314.019 357.91 313.291 357.118 313.291 356.144 L 313.291 334.172 C 313.291 333.198 314.019 332.406 314.912 332.406 L 335.088 332.406 C 335.981 332.406 336.709 333.198 336.709 334.172 L 336.709 356.144 Z " fill-rule="evenodd" fill="rgb(139,35,208)"/></g></g><g><g><g><circle vector-effect="non-scaling-stroke" cx="324.9999999999998" cy="335.4999999999999" r="2" fill="rgb(255,255,255)"/><path d=" M 331.491 346.014 C 330.898 339.974 327.721 338.769 327.721 338.769 C 327.721 338.769 324.651 337.097 321.419 339.227 C 319.324 340.955 318.84 343.593 318.509 346.141 C 318.341 347.435 320.576 347.42 320.742 346.141 C 320.94 344.62 321.222 343.092 322.055 341.792 L 322.051 343.259 L 322.036 350.314 L 322.036 355.91 C 322.036 356.512 322.523 357 323.206 357 C 323.889 357 324.444 356.512 324.444 355.91 L 324.444 347.911 L 325.537 347.911 C 325.537 349.785 325.537 354.062 325.537 355.936 C 325.537 357.241 327.77 357.241 327.77 355.936 C 327.77 354.062 327.77 352.187 327.77 350.313 L 327.865 343.245 C 327.866 342.571 327.867 341.968 327.867 341.548 C 328.759 342.873 329.054 344.447 329.257 346.013 C 329.424 347.293 331.659 347.309 331.491 346.014 Z " fill="rgb(255,255,255)"/></g></g></g></g></g></svg>