<?xml version="1.0" standalone="no"?><!-- Generator: Gravit.io --><svg xmlns="http://www.w3.org/2000/svg" xmlns:xlink="http://www.w3.org/1999/xlink" style="isolation:isolate" viewBox="306 617 26 36" width="26" height="36"><g><g><g><path d=" M 308.912 617.703 L 329.088 617.703 C 330.334 617.703 331.354 618.814 331.354 620.172 L 331.354 642.144 C 331.354 643.502 330.334 644.613 329.088 644.613 L 322.975 644.613 L 320.988 648.455 L 319 652.297 L 317.012 648.455 L 315.025 644.613 L 308.912 644.613 C 307.666 644.613 306.646 643.502 306.646 642.144 L 306.646 620.172 C 306.646 618.814 307.666 617.703 308.912 617.703 L 308.912 617.703 Z " fill-rule="evenodd" fill="rgb(255,93,44)"/><path d=" M 329.088 617 L 308.912 617 C 307.306 617 306 618.423 306 620.172 L 306 642.144 C 306 643.893 307.307 645.316 308.912 645.316 L 314.647 645.316 L 318.437 652.642 C 318.552 652.863 318.767 653 319 653 C 319.233 653 319.448 652.863 319.563 652.642 L 323.353 645.316 L 329.088 645.316 C 330.693 645.316 332 643.893 332 642.144 L 332 620.172 C 332 618.423 330.693 617 329.088 617 L 329.088 617 Z  M 330.709 642.144 C 330.709 643.118 329.981 643.91 329.088 643.91 L 322.975 643.91 C 322.742 643.91 322.527 644.046 322.413 644.268 L 319 650.865 L 315.587 644.268 C 315.473 644.046 315.258 643.91 315.025 643.91 L 308.912 643.91 C 308.019 643.91 307.291 643.118 307.291 642.144 L 307.291 620.172 C 307.291 619.198 308.019 618.406 308.912 618.406 L 329.088 618.406 C 329.981 618.406 330.709 619.198 330.709 620.172 L 330.709 642.144 Z " fill-rule="evenodd" fill="rgb(215,53,8)"/></g></g><g><g><g><circle vector-effect="non-scaling-stroke" cx="318.99999999999983" cy="621.5" r="2" fill="rgb(255,255,255)"/><path d=" M 325.491 632.014 C 324.898 625.974 321.721 624.769 321.721 624.769 C 321.721 624.769 318.651 623.097 315.419 625.227 C 313.324 626.955 312.84 629.593 312.509 632.141 C 312.341 633.435 314.576 633.42 314.742 632.141 C 314.94 630.62 315.222 629.092 316.055 627.792 L 316.051 629.259 L 316.036 636.314 L 316.036 641.91 C 316.036 642.512 316.523 643 317.206 643 C 317.889 643 318.444 642.512 318.444 641.91 L 318.444 633.911 L 319.537 633.911 C 319.537 635.785 319.537 640.062 319.537 641.936 C 319.537 643.241 321.77 643.241 321.77 641.936 C 321.77 640.062 321.77 638.187 321.77 636.313 L 321.865 629.245 C 321.866 628.571 321.867 627.968 321.867 627.548 C 322.759 628.873 323.054 630.447 323.257 632.013 C 323.424 633.293 325.659 633.309 325.491 632.014 Z " fill="rgb(255,255,255)"/></g></g></g></g></svg>