<?xml version="1.0" standalone="no"?><!-- Generator: Gravit.io --><svg xmlns="http://www.w3.org/2000/svg" xmlns:xlink="http://www.w3.org/1999/xlink" style="isolation:isolate" viewBox="425 696 30 32" width="30" height="32"><defs><clipPath id="_clipPath_h8aX7rUM8lL20odezXlPN4ek2vXNG1ng"><rect x="425" y="696" width="30" height="32"/></clipPath></defs><g clip-path="url(#_clipPath_h8aX7rUM8lL20odezXlPN4ek2vXNG1ng)"><g><g><path d=" M 440 696 C 431.716 696 425 701.373 425 708 C 425 710.699 426.113 713.188 427.993 715.194 L 440 728 L 452.007 715.194 C 453.887 713.188 455 710.699 455 708 C 455 701.373 448.284 696 440 696 Z  M 440 718 C 434.478 718 429 712.418 429 708 C 429 703.582 434.478 699 440 699 C 445.523 699 451 703.582 451 708 C 451 712.418 445.523 718 440 718 Z " fill="rgb(156,51,145)"/></g></g><g><path d=" M 431.5 709.714 L 433.928 709.714 L 433.928 707.285 L 431.5 707.285 L 431.5 709.714 Z " fill="rgb(238,240,240)"/><path d=" M 433.929 709.714 L 436.357 709.714 L 436.357 707.285 L 433.929 707.285 L 433.929 709.714 Z " fill="rgb(215,166,204)"/><path d=" M 436.357 707.285 L 438.785 707.285 L 438.785 704.857 L 436.357 704.857 L 436.357 707.285 Z " fill="rgb(179,212,240)"/><path d=" M 436.357 709.714 L 438.785 709.714 L 438.785 707.285 L 436.357 707.285 L 436.357 709.714 Z " fill="rgb(156,51,145)"/><path d=" M 436.357 712.142 L 438.785 712.142 L 438.785 709.714 L 436.357 709.714 L 436.357 712.142 Z " fill="rgb(215,166,204)"/><path d=" M 438.786 702.428 L 441.214 702.428 L 441.214 700 L 438.786 700 L 438.786 702.428 Z " fill="rgb(238,240,240)"/><path d=" M 438.786 704.857 L 441.214 704.857 L 441.214 702.428 L 438.786 702.428 L 438.786 704.857 Z " fill="rgb(179,212,240)"/><path d=" M 438.786 707.285 L 441.214 707.285 L 441.214 704.857 L 438.786 704.857 L 438.786 707.285 Z " fill="rgb(107,171,222)"/><path d=" M 438.786 709.714 L 441.214 709.714 L 441.214 707.285 L 438.786 707.285 L 438.786 709.714 Z " fill="rgb(0,0,0)"/><path d=" M 438.786 712.142 L 441.214 712.142 L 441.214 709.714 L 438.786 709.714 L 438.786 712.142 Z " fill="rgb(156,51,145)"/><path d=" M 438.786 714.571 L 441.214 714.571 L 441.214 712.143 L 438.786 712.143 L 438.786 714.571 Z " fill="rgb(215,166,204)"/><path d=" M 438.786 717 L 441.214 717 L 441.214 714.572 L 438.786 714.572 L 438.786 717 Z " fill="rgb(238,240,240)"/><path d=" M 441.215 707.285 L 443.643 707.285 L 443.643 704.857 L 441.215 704.857 L 441.215 707.285 Z " fill="rgb(179,212,240)"/><path d=" M 441.215 709.714 L 443.643 709.714 L 443.643 707.285 L 441.215 707.285 L 441.215 709.714 Z " fill="rgb(140,197,64)"/><path d=" M 441.215 712.142 L 443.643 712.142 L 443.643 709.714 L 441.215 709.714 L 441.215 712.142 Z " fill="rgb(217,232,161)"/><path d=" M 443.643 709.714 L 446.07 709.714 L 446.07 707.285 L 443.643 707.285 L 443.643 709.714 Z " fill="rgb(217,232,161)"/><path d=" M 446.072 709.714 L 448.5 709.714 L 448.5 707.285 L 446.072 707.285 L 446.072 709.714 Z " fill="rgb(238,240,240)"/></g></g></svg>