<?xml version="1.0" encoding="UTF-8" standalone="no"?><!-- Generator: Gravit.io --><svg xmlns="http://www.w3.org/2000/svg" xmlns:xlink="http://www.w3.org/1999/xlink" style="isolation:isolate" viewBox="1567 881 30 32" width="30pt" height="32pt"><g><g><clipPath id="_clipPath_6MzdHIzHGhUtJvns4nmlqTMHcLUlGuzz"><rect x="1567" y="881" width="30" height="32" transform="matrix(1,0,0,1,0,0)" fill="rgb(255,255,255)"/></clipPath><g clip-path="url(#_clipPath_6MzdHIzHGhUtJvns4nmlqTMHcLUlGuzz)"><g><g><g><path d=" M 1582 881 C 1573.716 881 1567 886.373 1567 893 C 1567 895.699 1568.113 898.188 1569.993 900.194 L 1582 913 L 1594.007 900.194 C 1595.887 898.188 1597 895.699 1597 893 C 1597 886.373 1590.284 881 1582 881 Z  M 1582 902 C 1576.478 902 1571 897.418 1571 893 C 1571 888.582 1576.478 884 1582 884 C 1587.523 884 1593 888.582 1593 893 C 1593 897.418 1587.523 902 1582 902 Z " fill="rgb(0,166,81)"/></g></g></g></g><g><g><g><g><g><g><path d=" M 1570 893 C 1570 897.97 1575.374 902 1582 902 L 1582 902 C 1588.626 902 1594 897.97 1594 893 L 1594 893 C 1594 888.03 1588.626 884 1582 884 L 1582 884 C 1575.374 884 1570 888.03 1570 893" fill="rgb(227,29,36)"/></g></g></g></g><g><g><path d=" M 1576.355 888.686 L 1576.461 889.575 C 1576.915 889.446 1577.364 889.341 1577.741 889.467 C 1578.521 889.729 1578.607 890.835 1578.745 891.601 L 1579.872 897.86 C 1579.997 898.551 1580.398 899.589 1579.62 899.922 L 1578.875 900.245 L 1578.946 900.811 L 1586.897 898.386 L 1586.684 897.942 C 1586.173 898.058 1585.726 897.973 1585.447 897.398 C 1585.354 897.206 1585.28 896.96 1585.228 896.648 C 1585.129 896.161 1585.031 895.675 1584.934 895.188 C 1584.258 891.781 1583.652 888.374 1583.205 884.967 C 1581.232 886.51 1578.99 887.79 1576.355 888.686 Z " fill-rule="evenodd" fill="rgb(255,213,2)"/></g><g><path d=" M 1571.353 890.643 C 1571.218 890.055 1572.336 890.219 1572.592 890.495 C 1572.638 890.544 1572.664 890.594 1572.669 890.643 L 1572.743 893.398 C 1572.769 893.759 1573.11 893.645 1573.125 893.368 C 1573.131 893.269 1573.146 893.17 1573.156 893.072 C 1573.221 892.444 1573.327 891.819 1573.444 891.201 C 1573.472 891.047 1573.519 890.904 1573.614 890.802 C 1573.754 890.652 1573.93 890.709 1574.104 890.748 C 1574.218 890.774 1574.336 890.81 1574.455 890.853 C 1574.761 890.964 1574.735 891.215 1574.741 891.511 L 1574.806 893.393 C 1574.818 893.722 1575.114 893.818 1575.187 893.425 L 1575.648 890.945 C 1575.699 890.67 1575.735 890.368 1575.959 890.195 C 1576.042 890.132 1576.142 890.103 1576.265 890.12 L 1576.588 890.227 C 1576.76 890.284 1576.872 890.352 1576.89 890.587 C 1576.914 890.906 1576.728 891.386 1576.661 891.707 L 1575.824 895.707 C 1575.788 895.878 1575.778 896.076 1575.599 896.129 C 1575.439 896.175 1575.264 896.104 1575.11 896.06 L 1574.566 895.906 C 1574.397 895.854 1574.269 895.753 1574.235 895.546 L 1574.19 894.04 C 1574.185 893.853 1574.2 893.621 1573.965 893.621 C 1573.767 893.621 1573.755 893.857 1573.729 894.018 L 1573.388 896.097 C 1573.29 896.149 1573.156 896.172 1572.991 896.17 C 1572.581 896.168 1571.954 896.1 1571.919 895.487 L 1571.353 890.643 Z " fill-rule="evenodd" fill="rgb(0,168,90)"/></g><g><path d=" M 1578.525 894.796 C 1578.487 894.481 1578.122 894.544 1577.79 894.787 C 1577.69 894.86 1577.65 894.886 1577.624 895.017 C 1577.586 895.211 1577.648 895.326 1577.791 895.418 C 1577.946 895.517 1578.134 895.544 1578.366 895.477 C 1578.43 895.468 1578.49 895.451 1578.52 895.384 L 1578.525 894.796 Z  M 1577.123 893.562 C 1577.306 893.622 1577.508 893.619 1577.728 893.554 C 1577.774 893.387 1577.83 893.221 1577.927 893.065 C 1578.044 892.878 1578.189 892.651 1578.406 892.774 C 1578.472 892.812 1578.521 892.925 1578.552 893.024 L 1578.539 893.781 C 1578.166 893.832 1577.839 893.907 1577.588 894.022 C 1577.293 894.158 1576.936 894.54 1576.883 894.915 C 1576.807 895.452 1577.259 896.025 1577.691 896.168 C 1577.852 896.221 1578.04 896.181 1578.233 896.083 C 1578.575 895.996 1578.597 896.108 1578.619 896.265 L 1579.443 896.295 C 1579.521 896.252 1579.576 896.199 1579.609 896.136 C 1579.711 895.943 1579.644 895.471 1579.645 895.25 L 1579.653 893.342 C 1579.656 892.669 1579.578 892.501 1579.033 892.161 C 1578.601 891.891 1578.073 891.734 1577.648 892.048 C 1577.517 892.144 1577.431 892.295 1577.369 892.464 L 1577.094 893.072 C 1576.971 893.343 1576.809 893.459 1577.123 893.562 Z " fill-rule="evenodd" fill="rgb(0,168,90)"/></g><g><path d=" M 1580.678 890.273 L 1580.538 895.227 C 1580.528 895.57 1580.459 895.775 1580.7 896.016 C 1580.896 896.212 1581.102 896.222 1581.317 896.044 C 1581.389 895.985 1581.462 895.905 1581.536 895.804 L 1581.563 895.205 L 1581.758 890.85 C 1581.782 890.324 1581.886 890.176 1581.477 889.888 C 1581.047 889.586 1580.724 889.578 1580.678 890.273 Z " fill-rule="evenodd" fill="rgb(0,168,90)"/></g><g><path d=" M 1591.615 892.976 C 1591.817 893.264 1592.173 893.157 1592.357 893.024 C 1592.359 892.857 1592.372 892.67 1592.327 892.504 C 1592.178 891.959 1591.928 891.708 1591.421 891.61 C 1590.977 891.524 1590.596 891.678 1590.298 892.06 C 1590.257 892.113 1590.22 892.169 1590.188 892.231 C 1590.004 892.584 1589.969 893.419 1590.215 893.72 C 1590.399 893.943 1590.781 894.097 1591.047 894.329 C 1591.212 894.473 1591.28 894.662 1591.183 894.913 C 1591.018 895.339 1590.506 894.81 1590.366 894.61 C 1590.213 894.608 1590.098 894.641 1590.019 894.708 C 1589.79 894.903 1589.918 895.04 1590.071 895.187 L 1590.229 895.338 C 1590.494 895.593 1590.653 895.691 1591.018 895.709 C 1591.161 895.716 1591.311 895.704 1591.47 895.666 C 1591.603 895.598 1591.726 895.51 1591.84 895.401 C 1591.904 895.339 1591.971 895.255 1592.034 895.166 C 1592.155 894.995 1592.219 894.874 1592.229 894.647 C 1592.264 893.878 1590.928 893.675 1590.812 892.927 C 1590.778 892.707 1590.868 892.474 1591.038 892.295 C 1591.158 892.169 1591.461 892.196 1591.568 892.426 C 1591.628 892.553 1591.644 892.758 1591.615 892.976 Z " fill-rule="evenodd" fill="rgb(0,168,90)"/></g><g><path d=" M 1571.353 890.643 C 1571.218 890.055 1572.336 890.219 1572.592 890.495 C 1572.638 890.544 1572.664 890.594 1572.669 890.643 L 1572.743 893.398 C 1572.769 893.759 1573.11 893.645 1573.125 893.368 C 1573.131 893.269 1573.146 893.17 1573.156 893.072 C 1573.221 892.444 1573.327 891.819 1573.444 891.201 C 1573.472 891.047 1573.519 890.904 1573.614 890.802 C 1573.754 890.652 1573.93 890.709 1574.104 890.748 C 1574.218 890.774 1574.336 890.81 1574.455 890.853 C 1574.761 890.964 1574.735 891.215 1574.741 891.511 L 1574.806 893.393 C 1574.818 893.722 1575.114 893.818 1575.187 893.425 L 1575.648 890.945 C 1575.699 890.67 1575.735 890.368 1575.959 890.195 C 1576.042 890.132 1576.142 890.103 1576.265 890.12 L 1576.588 890.227 C 1576.76 890.284 1576.872 890.352 1576.89 890.587 C 1576.914 890.906 1576.728 891.386 1576.661 891.707 L 1575.824 895.707 C 1575.788 895.878 1575.778 896.076 1575.599 896.129 C 1575.439 896.175 1575.264 896.104 1575.11 896.06 L 1574.566 895.906 C 1574.397 895.854 1574.269 895.753 1574.235 895.546 L 1574.19 894.04 C 1574.185 893.853 1574.2 893.621 1573.965 893.621 C 1573.767 893.621 1573.755 893.857 1573.729 894.018 L 1573.388 896.097 C 1573.29 896.149 1573.156 896.172 1572.991 896.17 C 1572.581 896.168 1571.954 896.1 1571.919 895.487 L 1571.353 890.643 Z " fill-rule="evenodd" fill="rgb(255,255,255)"/></g><g><path d=" M 1578.525 894.796 C 1578.487 894.481 1578.122 894.544 1577.79 894.787 C 1577.69 894.86 1577.65 894.886 1577.624 895.017 C 1577.586 895.211 1577.648 895.326 1577.791 895.418 C 1577.946 895.517 1578.134 895.544 1578.366 895.477 C 1578.43 895.468 1578.49 895.451 1578.52 895.384 L 1578.525 894.796 Z  M 1577.123 893.562 C 1577.306 893.622 1577.508 893.619 1577.728 893.554 C 1577.774 893.387 1577.83 893.221 1577.927 893.065 C 1578.044 892.878 1578.189 892.651 1578.406 892.774 C 1578.472 892.812 1578.521 892.925 1578.552 893.024 L 1578.539 893.781 C 1578.166 893.832 1577.839 893.907 1577.588 894.022 C 1577.293 894.158 1576.936 894.54 1576.883 894.915 C 1576.807 895.452 1577.259 896.025 1577.691 896.168 C 1577.852 896.221 1578.04 896.181 1578.233 896.083 C 1578.575 895.996 1578.597 896.108 1578.619 896.265 L 1579.443 896.295 C 1579.521 896.252 1579.576 896.199 1579.609 896.136 C 1579.711 895.943 1579.644 895.471 1579.645 895.25 L 1579.653 893.342 C 1579.656 892.669 1579.578 892.501 1579.033 892.161 C 1578.601 891.891 1578.073 891.734 1577.648 892.048 C 1577.517 892.144 1577.431 892.295 1577.369 892.464 L 1577.094 893.072 C 1576.971 893.343 1576.809 893.459 1577.123 893.562 Z " fill-rule="evenodd" fill="rgb(255,255,255)"/></g><g><path d=" M 1580.678 890.273 L 1580.538 895.227 C 1580.528 895.57 1580.459 895.775 1580.7 896.016 C 1580.896 896.212 1581.102 896.222 1581.317 896.044 C 1581.389 895.985 1581.462 895.905 1581.536 895.804 L 1581.563 895.205 L 1581.758 890.85 C 1581.782 890.324 1581.886 890.176 1581.477 889.888 C 1581.047 889.586 1580.724 889.578 1580.678 890.273 Z " fill-rule="evenodd" fill="rgb(255,255,255)"/></g><g><path d=" M 1583.282 893.206 C 1583.144 893.541 1583.049 893.881 1582.988 894.225 C 1582.936 894.524 1582.858 894.978 1583.092 895.204 C 1583.311 895.414 1583.613 895.265 1583.799 895.086 C 1583.927 894.962 1584.036 894.809 1584.126 894.626 C 1584.363 894.14 1584.457 893.562 1584.313 893.025 C 1584.234 892.732 1584.062 892.47 1583.756 892.545 C 1583.508 892.606 1583.379 892.972 1583.282 893.206 Z  M 1584.228 890.228 L 1584.178 892.005 C 1584.087 892.069 1583.983 892.125 1583.807 891.946 C 1583.584 891.818 1583.36 891.816 1583.136 891.939 C 1582.742 892.26 1582.473 892.676 1582.308 893.168 C 1582.095 893.803 1582.01 894.538 1582.267 895.172 C 1582.295 895.241 1582.327 895.308 1582.363 895.373 C 1582.582 895.773 1582.844 896.008 1583.268 895.997 C 1583.575 895.989 1583.631 895.873 1583.819 895.649 C 1583.91 895.542 1583.995 895.473 1584.073 895.459 C 1584.065 895.652 1584.082 895.803 1584.25 895.972 C 1584.447 896.168 1584.652 896.177 1584.868 896 C 1584.94 895.941 1585.013 895.861 1585.087 895.76 L 1585.113 895.16 L 1585.308 890.805 C 1585.332 890.28 1585.436 890.131 1585.027 889.844 C 1584.597 889.541 1584.275 889.534 1584.228 890.228 Z " fill-rule="evenodd" fill="rgb(255,255,255)"/></g><g><path d=" M 1586.688 893.583 C 1586.576 894.021 1586.391 895.256 1586.952 895.443 C 1587.18 895.519 1587.37 895.305 1587.485 895.111 C 1587.58 894.95 1587.656 894.752 1587.71 894.516 C 1587.841 893.955 1587.941 893.213 1587.658 892.697 C 1587.567 892.531 1587.472 892.455 1587.373 892.469 C 1587.069 892.514 1586.758 893.306 1586.688 893.583 Z  M 1586.238 892.361 C 1586.347 892.155 1586.482 891.985 1586.662 891.879 C 1586.77 891.815 1586.894 891.774 1587.037 891.761 C 1587.416 891.846 1587.75 891.978 1588.013 892.183 C 1588.275 892.389 1588.466 892.668 1588.559 893.05 C 1588.618 893.361 1588.637 893.679 1588.618 894.005 C 1588.598 894.331 1588.54 894.664 1588.442 895.004 C 1588.321 895.271 1588.176 895.491 1588.006 895.664 C 1587.874 895.798 1587.726 895.904 1587.564 895.982 C 1587.35 895.993 1587.135 895.974 1586.92 895.926 C 1586.497 895.831 1586.174 895.706 1585.955 895.26 C 1585.809 894.963 1585.822 894.664 1585.833 894.337 C 1585.859 893.554 1585.983 892.883 1586.238 892.361 Z " fill-rule="evenodd" fill="rgb(255,255,255)"/></g><g><path d=" M 1589.159 889.575 L 1588.993 891.266 L 1588.968 891.523 C 1588.938 891.707 1589.028 892.005 1589.587 891.896 C 1589.66 891.881 1589.736 891.859 1589.813 891.828 L 1589.861 891.599 L 1590.212 889.928 C 1590.254 889.726 1590.363 889.681 1589.967 889.52 C 1589.55 889.351 1589.23 889.31 1589.159 889.575 Z " fill-rule="evenodd" fill="rgb(255,255,255)"/></g><g><path d=" M 1591.615 892.976 C 1591.817 893.264 1592.173 893.157 1592.357 893.024 C 1592.359 892.857 1592.372 892.67 1592.327 892.504 C 1592.178 891.959 1591.928 891.708 1591.421 891.61 C 1590.977 891.524 1590.596 891.678 1590.298 892.06 C 1590.257 892.113 1590.22 892.169 1590.188 892.231 C 1590.004 892.584 1589.969 893.419 1590.215 893.72 C 1590.399 893.943 1590.781 894.097 1591.047 894.329 C 1591.212 894.473 1591.28 894.662 1591.183 894.913 C 1591.018 895.339 1590.506 894.81 1590.366 894.61 C 1590.213 894.608 1590.098 894.641 1590.019 894.708 C 1589.79 894.903 1589.918 895.04 1590.071 895.187 L 1590.229 895.338 C 1590.494 895.593 1590.653 895.691 1591.018 895.709 C 1591.161 895.716 1591.311 895.704 1591.47 895.666 C 1591.603 895.598 1591.726 895.51 1591.84 895.401 C 1591.904 895.339 1591.971 895.255 1592.034 895.166 C 1592.155 894.995 1592.219 894.874 1592.229 894.647 C 1592.264 893.878 1590.928 893.675 1590.812 892.927 C 1590.778 892.707 1590.868 892.474 1591.038 892.295 C 1591.158 892.169 1591.461 892.196 1591.568 892.426 C 1591.628 892.553 1591.644 892.758 1591.615 892.976 Z " fill-rule="evenodd" fill="rgb(255,255,255)"/></g></g><g><clipPath id="_clipPath_xcsJcGEyMgFO3fftzkMkWmiAPFhh8WHE"><path d=" M 1577.2 886.193 C 1577.2 887.385 1579.219 888.351 1581.71 888.351 L 1581.71 888.351 C 1584.2 888.351 1586.219 887.385 1586.219 886.193 L 1586.219 886.193 C 1586.219 885.002 1584.2 884.036 1581.71 884.036 L 1581.71 884.036 C 1579.219 884.036 1577.2 885.002 1577.2 886.193" fill="rgb(255,255,255)"/></clipPath><g clip-path="url(#_clipPath_xcsJcGEyMgFO3fftzkMkWmiAPFhh8WHE)"><g><g><linearGradient id="_lgradient_0" x1="0.5048793553063249" y1="0.5098610609597924" x2="0.5048793552300298" y2="0.508123847901383" gradientTransform="matrix(3023.105,0,0,-3442.544,55.407,2639.464)" gradientUnits="userSpaceOnUse"><stop offset="0%" stop-opacity="1" style="stop-color:rgb(255,255,255)"/><stop offset="35.824189000000004%" stop-opacity="0" style="stop-color:rgb(255,255,255)"/><stop offset="100%" stop-opacity="0" style="stop-color:rgb(255,255,255)"/></linearGradient><path d=" M 55.407 -803.079 L 3078.511 -803.079 L 3078.511 2639.464 L 55.407 2639.464 L 55.407 -803.079 Z " fill="url(#_lgradient_0)"/><clipPath id="_clipPath_pajxCxk47lh5M4Zrjmeu93iobSasEjaA"><path d=" M 55.407 -803.079 L 3078.511 -803.079 L 3078.511 2639.464 L 55.407 2639.464 L 55.407 -803.079 Z " fill="url(#_lgradient_0)"/></clipPath><g clip-path="url(#_clipPath_pajxCxk47lh5M4Zrjmeu93iobSasEjaA)"><g><g><linearGradient id="_lgradient_1" x1="0.5000028129826823" y1="0.9514929388848303" x2="0.5000027874101127" y2="0.3692142246818454" gradientTransform="matrix(9.019,0,0,-4.315,1577.2,888.351)" gradientUnits="userSpaceOnUse"><stop offset="0%" stop-opacity="1" style="stop-color:rgb(255,255,255)"/><stop offset="35.824189000000004%" stop-opacity="1" style="stop-color:rgb(255,255,255)"/><stop offset="100%" stop-opacity="1" style="stop-color:rgb(255,255,255)"/></linearGradient><path d=" M 1577.2 886.193 C 1577.2 887.385 1579.219 888.351 1581.71 888.351 L 1581.71 888.351 C 1584.2 888.351 1586.219 887.385 1586.219 886.193 L 1586.219 886.193 C 1586.219 885.002 1584.2 884.036 1581.71 884.036 L 1581.71 884.036 C 1579.219 884.036 1577.2 885.002 1577.2 886.193" fill="url(#_lgradient_1)"/></g></g></g></g></g></g></g></g></g></g></g></svg>