<?xml version="1.0" encoding="UTF-8" standalone="no"?><!-- Generator: Gravit.io --><svg xmlns="http://www.w3.org/2000/svg" xmlns:xlink="http://www.w3.org/1999/xlink" style="isolation:isolate" viewBox="528.5 367 30 32" width="30pt" height="32pt"><g><g><g><g><g><g><clipPath id="_clipPath_7lDQv8o25kAXXQEiAa9EBgFGmgD6KFWO"><rect x="528.5" y="367" width="30" height="32" transform="matrix(1,0,0,1,0,0)" fill="rgb(255,255,255)"/></clipPath><g clip-path="url(#_clipPath_7lDQv8o25kAXXQEiAa9EBgFGmgD6KFWO)"><g><g><g><g><g><ellipse vector-effect="non-scaling-stroke" cx="543.5" cy="379.00000000000006" rx="12.007000000000062" ry="10" fill="rgb(255,255,255)"/><path d=" M 543.5 367 C 535.216 367 528.5 372.373 528.5 379 C 528.5 381.699 529.613 384.188 531.493 386.194 L 543.5 399 L 555.507 386.194 C 557.387 384.188 558.5 381.699 558.5 379 C 558.5 372.373 551.784 367 543.5 367 Z  M 543.5 388 C 537.978 388 532.5 383.418 532.5 379 C 532.5 374.582 537.978 370 543.5 370 C 549.023 370 554.5 374.582 554.5 379 C 554.5 383.418 549.023 388 543.5 388 Z " fill="rgb(0,125,198)"/></g></g></g></g></g></g></g></g></g><g><path d=" M 543.499 371 C 542.858 371 542.349 371.34 542.349 371.754 L 542.738 375.94 C 542.781 376.192 543.106 376.386 543.499 376.386 C 543.893 376.386 544.217 376.191 544.261 375.94 L 544.652 371.754 C 544.652 371.34 544.141 371 543.5 371 L 543.499 371 Z  M 537.16 374.358 C 536.828 374.365 536.45 374.604 536.21 375 C 535.888 375.527 535.945 376.117 536.321 376.323 L 540.33 378.097 C 540.58 378.186 540.92 378.017 541.117 377.694 C 541.117 377.694 541.117 377.694 541.117 377.694 C 541.315 377.37 541.3 377.005 541.091 376.843 L 537.471 374.43 C 537.377 374.378 537.271 374.355 537.16 374.358 L 537.16 374.358 Z  M 549.838 374.358 C 549.727 374.355 549.621 374.378 549.528 374.43 L 545.907 376.843 C 545.7 377.005 545.684 377.37 545.881 377.694 L 545.881 377.694 C 546.079 378.017 546.418 378.186 546.668 378.097 L 550.679 376.323 C 551.056 376.117 551.11 375.528 550.791 375 C 550.55 374.604 550.172 374.365 549.839 374.358 L 549.838 374.358 Z  M 540.479 379.88 C 540.427 379.88 540.377 379.887 540.33 379.904 L 536.322 381.676 C 535.946 381.883 535.889 382.473 536.21 383.001 C 536.53 383.527 537.095 383.777 537.471 383.571 L 541.092 381.159 C 541.3 380.996 541.316 380.631 541.118 380.307 L 541.119 380.308 C 540.959 380.044 540.704 379.883 540.479 379.88 L 540.479 379.88 Z  M 546.52 379.88 C 546.296 379.883 546.041 380.044 545.881 380.308 L 545.882 380.307 C 545.685 380.631 545.701 380.996 545.908 381.159 L 549.529 383.571 C 549.904 383.777 550.469 383.527 550.791 383.001 C 551.11 382.473 551.056 381.884 550.678 381.676 L 546.669 379.904 C 546.622 379.887 546.572 379.88 546.52 379.88 L 546.52 379.88 Z  M 543.498 381.615 C 543.106 381.615 542.782 381.809 542.739 382.061 L 542.35 386.246 C 542.35 386.661 542.859 387 543.5 387 C 544.141 387 544.651 386.661 544.651 386.246 L 544.261 382.061 C 544.218 381.809 543.894 381.615 543.5 381.615 L 543.498 381.615 L 543.498 381.615 Z " fill="rgb(255,194,32)"/></g></g></g></g></svg>